<svg width="44" height="44" viewBox="0 0 44 44" fill="none" xmlns="http://www.w3.org/2000/svg">
<g clip-path="url(#clip0_625_1968)">
<path d="M26.9049 36.4895C26.7425 35.8757 26.5877 35.2888 26.4079 34.6096C26.0581 34.7667 25.7021 34.9115 25.3594 35.0838C24.9343 35.2973 24.5651 35.2537 24.3104 34.8746C23.0665 33.0235 23.0878 30.7976 25.0976 29.2773C25.5776 28.9143 25.9393 28.9829 26.3085 29.4548C26.5589 29.7752 26.8429 30.0696 27.1297 30.3962C27.5775 29.7695 27.9808 29.2049 28.4045 28.6118C28.2203 28.5295 28.0286 28.4452 27.8388 28.3581C27.4279 28.1688 27.2864 27.8702 27.3962 27.43C27.9018 25.4071 30.1298 24.1798 32.0952 24.8419C32.5496 24.9953 32.7352 25.337 32.6149 25.8108C32.5629 26.0162 32.5004 26.2188 32.437 26.4417H34.7124C34.6186 25.9386 34.5732 25.4587 34.435 25.0071C34.2404 24.3715 34.3427 24.0752 34.9566 23.8163C37.0327 22.9416 39.1472 23.6402 40.1999 25.5486C40.5379 26.161 40.4163 26.5359 39.772 26.8279C39.2031 27.0854 38.724 27.4442 38.3936 27.9743C38.7254 28.2753 39.0483 28.5673 39.3867 28.874C39.4317 28.7477 39.5107 28.5441 39.5765 28.3364C39.7209 27.8815 39.9628 27.6851 40.4262 27.7693C42.446 28.1347 44.0497 29.6952 43.6246 32.0944C43.548 32.5275 43.1958 32.7201 42.739 32.6808C42.2869 32.642 41.8292 32.6449 41.3753 32.66C41.1343 32.6681 41.0013 32.7973 41.042 33.0846C41.0823 33.3695 41.1059 33.6715 41.0562 33.9517C40.9753 34.4089 41.1812 34.6484 41.5746 34.7624C42.1113 34.9177 42.6495 35.0871 43.1996 35.1709C43.7397 35.2528 43.9896 35.4634 43.9976 36.02C44.0322 38.3373 42.5766 39.9669 40.2629 40.2022C39.7015 40.259 39.3597 39.966 39.3266 39.4023C39.3124 39.1632 39.2925 38.9247 39.2745 38.6762C38.4883 39.2678 37.7432 39.8282 36.8997 40.4629C37.0952 40.8473 37.2921 41.3211 37.5638 41.747C37.899 42.2733 37.8786 42.6184 37.3915 43.0093C35.6184 44.4321 33.3501 44.3142 31.8022 42.7192C31.3785 42.2828 31.3946 41.8597 31.8453 41.4635C32.0138 41.3154 32.1747 41.1587 32.3555 40.9902C31.6043 40.7176 30.899 40.462 30.1616 40.1946C30.1048 40.3754 30.038 40.5756 29.9788 40.7782C29.843 41.2434 29.568 41.428 29.0965 41.3665C27.0611 41.1005 25.7168 39.4931 25.8318 37.4631C25.8758 36.6879 26.103 36.4768 26.9044 36.49L26.9049 36.4895ZM42.437 36.7305C41.6124 36.3348 40.8499 35.9661 40.0844 35.6021C39.5789 35.3616 39.4554 34.9745 39.5268 34.433C39.5898 33.955 39.5874 33.4566 39.5306 32.9771C39.4184 32.0281 39.4899 31.845 40.3566 31.455C40.5639 31.3617 40.7831 31.2827 41.0056 31.2396C41.3881 31.1658 41.7767 31.1256 42.161 31.0711C42.0877 30.2485 41.5504 29.6129 40.8035 29.4297C40.536 29.8211 40.2908 30.2248 40.0011 30.5936C39.5486 31.1691 39.0809 31.1137 38.6227 30.5387C38.2076 30.0175 37.7541 29.5158 37.2571 29.0738C36.6957 28.5744 36.6034 28.3534 36.9002 27.6605C37.242 26.862 37.8308 26.2803 38.5366 25.8061C37.9657 25.0142 36.797 24.6933 36.0283 25.0961C36.0283 25.8293 36.0595 26.56 36.0183 27.2866C35.9847 27.8782 35.6231 28.1556 35.0584 28.0334C34.0194 27.8081 33.004 27.8536 31.9821 28.1333C31.4202 28.2871 31.0462 28.015 30.9918 27.4352C30.9539 27.03 30.9847 26.6187 30.9847 26.2141C30.1625 26.1681 29.5206 26.5383 29.079 27.2899C29.364 27.5138 29.6626 27.7253 29.9339 27.9667C30.4352 28.413 30.4333 28.8352 29.9306 29.2721C29.2144 29.894 28.679 30.6409 28.3117 31.5151C28.0599 32.1148 27.6996 32.2833 27.1113 31.9856C26.547 31.7006 26.0316 31.3187 25.4787 30.9694C24.851 31.5866 24.7294 32.6548 25.2221 33.4116C25.8512 33.3009 26.459 33.1622 27.0753 33.0959C27.534 33.0462 27.8417 33.3359 27.8582 33.7969C27.8975 34.8888 28.1938 35.8936 28.7481 36.836C29.0667 37.3775 28.8196 37.8759 28.1971 37.9999C27.9179 38.0552 27.6286 38.0604 27.3456 38.0879C27.3745 38.8812 27.9216 39.5258 28.7424 39.7535C28.8835 39.5036 29.0156 39.2461 29.1699 39.0018C29.6016 38.3179 29.8988 38.255 30.5956 38.6918C31.4666 39.2385 32.4152 39.5381 33.4414 39.5958C34.1775 39.637 34.4861 40.1051 34.1756 40.7843C33.9626 41.2501 33.6663 41.6775 33.4064 42.1228C34.2201 42.6671 35.1848 42.6709 35.9492 42.1579C35.7646 41.4976 35.5625 40.8619 35.4134 40.214C35.2828 39.647 35.4314 39.3795 35.9535 39.158C37.0824 38.6791 37.978 37.9293 38.6601 36.9117C39.0899 36.2704 39.6802 36.2567 40.0698 36.9169C40.3737 37.4319 40.5763 38.0065 40.8286 38.565C41.674 38.3998 42.3471 37.6207 42.437 36.729V36.7305Z" fill="url(#paint0_linear_625_1968)"/>
<path d="M30.0658 11.4005C28.3168 10.8457 26.6279 10.3729 24.9848 9.77418C22.5281 8.87963 20.2139 7.67364 17.9963 6.28922C17.7089 6.10984 17.5125 6.10605 17.2247 6.28259C13.8933 8.32775 10.3838 9.97202 6.58375 10.9499C6.11323 11.071 5.63894 11.1771 5.1386 11.2973C5.1386 11.4757 5.1386 11.6418 5.1386 11.8084C5.1386 16.0994 5.15848 20.3909 5.13197 24.6819C5.11209 27.9643 6.19512 30.7762 8.54485 33.084C8.81087 33.3453 9.04281 33.6553 8.83028 34.007C8.70247 34.2181 8.41278 34.3856 8.16427 34.45C8.00854 34.4902 7.75151 34.3468 7.61139 34.2119C5.12771 31.8094 3.73511 28.8868 3.69298 25.4217C3.63334 20.5509 3.6731 15.6791 3.67358 10.8074C3.67358 10.2716 3.88043 10.0151 4.40349 9.91948C8.82223 9.11344 12.8306 7.28979 16.6037 4.92373C17.3568 4.45137 17.8831 4.47125 18.6183 4.93414C22.1249 7.1407 25.8553 8.84791 29.9243 9.7453C30.2367 9.81441 30.5534 9.86458 30.8663 9.93368C31.2927 10.0274 31.5318 10.2863 31.5318 10.7359C31.5318 14.6298 31.5346 18.5242 31.5285 22.4181C31.5275 22.9146 31.2132 23.2189 30.7702 23.2038C30.3356 23.1891 30.0682 22.8819 30.0677 22.3608C30.0644 18.8636 30.0658 15.3668 30.0658 11.8695C30.0658 11.6873 30.0658 11.5051 30.0658 11.4005Z" fill="url(#paint1_linear_625_1968)"/>
<path d="M20.5336 24.9319C20.5336 26.5833 20.5341 28.1693 20.5336 29.7558C20.5336 30.5718 20.3125 30.7966 19.5121 30.7971C18.2601 30.7981 17.0085 30.7976 15.7565 30.7971C14.8766 30.7971 14.6692 30.5936 14.6688 29.7308C14.6683 28.2957 14.6688 26.8606 14.6688 25.4256V24.9319C14.2361 24.9319 13.8437 24.9319 13.4508 24.9319C12.1837 24.9319 10.9165 24.9366 9.64933 24.9295C9.0813 24.9262 8.80818 24.6522 8.80534 24.0818C8.79871 22.7078 8.80013 21.3338 8.80439 19.9598C8.80629 19.3322 9.069 19.0695 9.69666 19.0681C11.3297 19.0639 12.9623 19.0667 14.6683 19.0667C14.6683 18.8906 14.6683 18.7311 14.6683 18.5711C14.6683 17.0902 14.6664 15.6092 14.6692 14.1282C14.6706 13.4642 14.9234 13.2043 15.5738 13.2024C16.9323 13.1986 18.2913 13.1977 19.6498 13.2024C20.269 13.2048 20.5303 13.4732 20.5322 14.1055C20.536 15.7375 20.5336 17.3694 20.5336 19.0662C20.7182 19.0662 20.8791 19.0662 21.0401 19.0662C22.5207 19.0662 24.0018 19.0639 25.4825 19.0672C26.1381 19.0686 26.3961 19.327 26.398 19.9835C26.4017 21.3272 26.4017 22.6704 26.398 24.0142C26.3961 24.6702 26.1376 24.9291 25.4825 24.931C24.017 24.9343 22.5515 24.9319 21.0855 24.9319H20.5336ZM24.8979 23.4656V20.533C23.2298 20.533 21.5967 20.5358 19.9632 20.5316C19.3341 20.5302 19.0709 20.2675 19.0686 19.6403C19.0638 18.449 19.0671 17.2577 19.0671 16.0664C19.0671 15.613 19.0671 15.1595 19.0671 14.6985H16.1343C16.1343 16.3002 16.1343 17.8716 16.1343 19.4425C16.1343 20.3366 15.934 20.533 15.0233 20.533C13.6028 20.533 12.1822 20.533 10.7622 20.533H10.2959V23.4656C10.4876 23.4656 10.6524 23.4656 10.8176 23.4656C12.2684 23.4656 13.7197 23.4642 15.1705 23.4661C15.8881 23.467 16.1328 23.7108 16.1338 24.4274C16.1361 25.8937 16.1343 27.36 16.1343 28.8263C16.1343 28.9872 16.1343 29.1481 16.1343 29.3076H19.0671V28.8395C19.0671 27.404 19.0671 25.968 19.0671 24.5324C19.0671 23.6677 19.2735 23.4656 20.1544 23.4656C21.726 23.4656 23.297 23.4656 24.8979 23.4656Z" fill="url(#paint2_linear_625_1968)"/>
<path d="M1.47457 8.14258C1.47457 9.67846 1.47457 11.2342 1.47457 12.7905C1.47457 12.9433 1.48356 13.0972 1.46747 13.2481C1.42439 13.6523 1.11908 13.933 0.739454 13.9321C0.358878 13.9311 0.0455191 13.65 0.0175913 13.2444C-0.00654967 12.8946 0.00859761 12.542 0.00859761 12.1908C0.00859761 10.6175 0.00528414 9.04423 0.0100177 7.47144C0.0119111 6.91104 0.267995 6.61475 0.791049 6.60765C3.99422 6.56553 6.98865 5.6653 9.88415 4.38358C12.3749 3.28125 14.7223 1.92097 16.9324 0.325926C17.5435 -0.115196 17.6822 -0.106676 18.3108 0.340125C21.6649 2.72606 25.2525 4.65005 29.2234 5.80303C30.8863 6.2858 32.5819 6.57594 34.3177 6.60292C34.9491 6.61286 35.2028 6.86986 35.2028 7.50267C35.2052 12.161 35.2047 16.8192 35.2028 21.478C35.2028 22.0649 34.9377 22.3792 34.4644 22.3763C33.9948 22.3735 33.7345 22.0569 33.7345 21.4676C33.7331 17.1913 33.7335 12.9145 33.7335 8.63814C33.7335 8.45781 33.7335 8.27795 33.7335 8.16152C32.3476 7.91918 30.9971 7.75826 29.6845 7.43972C25.4324 6.40886 21.6143 4.42855 18.0429 1.94605C17.7167 1.71934 17.5151 1.70372 17.1795 1.93706C13.4797 4.50996 9.51825 6.53713 5.09572 7.54527C3.92512 7.81222 2.72233 7.94048 1.4741 8.14211L1.47457 8.14258Z" fill="url(#paint3_linear_625_1968)"/>
<path d="M0.00617488 21.1105C0.00617488 19.5221 0.00475483 17.9337 0.00664824 16.3452C0.00759494 15.7413 0.291133 15.3925 0.759752 15.4067C1.21133 15.4204 1.4712 15.756 1.47167 16.3414C1.47357 18.9834 1.52753 21.6273 1.46126 24.2674C1.31547 30.0555 3.77027 34.4696 8.42522 37.7661C11.1972 39.7289 14.265 41.1162 17.3986 42.3728C17.5538 42.4353 17.7914 42.3951 17.9538 42.3212C19.8685 41.4518 21.7723 40.5577 23.6913 39.6977C23.9275 39.5917 24.2716 39.5552 24.497 39.6499C24.6797 39.7266 24.878 40.0612 24.8558 40.2581C24.8288 40.5019 24.6347 40.819 24.4207 40.934C23.3746 41.4977 22.3086 42.0287 21.2285 42.5248C20.1899 43.0014 19.1306 43.4349 18.0674 43.8548C17.8326 43.9475 17.5079 43.993 17.284 43.9063C14.2508 42.7325 11.271 41.4423 8.5464 39.6362C5.93113 37.9029 3.67655 35.8152 2.09508 33.0619C0.727564 30.6789 0.074811 28.1031 0.0151686 25.3712C-0.0155993 23.9517 0.0099617 22.5304 0.0099617 21.1105H0.00664824H0.00617488Z" fill="url(#paint4_linear_625_1968)"/>
<path d="M10.3989 34.8086C10.6635 34.934 10.8386 34.9918 10.9853 35.0907C12.9412 36.4084 15.0529 37.4255 17.2156 38.3485C17.4878 38.4644 17.7112 38.489 17.9862 38.3532C19.4612 37.6252 20.9409 36.9068 22.4296 36.2072C22.6606 36.0988 22.9825 36.0061 23.1945 36.086C23.4 36.1632 23.5917 36.4524 23.6565 36.6853C23.7535 37.036 23.5173 37.293 23.2068 37.4482C21.8989 38.1023 20.5878 38.7508 19.278 39.4001C19.2373 39.4205 19.1871 39.4243 19.1502 39.4489C18.0951 40.1617 17.0977 39.9757 15.9981 39.439C14.0517 38.4895 12.0859 37.5874 10.2829 36.3743C10.157 36.2896 9.97804 36.2134 9.93402 36.0927C9.84692 35.8541 9.74089 35.5498 9.82184 35.343C9.90846 35.1215 10.2015 34.9804 10.3993 34.8086H10.3989Z" fill="url(#paint5_linear_625_1968)"/>
<path d="M37.239 33.7262C37.7668 33.7385 38.1142 33.4616 38.1275 33.0176C38.1403 32.5921 37.8368 32.3063 37.3256 32.2627C36.1105 32.1595 35.3006 31.353 35.2007 30.1461C35.1567 29.6188 34.8457 29.3008 34.4088 29.3367C33.9833 29.3718 33.7272 29.7054 33.7367 30.2133C33.7698 32.0564 35.391 33.6822 37.239 33.7257V33.7262ZM33.7272 36.495C33.6784 34.642 32.0525 33.029 30.2059 33.0011C29.7013 32.9935 29.3667 33.2562 29.3378 33.6826C29.3089 34.1067 29.619 34.4196 30.1113 34.4641C31.3756 34.5781 32.1566 35.3525 32.2641 36.5996C32.3076 37.1032 32.6039 37.4109 33.0276 37.3929C33.4692 37.374 33.7404 37.0251 33.7267 36.495H33.7272Z" fill="url(#paint6_linear_625_1968)"/>
<path d="M37.2369 33.7257C35.389 33.6822 33.7677 32.0564 33.7346 30.2133C33.7256 29.7055 33.9812 29.3718 34.4068 29.3367C34.8437 29.3008 35.1547 29.6188 35.1987 30.1461C35.299 31.353 36.1085 32.1595 37.3236 32.2627C37.8348 32.3063 38.1382 32.5917 38.1254 33.0177C38.1122 33.4616 37.7647 33.7385 37.2369 33.7262V33.7257Z" fill="url(#paint7_linear_625_1968)"/>
<path d="M33.7267 36.4961C33.7404 37.0262 33.4692 37.375 33.0276 37.3939C32.6039 37.4124 32.3071 37.1043 32.2641 36.6007C32.1561 35.3535 31.3756 34.5792 30.1113 34.4651C29.619 34.4206 29.3089 34.1078 29.3378 33.6837C29.3667 33.2572 29.7013 32.9945 30.2059 33.0021C32.0525 33.0296 33.6784 34.6426 33.7272 36.4961H33.7267Z" fill="url(#paint8_linear_625_1968)"/>
</g>
<defs>
<linearGradient id="paint0_linear_625_1968" x1="23.4648" y1="33.7222" x2="43.9982" y2="33.7222" gradientUnits="userSpaceOnUse">
<stop stop-color="#9E6718"/>
<stop offset="1" stop-color="#FFB545"/>
</linearGradient>
<linearGradient id="paint1_linear_625_1968" x1="3.66016" y1="19.5175" x2="31.5324" y2="19.5175" gradientUnits="userSpaceOnUse">
<stop stop-color="#9E6718"/>
<stop offset="1" stop-color="#FFB545"/>
</linearGradient>
<linearGradient id="paint2_linear_625_1968" x1="8.80078" y1="21.9984" x2="26.4008" y2="21.9984" gradientUnits="userSpaceOnUse">
<stop stop-color="#9E6718"/>
<stop offset="1" stop-color="#FFB545"/>
</linearGradient>
<linearGradient id="paint3_linear_625_1968" x1="0.00390625" y1="11.1882" x2="35.2044" y2="11.1882" gradientUnits="userSpaceOnUse">
<stop stop-color="#9E6718"/>
<stop offset="1" stop-color="#FFB545"/>
</linearGradient>
<linearGradient id="paint4_linear_625_1968" x1="0" y1="29.6794" x2="24.8575" y2="29.6794" gradientUnits="userSpaceOnUse">
<stop stop-color="#9E6718"/>
<stop offset="1" stop-color="#FFB545"/>
</linearGradient>
<linearGradient id="paint5_linear_625_1968" x1="9.79297" y1="37.362" x2="23.6786" y2="37.362" gradientUnits="userSpaceOnUse">
<stop stop-color="#9E6718"/>
<stop offset="1" stop-color="#FFB545"/>
</linearGradient>
<linearGradient id="paint6_linear_625_1968" x1="29.3359" y1="33.3638" x2="38.1279" y2="33.3638" gradientUnits="userSpaceOnUse">
<stop stop-color="#9E6718"/>
<stop offset="1" stop-color="#FFB545"/>
</linearGradient>
<linearGradient id="paint7_linear_625_1968" x1="33.7344" y1="31.5303" x2="38.1258" y2="31.5303" gradientUnits="userSpaceOnUse">
<stop stop-color="#9E6718"/>
<stop offset="1" stop-color="#FFB545"/>
</linearGradient>
<linearGradient id="paint8_linear_625_1968" x1="29.3359" y1="35.1983" x2="33.7272" y2="35.1983" gradientUnits="userSpaceOnUse">
<stop stop-color="#9E6718"/>
<stop offset="1" stop-color="#FFB545"/>
</linearGradient>
<clipPath id="clip0_625_1968">
<rect width="44" height="44" fill="white"/>
</clipPath>
</defs>
</svg>
