<svg width="124" height="18" viewBox="0 0 124 18" fill="none" xmlns="http://www.w3.org/2000/svg">
<path d="M3.73772 17.7314H0.242709L5.3396 0.741806H10.1938L15.4363 17.7314H11.7714L10.8006 14.3335H4.66002L3.73772 17.7314ZM9.97535 11.4453L7.69388 3.31452L5.46096 11.4453H9.97535ZM29.9621 12.4647C29.9621 16.2024 27.2437 17.9984 23.0206 17.9984C19.2343 17.9984 16.516 16.1781 16.4189 12.3676H19.8896C19.8896 14.2364 21.0789 15.1587 23.1662 15.1587C24.5982 15.1587 26.5884 14.7704 26.5884 12.853C26.5884 10.0618 20.8362 11.3725 18.1421 8.99392C17.3412 8.29006 16.7101 7.14933 16.7101 5.49891C16.7101 2.14952 19.6955 0.474826 22.972 0.474826C26.37 0.474826 29.4038 1.71264 29.6708 5.79016H26.2243C26.1273 4.86786 25.8603 3.24171 23.0449 3.24171C21.1032 3.24171 20.1323 4.04265 20.1323 5.2562C20.1323 7.80464 24.5011 7.14933 27.4379 8.58131C28.8213 9.23663 29.9621 10.3288 29.9621 12.4647ZM49.9429 12.4647C49.9429 16.2024 47.2246 17.9984 43.0014 17.9984C39.2152 17.9984 36.4968 16.1781 36.3997 12.3676H39.8705C39.8705 14.2364 41.0597 15.1587 43.147 15.1587C44.579 15.1587 46.5692 14.7704 46.5692 12.853C46.5692 10.0618 40.817 11.3725 38.123 8.99392C37.322 8.29006 36.691 7.14933 36.691 5.49891C36.691 2.14952 39.6763 0.474826 42.9529 0.474826C46.3508 0.474826 49.3847 1.71264 49.6517 5.79016H46.2052C46.1081 4.86786 45.8411 3.24171 43.0257 3.24171C41.084 3.24171 40.1132 4.04265 40.1132 5.2562C40.1132 7.80464 44.4819 7.14933 47.4187 8.58131C48.8022 9.23663 49.9429 10.3288 49.9429 12.4647ZM63.9783 17.7314H52.0128V0.741806H63.7356V3.72713H55.3621V7.65902H63.1531V10.6929H55.3621V14.7461H63.9783V17.7314ZM78.6025 17.7314H66.6369V0.741806H78.3598V3.72713H69.9863V7.65902H77.7773V10.6929H69.9863V14.7461H78.6025V17.7314ZM95.1198 17.7314H91.0423L84.6105 5.79016V17.7314H81.2611V0.741806H85.5085L91.7947 12.586V0.741806H95.1198V17.7314ZM106.487 17.7314H103.138V0.741806H106.487V17.7314ZM123.254 17.7314H119.177L112.745 5.79016V17.7314H109.395V0.741806H113.643L119.929 12.586V0.741806H123.254V17.7314Z" fill="#322D2D"/>
<a href="https://www.alcamielements.com/products/himalayan-shilajit">
<rect fill="black" fill-opacity="0" y="1.3574" width="124.71" height="31.2852"/>
</a>
</svg>
