<svg width="44" height="44" viewBox="0 0 44 44" fill="none" xmlns="http://www.w3.org/2000/svg">
<path d="M19.4279 15.2474C19.4279 16.0788 19.3077 16.8773 19.4505 17.6252C19.8793 19.8747 21.7723 21.4362 24.0339 21.5293C26.3886 21.6263 28.453 20.1463 29.108 17.8439C29.8153 15.3567 31.2577 13.4413 33.4395 12.0746C33.8853 11.7955 34.0535 11.3394 33.8473 10.9994C33.6426 10.6626 33.1542 10.6117 32.7099 10.8876C30.1818 12.4579 28.5094 14.6736 27.6815 17.5405C27.1166 19.4981 25.0466 20.5614 23.1219 19.9097C21.1888 19.2552 20.1653 17.1477 20.9504 15.2621C21.2495 14.5435 21.044 14.0298 20.1709 13.9284C18.2096 13.7009 16.8097 11.7104 17.1989 9.77703C17.609 7.73953 19.533 6.48021 21.503 7.00032C24.5567 7.80673 27.4232 7.3733 30.141 5.7899C32.4711 4.43236 34.8104 3.09073 37.1454 1.74114C37.4004 1.59361 37.6658 1.45842 37.8999 1.28226C38.2057 1.05203 38.3089 0.731929 38.1153 0.382404C37.9277 0.0436156 37.6123 -0.0645424 37.2449 0.0360604C37.0922 0.0778126 36.951 0.170065 36.8114 0.251581C34.3665 1.67593 31.9269 3.10942 29.4777 4.52581C27.6553 5.57955 25.6948 6.07978 23.588 5.85869C22.7704 5.7728 21.9667 5.55371 21.1487 5.46781C17.7364 5.10954 14.9778 8.44057 15.9647 11.7235C16.5003 13.5045 17.6515 14.7022 19.4275 15.2482L19.4279 15.2474ZM15.265 19.4313C15.2225 19.3263 15.1928 19.2603 15.169 19.1919C14.2415 16.5337 11.6634 15.1853 8.99207 15.9611C6.42825 16.7059 4.96048 19.2552 5.61304 21.95C6.27036 24.6639 5.84749 27.1869 4.47057 29.5847C3.0746 32.0158 1.69173 34.4545 0.303703 36.8901C0.223571 37.0308 0.139075 37.1712 0.0744143 37.3191C-0.0862464 37.6862 0.0180839 37.9999 0.340595 38.2047C0.66033 38.4075 0.995139 38.3725 1.26489 38.0886C1.37438 37.9733 1.44935 37.8229 1.52988 37.6826C2.94885 35.2136 4.35632 32.7379 5.786 30.2754C7.38071 27.5289 7.83214 24.6249 7.08279 21.5293C6.62104 19.6206 7.72662 17.7799 9.60496 17.2733C11.442 16.7783 13.3458 17.8714 13.8904 19.7431C13.9765 20.0397 14.0011 20.3538 14.0856 20.6513C14.2264 21.1467 14.5708 21.2911 15.0325 21.0779C15.2194 20.9917 15.405 20.897 15.601 20.8386C16.8696 20.4596 17.9784 20.7825 18.9725 21.6175C19.32 21.9098 19.7016 21.8768 19.9916 21.5567C20.2451 21.2772 20.2316 20.9213 19.9293 20.6056C19.767 20.4362 19.5822 20.2835 19.389 20.1503C18.1374 19.2882 16.7641 19.0862 15.2646 19.4313H15.265ZM21.6208 24.3318C21.6041 24.0964 21.6041 23.8582 21.5672 23.626C21.4792 23.0725 21.1721 22.7981 20.7318 22.8566C20.2907 22.915 20.0915 23.2467 20.1518 23.8213C20.3323 25.5351 19.2934 27.1221 17.6352 27.5682C14.5612 28.3949 12.3152 30.2618 10.7395 32.9904C9.79538 34.6251 8.86473 36.2678 7.92775 37.9064C6.98322 39.5578 6.03512 41.2073 5.09536 42.8614C4.86131 43.2734 4.94025 43.6511 5.27625 43.8786C5.61264 44.1064 6.0502 44.0074 6.32154 43.6368C6.39096 43.5422 6.44451 43.4356 6.50322 43.3338C7.96146 40.804 9.41653 38.2719 10.8791 35.7445C11.4405 34.7746 11.9661 33.7782 12.6016 32.8588C13.9154 30.9585 15.7212 29.7266 17.945 29.0896C20.1721 28.4518 21.6057 26.5662 21.6208 24.3326V24.3318ZM36.0453 10.5755C36.3373 10.4526 36.5349 10.3938 36.7078 10.2928C38.9325 8.99687 41.1544 7.69619 43.3742 6.39233C43.5242 6.30445 43.6817 6.20305 43.7856 6.06865C44.0082 5.78076 44.0986 5.4372 43.8523 5.13141C43.5992 4.81688 43.2517 4.79183 42.8958 4.98309C42.8181 5.02485 42.7435 5.07216 42.6673 5.1171C40.4585 6.41062 38.2494 7.70414 36.041 8.99885C35.9144 9.07321 35.7827 9.14439 35.6713 9.23823C35.4221 9.44739 35.2892 9.74005 35.4551 10.022C35.588 10.2478 35.8486 10.3985 36.0449 10.5755H36.0453ZM7.1653 36.2972C6.98957 36.0916 6.83446 35.791 6.58851 35.6526C6.26044 35.4681 5.94785 35.6737 5.77053 35.9759C5.04736 37.209 4.33371 38.4484 3.63434 39.6954C3.42687 40.0656 3.59744 40.511 3.95407 40.6669C4.31506 40.8243 4.74666 40.6525 4.99222 40.2299C5.64359 39.1081 6.28861 37.9828 6.93086 36.8559C7.009 36.7187 7.05502 36.5628 7.1653 36.2972ZM26.4021 25.9689C26.1939 26.1339 25.8888 26.256 25.8313 26.4516C25.7615 26.6886 25.8059 27.0763 25.9642 27.2453C26.9016 28.2474 27.881 29.2105 28.8585 30.1744C29.1885 30.5 29.603 30.5036 29.8887 30.2292C30.1894 29.9405 30.1822 29.5262 29.8351 29.1731C28.8831 28.2048 27.9231 27.2437 26.9555 26.291C26.8274 26.1649 26.6374 26.1025 26.4021 25.9685V25.9689ZM6.3497 5.93504C6.13707 6.12949 5.84669 6.27463 5.77807 6.49094C5.70983 6.70686 5.77846 7.07547 5.93317 7.23532C6.90388 8.24056 7.90989 9.21278 8.9167 10.1822C9.27293 10.5254 9.64622 10.5218 9.92866 10.2232C10.2302 9.90507 10.2242 9.5138 9.87511 9.16706C8.90401 8.20278 7.92536 7.24566 6.93958 6.2965C6.79955 6.1617 6.602 6.08654 6.3497 5.93464V5.93504ZM5.43453 14.3956C6.09661 14.3956 6.75909 14.4056 7.42077 14.3924C7.90791 14.3825 8.15386 14.1364 8.15703 13.7005C8.16021 13.2647 7.91783 12.9939 7.43545 12.988C6.11129 12.9713 4.78713 12.9713 3.46297 12.9864C2.95877 12.9919 2.71242 13.2711 2.72988 13.7304C2.74654 14.165 2.98654 14.3857 3.49232 14.394C4.13972 14.4048 4.78713 14.3968 5.43453 14.3956ZM30.4036 22.0752C29.7712 22.0752 29.1389 22.0705 28.5066 22.0768C27.9937 22.082 27.7184 22.3218 27.7069 22.7556C27.6946 23.2109 27.9782 23.4876 28.5042 23.4912C29.7835 23.5 31.0633 23.4992 32.3426 23.4912C32.8702 23.488 33.165 23.2097 33.1511 22.7643C33.1384 22.3476 32.8357 22.082 32.345 22.0768C31.698 22.0701 31.051 22.0752 30.4036 22.0752ZM21.6874 30.8448C21.6874 31.4794 21.6827 32.114 21.689 32.7483C21.6942 33.2891 21.9409 33.5579 22.4086 33.5511C22.8549 33.5447 23.0985 33.2803 23.1009 32.7654C23.1068 31.4814 23.1064 30.1978 23.1009 28.9138C23.0985 28.3734 22.8474 28.1038 22.3809 28.1102C21.937 28.1166 21.6946 28.3834 21.689 28.8967C21.6819 29.5461 21.6874 30.1954 21.687 30.8448H21.6874ZM14.1054 5.76445C14.1054 5.08529 14.1154 4.40572 14.1023 3.72695C14.0928 3.23388 13.8508 2.99291 13.41 2.99052C12.9892 2.98853 12.7107 3.21996 12.7039 3.67168C12.6845 5.0149 12.6849 6.35893 12.7019 7.70255C12.7075 8.14035 13.0431 8.43659 13.4358 8.43222C13.8551 8.42745 14.0939 8.16818 14.1027 7.66915C14.1138 7.03451 14.1054 6.39948 14.105 5.76445H14.1054ZM20.0788 8.37376C19.8805 8.4354 19.7782 8.45409 19.6881 8.49783C18.7237 8.96386 18.2834 10.4701 18.842 11.3815C19.0379 11.7016 19.4358 11.8555 19.754 11.735C20.0904 11.6078 20.3073 11.2463 20.1598 10.8654C19.9646 10.3612 20.0304 10.0065 20.468 9.67206C20.7362 9.46688 20.7917 9.11417 20.6108 8.82787C20.4847 8.62786 20.2379 8.50419 20.0788 8.37376ZM10.8097 18.64C9.86995 18.6297 9.1087 18.9987 8.72034 19.5824C8.48907 19.93 8.53945 20.3256 8.84569 20.571C9.14956 20.8143 9.59981 20.8068 9.83504 20.4835C10.1762 20.0147 10.5467 19.8997 11.0894 20.1284C11.4702 20.289 11.8617 20.029 11.9819 19.6286C12.0918 19.2627 11.8935 18.885 11.4952 18.7689C11.229 18.6909 10.9482 18.6651 10.8097 18.6404V18.64Z" fill="url(#paint0_linear_625_1935)"/>
<path d="M19.431 15.2482C17.655 14.7022 16.5034 13.5045 15.9683 11.7235C14.9817 8.44096 17.7399 5.10994 21.1523 5.46781C21.9698 5.5537 22.7735 5.7728 23.5915 5.85869C25.6984 6.07978 27.6588 5.57955 29.4812 4.52581C31.9308 3.10942 34.3701 1.67632 36.8149 0.251581C36.9545 0.170463 37.0958 0.0782102 37.2485 0.0360604C37.6158 -0.0645423 37.9312 0.0436155 38.1188 0.382404C38.3124 0.732327 38.2093 1.05243 37.9034 1.28226C37.6694 1.45842 37.404 1.59401 37.1489 1.74114C34.8144 3.09073 32.4747 4.43236 30.1445 5.7899C27.4268 7.3733 24.5603 7.80673 21.5065 7.00032C19.5365 6.4802 17.6126 7.73953 17.2024 9.77703C16.8132 11.7104 18.2128 13.7009 20.1744 13.9284C21.0475 14.0298 21.253 14.5431 20.9539 15.2621C20.1689 17.1477 21.1923 19.2552 23.1254 19.9097C25.0502 20.5614 27.1201 19.4981 27.685 17.5405C28.5125 14.6736 30.1854 12.4575 32.7135 10.8876C33.1578 10.6117 33.6465 10.6626 33.8508 10.9994C34.0571 11.3394 33.8889 11.7951 33.443 12.0746C31.2608 13.4413 29.8188 15.3567 29.1115 17.8439C28.4566 20.1463 26.3922 21.6263 24.0374 21.5293C21.7759 21.4362 19.8828 19.8747 19.454 17.6252C19.3112 16.8769 19.4314 16.0784 19.4314 15.2474L19.431 15.2482Z" fill="url(#paint1_linear_625_1935)"/>
<path d="M15.2647 19.4322C16.7638 19.0871 18.1375 19.2891 19.3891 20.1512C19.5823 20.2844 19.7675 20.4371 19.9294 20.6065C20.2317 20.9222 20.2447 21.2781 19.9917 21.5576C19.7017 21.8777 19.3201 21.9107 18.9726 21.6185C17.9784 20.783 16.8697 20.4605 15.6011 20.8395C15.4051 20.8979 15.2194 20.993 15.0326 21.0789C14.5708 21.292 14.2265 21.1476 14.0857 20.6522C14.0012 20.3552 13.977 20.0406 13.8905 19.744C13.3459 17.8723 11.4421 16.7792 9.60504 17.2742C7.7267 17.7804 6.62072 19.6215 7.08287 21.5302C7.83183 24.6258 7.38079 27.5302 5.78608 30.2763C4.356 32.7388 2.94853 35.2145 1.52996 37.6835C1.44943 37.8239 1.37446 37.9742 1.26497 38.0895C0.995218 38.3734 0.66041 38.4088 0.340675 38.2056C0.0177669 38.0008 -0.0861667 37.6871 0.0744939 37.32C0.139155 37.1717 0.223651 37.0318 0.303783 36.891C1.69181 34.455 3.07468 32.0163 4.47065 29.5856C5.84757 27.1878 6.27044 24.6648 5.61312 21.9509C4.96056 19.2561 6.42833 16.7072 8.99215 15.962C11.6635 15.1858 14.2416 16.5346 15.1691 19.1929C15.1929 19.2612 15.2226 19.3273 15.2651 19.4322H15.2647Z" fill="url(#paint2_linear_625_1935)"/>
<path d="M21.6207 24.3333C21.6052 26.5668 20.172 28.452 17.945 29.0903C15.7215 29.7273 13.9158 30.9592 12.6015 32.8595C11.966 33.7788 11.4404 34.7753 10.8791 35.7452C9.41646 38.2726 7.96139 40.8043 6.50314 43.3345C6.44443 43.4367 6.39048 43.5429 6.32146 43.6375C6.05012 44.0085 5.61257 44.1071 5.27617 43.8793C4.94017 43.6518 4.86123 43.2741 5.09528 42.8621C6.03505 41.2079 6.98314 39.5585 7.92767 37.9071C8.86466 36.2684 9.7953 34.6258 10.7394 32.9911C12.3151 30.2625 14.5612 28.3956 17.6351 27.5689C19.2933 27.1231 20.3327 25.5358 20.1518 23.8219C20.0911 23.2473 20.2906 22.9157 20.7317 22.8573C21.1717 22.7992 21.4791 23.0732 21.5672 23.6267C21.6041 23.8589 21.6041 24.0971 21.6207 24.3325V24.3333Z" fill="url(#paint3_linear_625_1935)"/>
<path d="M36.0462 10.5768C35.8499 10.3999 35.5892 10.2492 35.4564 10.0233C35.2905 9.74137 35.4234 9.44871 35.6725 9.23955C35.784 9.14571 35.9157 9.07453 36.0423 9.00017C38.2507 7.70546 40.4598 6.41234 42.6686 5.11842C42.7448 5.07388 42.8194 5.02617 42.8971 4.98441C43.253 4.79315 43.6005 4.8182 43.8535 5.13273C44.0999 5.43852 44.0094 5.78208 43.7869 6.06997C43.683 6.20437 43.5255 6.30577 43.3755 6.39365C41.1556 7.69751 38.9338 8.99819 36.7091 10.2941C36.5361 10.3947 36.3386 10.4535 36.0466 10.5768H36.0462Z" fill="url(#paint4_linear_625_1935)"/>
<path d="M7.16385 36.2985C7.05357 36.5645 7.00755 36.72 6.92941 36.8572C6.28716 37.9841 5.64214 39.1094 4.99077 40.2312C4.74521 40.6535 4.31401 40.8257 3.95262 40.6682C3.5956 40.5123 3.42542 40.0666 3.63289 39.6968C4.33226 38.4498 5.04591 37.2107 5.76908 35.9772C5.9464 35.675 6.25899 35.4694 6.58706 35.654C6.83301 35.7919 6.98812 36.0929 7.16385 36.2985Z" fill="url(#paint5_linear_625_1935)"/>
<path d="M26.3997 25.9688C26.635 26.1028 26.8254 26.1652 26.9531 26.2912C27.9206 27.244 28.8802 28.2051 29.8327 29.1733C30.1798 29.5264 30.187 29.9408 29.8863 30.2295C29.6006 30.5038 29.1857 30.5002 28.8561 30.1746C27.879 29.2107 26.8996 28.2476 25.9618 27.2456C25.8035 27.0766 25.7591 26.6889 25.8289 26.4519C25.8868 26.2562 26.1915 26.1342 26.3997 25.9691V25.9688Z" fill="url(#paint6_linear_625_1935)"/>
<path d="M6.34799 5.93555C6.60029 6.08745 6.79784 6.1622 6.93788 6.2974C7.92366 7.24656 8.9023 8.20329 9.8734 9.16796C10.2225 9.5147 10.2284 9.90598 9.92696 10.2241C9.64412 10.5227 9.27122 10.5263 8.91499 10.1831C7.90819 9.21329 6.90217 8.24146 5.93147 7.23623C5.77676 7.07598 5.70813 6.70776 5.77636 6.49184C5.84499 6.27593 6.13497 6.13039 6.34799 5.93594V5.93555Z" fill="url(#paint7_linear_625_1935)"/>
<path d="M5.43208 14.3973C4.78468 14.3977 4.13728 14.4061 3.48987 14.3953C2.98409 14.387 2.74409 14.1659 2.72743 13.7317C2.70997 13.2724 2.95632 12.9937 3.46052 12.9877C4.78468 12.9726 6.10884 12.9726 7.433 12.9893C7.91538 12.9953 8.15776 13.2661 8.15459 13.7019C8.15141 14.1377 7.90546 14.3838 7.41832 14.3938C6.75664 14.4073 6.09416 14.3969 5.43208 14.3977V14.3973Z" fill="url(#paint8_linear_625_1935)"/>
<path d="M30.4041 22.0761C31.0511 22.0761 31.6985 22.0709 32.3455 22.0777C32.8363 22.0829 33.1389 22.3485 33.1516 22.7652C33.1651 23.2106 32.8708 23.4889 32.3432 23.4921C31.0638 23.4997 29.7841 23.5005 28.5048 23.4921C27.9788 23.4885 27.6951 23.2118 27.7074 22.7565C27.7193 22.3226 27.9942 22.0829 28.5071 22.0777C29.1395 22.0713 29.7718 22.0761 30.4041 22.0761Z" fill="url(#paint9_linear_625_1935)"/>
<path d="M21.6893 30.8441C21.6893 30.1947 21.6841 29.5454 21.6913 28.896C21.6968 28.3827 21.9392 28.1158 22.3831 28.1095C22.8496 28.1031 23.1007 28.3727 23.1031 28.9131C23.1087 30.1971 23.1087 31.4807 23.1031 32.7647C23.1007 33.2796 22.8572 33.544 22.4109 33.5504C21.9432 33.5571 21.6964 33.2883 21.6913 32.7476C21.6853 32.1129 21.6897 31.4787 21.6901 30.8441H21.6893Z" fill="url(#paint10_linear_625_1935)"/>
<path d="M14.1037 5.76613C14.1037 6.40116 14.1124 7.03619 14.1009 7.67083C14.0922 8.16986 13.8534 8.42912 13.4341 8.4339C13.041 8.43827 12.7058 8.14203 12.7002 7.70423C12.6831 6.3606 12.6827 5.01658 12.7022 3.67336C12.7085 3.22164 12.9874 2.99021 13.4083 2.9922C13.849 2.99419 14.0906 3.23556 14.1005 3.72863C14.114 4.4078 14.1037 5.08697 14.1041 5.76613H14.1037Z" fill="url(#paint11_linear_625_1935)"/>
<path d="M20.0765 8.37305C20.2355 8.50347 20.4819 8.62714 20.6084 8.82715C20.7893 9.11385 20.7338 9.46656 20.4656 9.67134C20.0285 10.0058 19.9622 10.3604 20.1574 10.8647C20.305 11.2456 20.088 11.607 19.7516 11.7343C19.4334 11.8548 19.0355 11.7005 18.8396 11.3808C18.281 10.4694 18.7214 8.96314 19.6857 8.49711C19.7762 8.45337 19.8785 8.43508 20.0765 8.37305Z" fill="url(#paint12_linear_625_1935)"/>
<path d="M10.8116 18.6412C10.9497 18.6659 11.2309 18.6921 11.4971 18.7697C11.8954 18.8862 12.0937 19.2635 11.9838 19.6294C11.8636 20.0298 11.4725 20.2894 11.0913 20.1292C10.549 19.9006 10.1781 20.0155 9.83693 20.4843C9.60129 20.808 9.15144 20.8155 8.84758 20.5718C8.54133 20.3264 8.49135 19.9312 8.72222 19.5832C9.11019 18.9991 9.87184 18.6305 10.8116 18.6408V18.6412Z" fill="url(#paint13_linear_625_1935)"/>
<defs>
<linearGradient id="paint0_linear_625_1935" x1="0" y1="22.0001" x2="43.9996" y2="22.0001" gradientUnits="userSpaceOnUse">
<stop stop-color="#9E6718"/>
<stop offset="1" stop-color="#FFB545"/>
</linearGradient>
<linearGradient id="paint1_linear_625_1935" x1="15.7656" y1="10.7669" x2="38.2171" y2="10.7669" gradientUnits="userSpaceOnUse">
<stop stop-color="#9E6718"/>
<stop offset="1" stop-color="#FFB545"/>
</linearGradient>
<linearGradient id="paint2_linear_625_1935" x1="0" y1="27.0394" x2="20.1697" y2="27.0394" gradientUnits="userSpaceOnUse">
<stop stop-color="#9E6718"/>
<stop offset="1" stop-color="#FFB545"/>
</linearGradient>
<linearGradient id="paint3_linear_625_1935" x1="4.96094" y1="33.4253" x2="21.6207" y2="33.4253" gradientUnits="userSpaceOnUse">
<stop stop-color="#9E6718"/>
<stop offset="1" stop-color="#FFB545"/>
</linearGradient>
<linearGradient id="paint4_linear_625_1935" x1="35.3828" y1="7.72005" x2="44.0009" y2="7.72005" gradientUnits="userSpaceOnUse">
<stop stop-color="#9E6718"/>
<stop offset="1" stop-color="#FFB545"/>
</linearGradient>
<linearGradient id="paint5_linear_625_1935" x1="3.54297" y1="38.1549" x2="7.16385" y2="38.1549" gradientUnits="userSpaceOnUse">
<stop stop-color="#9E6718"/>
<stop offset="1" stop-color="#FFB545"/>
</linearGradient>
<linearGradient id="paint6_linear_625_1935" x1="25.7969" y1="28.1982" x2="30.1029" y2="28.1982" gradientUnits="userSpaceOnUse">
<stop stop-color="#9E6718"/>
<stop offset="1" stop-color="#FFB545"/>
</linearGradient>
<linearGradient id="paint7_linear_625_1935" x1="5.75" y1="8.19002" x2="10.1447" y2="8.19002" gradientUnits="userSpaceOnUse">
<stop stop-color="#9E6718"/>
<stop offset="1" stop-color="#FFB545"/>
</linearGradient>
<linearGradient id="paint8_linear_625_1935" x1="2.72656" y1="13.6887" x2="8.15462" y2="13.6887" gradientUnits="userSpaceOnUse">
<stop stop-color="#9E6718"/>
<stop offset="1" stop-color="#FFB545"/>
</linearGradient>
<linearGradient id="paint9_linear_625_1935" x1="27.707" y1="22.7861" x2="33.1521" y2="22.7861" gradientUnits="userSpaceOnUse">
<stop stop-color="#9E6718"/>
<stop offset="1" stop-color="#FFB545"/>
</linearGradient>
<linearGradient id="paint10_linear_625_1935" x1="21.6875" y1="30.8299" x2="23.1073" y2="30.8299" gradientUnits="userSpaceOnUse">
<stop stop-color="#9E6718"/>
<stop offset="1" stop-color="#FFB545"/>
</linearGradient>
<linearGradient id="paint11_linear_625_1935" x1="12.6875" y1="5.71307" x2="14.1075" y2="5.71307" gradientUnits="userSpaceOnUse">
<stop stop-color="#9E6718"/>
<stop offset="1" stop-color="#FFB545"/>
</linearGradient>
<linearGradient id="paint12_linear_625_1935" x1="18.5938" y1="10.0741" x2="20.7136" y2="10.0741" gradientUnits="userSpaceOnUse">
<stop stop-color="#9E6718"/>
<stop offset="1" stop-color="#FFB545"/>
</linearGradient>
<linearGradient id="paint13_linear_625_1935" x1="8.57812" y1="19.6915" x2="12.0139" y2="19.6915" gradientUnits="userSpaceOnUse">
<stop stop-color="#9E6718"/>
<stop offset="1" stop-color="#FFB545"/>
</linearGradient>
</defs>
</svg>
