<svg width="44" height="44" viewBox="0 0 44 44" fill="none" xmlns="http://www.w3.org/2000/svg">
<g clip-path="url(#clip0_625_1926)">
<path d="M18.6852 43.9158C18.5984 43.9158 18.5088 43.9109 18.416 43.9005C17.8015 43.8309 17.2636 43.5366 16.9004 43.0718C16.5217 42.5868 16.3566 41.9451 16.4359 41.265C16.5778 40.0511 16.7418 38.8229 16.9004 37.6359C16.9647 37.1542 17.0294 36.6724 17.0925 36.1907L17.4394 33.5404C17.7896 30.8688 18.1392 28.1971 18.4883 25.5249H16.7958C14.8998 25.5227 12.9397 25.5216 11.013 25.5304C10.6024 25.5309 9.35284 25.538 8.71727 24.2858C8.06227 22.9962 8.8392 21.9457 9.0944 21.6004C12.6041 16.855 16.11 12.1063 19.6165 7.3581L24.2171 1.1286C25.0248 0.0347254 25.9658 -0.320949 27.0125 0.0692516C28.0608 0.460548 28.6376 1.51277 28.4477 2.68776C28.0813 4.94949 27.7112 7.21013 27.3411 9.47132L26.3273 15.6745H27.9378C29.824 15.6762 31.7097 15.6773 33.5954 15.6707C34.0616 15.6696 35.296 15.6652 35.9564 16.8588C36.6405 18.0952 35.9586 19.1452 35.6672 19.5935C30.7536 27.1597 25.7343 34.9017 20.7484 42.6049C20.5315 42.9403 19.9003 43.9152 18.6852 43.9152V43.9158ZM14.6754 23.5525C15.3887 23.5525 16.0971 23.5531 16.7974 23.5536H19.555C20.0907 23.5547 20.5245 23.9959 20.5245 24.5395C20.5245 24.5877 20.5256 24.6272 20.5267 24.6612C20.5288 24.7554 20.5315 24.8623 20.5148 24.99C20.1312 27.9264 19.7465 30.8627 19.3618 33.7996L19.0149 36.4499C18.9518 36.9333 18.887 37.4172 18.8223 37.9006C18.6647 39.0799 18.5018 40.2993 18.3621 41.4968C18.3443 41.6497 18.3653 41.7774 18.4198 41.847C18.4603 41.8985 18.5315 41.9308 18.6313 41.9423C18.7392 41.9549 18.8412 41.9659 19.1277 41.5231C24.1141 33.8188 29.1339 26.0762 34.0481 18.5089C34.3702 18.0135 34.3238 17.9302 34.2655 17.8245C34.2126 17.7291 34.1678 17.637 33.6013 17.6409C31.7129 17.6469 29.8246 17.6463 27.9362 17.6452H25.3318C24.6552 17.6447 24.14 17.0276 24.2511 16.3497L25.4279 9.14853C25.798 6.88844 26.1681 4.62889 26.5339 2.36825C26.5916 2.01148 26.4244 1.94901 26.3435 1.91887C26.214 1.87064 26.1201 1.83502 25.7683 2.31126L21.1682 8.54076C17.6623 13.2889 14.1558 18.0376 10.6456 22.7836C10.3445 23.1908 10.3893 23.2796 10.4416 23.3821C10.4886 23.4747 10.5371 23.5662 11.0049 23.5596C12.2243 23.5541 13.456 23.5525 14.6759 23.5525H14.6754Z" fill="url(#paint0_linear_625_1926)"/>
</g>
<defs>
<linearGradient id="paint0_linear_625_1926" x1="8.46094" y1="21.9159" x2="36.2512" y2="21.9159" gradientUnits="userSpaceOnUse">
<stop stop-color="#9E6718"/>
<stop offset="1" stop-color="#FFB545"/>
</linearGradient>
<clipPath id="clip0_625_1926">
<rect width="44" height="44" fill="white"/>
</clipPath>
</defs>
</svg>
