<svg width="46" height="46" viewBox="0 0 46 46" fill="none" xmlns="http://www.w3.org/2000/svg">
<g clip-path="url(#clip0_625_1522)">
<path d="M32.5596 34.9858C32.5081 34.3102 31.9712 33.7732 31.2955 33.7217C30.5397 33.7793 29.9739 34.4386 30.0314 35.1942C30.0828 35.8698 30.6197 36.4067 31.2955 36.4583C32.0512 36.4008 32.6171 35.7414 32.5596 34.9858Z" fill="#1A1A1A"/>
<path d="M35.8994 33.81C35.848 33.1344 35.311 32.5975 34.6353 32.5459C33.8796 32.6035 33.3137 33.2628 33.3712 34.0184C33.4227 34.694 33.9596 35.231 34.6353 35.2825C35.3911 35.225 35.9569 34.5656 35.8994 33.81Z" fill="#1A1A1A"/>
<path d="M45.9517 12.9376V12.8741C45.9344 12.83 45.9132 12.7876 45.8883 12.7472L45.8407 12.6838L45.7455 12.5807L45.69 12.5331L45.5868 12.4855H45.5472L28.3184 5.44164C28.1276 5.3645 27.9142 5.3645 27.7235 5.44164L10.5343 12.3665H10.4947L10.3915 12.4141L10.336 12.4617L10.2408 12.5648L10.1932 12.6282C10.1683 12.6686 10.1471 12.711 10.1298 12.7552V12.8186C10.1214 12.8845 10.1214 12.9511 10.1298 13.0169V19.3627H1.0315C0.593447 19.3627 0.238281 19.7179 0.238281 20.1559C0.238281 20.594 0.593447 20.9492 1.0315 20.9492V21.0523H10.0346V23.7651H6.94895C6.51089 23.7651 6.15572 24.1203 6.15572 24.5583C6.15572 24.9964 6.51089 25.3515 6.94895 25.3515H10.0346V28.0644H2.72107C2.28301 28.0644 1.92785 28.4195 1.92785 28.8576C1.92785 29.2956 2.28301 29.6508 2.72107 29.6508H10.0346V32.9665C10.0362 33.2867 10.2302 33.5746 10.5264 33.6962L27.7235 40.8353C27.8094 40.8694 27.9007 40.8881 27.9932 40.8908C28.0856 40.8881 28.1769 40.8694 28.2628 40.8353L45.4599 33.6962C45.7561 33.5746 45.9501 33.2867 45.9517 32.9665V13.1359C45.96 13.0701 45.96 13.0034 45.9517 12.9376ZM28.017 7.05189L34.5372 9.66159L19.704 15.936L12.9219 13.1121L28.017 7.05189ZM27.1999 38.9236L11.621 32.435V29.6429H14.9129C15.351 29.6429 15.7061 29.2877 15.7061 28.8497C15.7061 28.4116 15.351 28.0564 14.9129 28.0564H11.621V25.3436H19.1566C19.5947 25.3436 19.9499 24.9884 19.9499 24.5504C19.9499 24.1123 19.5947 23.7572 19.1566 23.7572H11.621V21.0523H13.2075C13.6455 21.0523 14.0007 20.6971 14.0007 20.259C14.0007 19.821 13.6455 19.4658 13.2075 19.4658H11.621V14.294L17.6813 16.8006L27.1999 20.7667V38.9236ZM28.0249 19.4262L21.7584 16.8006L36.6076 10.5024L43.104 13.12L33.6409 17.0862L28.0249 19.4262ZM28.8102 38.9236V20.7667L33.276 18.9106L44.3811 14.2781L44.4208 32.435L28.8102 38.9236Z" fill="#1A1A1A"/>
</g>
<defs>
<clipPath id="clip0_625_1522">
<rect width="45.7197" height="45.7197" fill="white" transform="translate(0.238281 0.27832)"/>
</clipPath>
</defs>
</svg>
