<svg width="498" height="481" viewBox="0 0 498 481" fill="none" xmlns="http://www.w3.org/2000/svg">
<ellipse cx="249.003" cy="7.78071" rx="7.25337" ry="7.25337" fill="#DEA453"/>
<ellipse cx="143.589" cy="473.326" rx="7.25337" ry="7.25337" fill="#DEA453"/>
<ellipse cx="7.25337" cy="7.25337" rx="7.25337" ry="7.25337" transform="matrix(-1 0 0 1 361.66 466.072)" fill="#DEA453"/>
<ellipse cx="7.52788" cy="214.774" rx="7.25337" ry="7.25337" transform="rotate(90 7.52788 214.774)" fill="#DEA453"/>
<ellipse cx="7.25337" cy="7.25337" rx="7.25337" ry="7.25337" transform="matrix(4.37114e-08 1 1 -4.37114e-08 483.215 207.521)" fill="#DEA453"/>
<circle cx="31.6875" cy="365.638" r="7.25337" transform="rotate(45 31.6875 365.638)" fill="#DEA453"/>
<circle cx="7.25337" cy="7.25337" r="7.25337" transform="matrix(-0.707107 0.707107 0.707107 0.707107 466.312 355.38)" fill="#DEA453"/>
<circle cx="91.0469" cy="66.2764" r="7.25337" transform="rotate(135 91.0469 66.2764)" fill="#DEA453"/>
<circle cx="7.25337" cy="7.25337" r="7.25337" transform="matrix(0.707107 0.707107 0.707106 -0.707107 396.688 66.2764)" fill="#DEA453"/>
</svg>
