<svg width="160" height="52" viewBox="0 0 160 52" fill="none" xmlns="http://www.w3.org/2000/svg">
<path fill-rule="evenodd" clip-rule="evenodd" d="M44.839 14.1758C44.7709 14.0454 44.6765 13.9305 44.5617 13.8383C44.4469 13.7462 44.3142 13.6789 44.1721 13.6407C44.03 13.6025 43.8815 13.5942 43.736 13.6163C43.5905 13.6384 43.4511 13.6904 43.3267 13.7691C43.2024 13.8478 43.0957 13.9515 43.0134 14.0735C42.9311 14.1955 42.8751 14.3333 42.8488 14.4781C42.8225 14.6229 42.8265 14.7716 42.8606 14.9148C42.8947 15.058 42.9581 15.1925 43.0469 15.3099C44.9797 18.377 46.0548 21.9063 46.1601 25.5301C46.2653 29.1539 45.397 32.7397 43.6455 35.9138C41.894 39.088 39.3234 41.7344 36.2015 43.5774C33.0796 45.4205 29.5206 46.3927 25.8953 46.3928C20.8895 46.3981 16.0617 44.5359 12.3561 41.1703L14.3163 39.2101C14.5452 39.452 14.8209 39.6449 15.1265 39.7773C15.4321 39.9096 15.7614 39.9786 16.0944 39.9802H35.6962C36.3541 39.9775 36.9858 39.7218 37.4604 39.2661C37.9249 38.7962 38.1864 38.1627 38.1884 37.502V19.7203C38.1877 19.4998 38.1192 19.2848 37.9924 19.1043L36.5923 17.0181L41.7868 11.7676C41.8867 11.6687 41.966 11.5509 42.0201 11.4211C42.0742 11.2914 42.1021 11.1522 42.1021 11.0116C42.1021 10.8709 42.0742 10.7317 42.0201 10.602C41.966 10.4722 41.8867 10.3544 41.7868 10.2555C37.9035 6.29392 32.6885 3.91406 27.1513 3.57666C21.6142 3.23926 16.1488 4.96831 11.8133 8.42907C7.47772 11.8898 4.58044 16.8361 3.68232 22.3104C2.78421 27.7846 3.94915 33.3974 6.95161 38.062C7.01972 38.1925 7.11416 38.3074 7.22895 38.3995C7.34375 38.4916 7.4764 38.5589 7.61853 38.5971C7.76066 38.6354 7.90917 38.6437 8.05468 38.6216C8.20019 38.5995 8.33953 38.5474 8.4639 38.4687C8.58827 38.39 8.69496 38.2864 8.77723 38.1643C8.8595 38.0423 8.91556 37.9045 8.94186 37.7597C8.96816 37.6149 8.96414 37.4662 8.93004 37.323C8.89594 37.1799 8.83252 37.0453 8.74377 36.9279C6.81093 33.8608 5.73587 30.3315 5.63058 26.7077C5.52529 23.0839 6.39363 19.4982 8.14513 16.324C9.89663 13.1499 12.4672 10.5035 15.5891 8.66042C18.711 6.81739 22.27 5.84519 25.8953 5.84509C30.9012 5.83975 35.729 7.70197 39.4345 11.0676L35.2342 15.2679L33.9461 13.4338C33.8405 13.2983 33.7071 13.187 33.555 13.1073C33.4029 13.0276 33.2354 12.9814 33.064 12.9717H18.6987C18.5253 12.9722 18.3546 13.0144 18.2011 13.0948C18.0475 13.1752 17.9156 13.2915 17.8166 13.4338L13.8262 19.1183C13.7213 19.3089 13.6547 19.5182 13.6302 19.7343V36.8719L10.0739 40.4562C9.97398 40.5552 9.89468 40.6729 9.84056 40.8027C9.78643 40.9325 9.75857 41.0717 9.75857 41.2123C9.75857 41.3529 9.78643 41.4921 9.84056 41.6219C9.89468 41.7517 9.97398 41.8694 10.0739 41.9684C13.9757 45.8402 19.1648 48.1424 24.6538 48.4367C30.1427 48.7311 35.5483 46.9971 39.8418 43.5647C44.1353 40.1323 47.017 35.2412 47.9384 29.8221C48.8599 24.4031 47.7568 18.8344 44.839 14.1758ZM15.7584 37.502V20.7844H28.0235V37.852H16.0944C16.0052 37.8452 15.9216 37.8057 15.8596 37.7411C15.7976 37.6765 15.7616 37.5914 15.7584 37.502ZM36.0322 37.502C36.0286 37.5961 35.9887 37.6851 35.9208 37.7504C35.8529 37.8156 35.7624 37.8521 35.6682 37.852H30.1657V20.0564L33.092 15.856L36.0322 20.0564V37.502ZM19.2307 15.0999H31.0338L28.5276 18.6562H16.7525L19.2307 15.0999Z" fill="#322D2D"/>
<path fill-rule="evenodd" clip-rule="evenodd" d="M23.0932 17.9146C23.3014 17.9146 23.505 17.8527 23.678 17.7367C23.851 17.6206 23.9855 17.4558 24.0646 17.2631C24.1436 17.0704 24.1636 16.8586 24.1219 16.6545C24.0803 16.4504 23.9789 16.2633 23.8306 16.1171C23.6823 15.9708 23.4939 15.8719 23.2893 15.833C23.0847 15.794 22.8731 15.8168 22.6815 15.8985C22.4899 15.9801 22.3269 16.1169 22.2132 16.2914C22.0995 16.4659 22.0403 16.6703 22.0431 16.8785C22.0467 17.1546 22.159 17.4181 22.3555 17.612C22.5521 17.806 22.8171 17.9147 23.0932 17.9146Z" fill="#322D2D"/>
<path d="M79.3345 25.9182C79.3345 29.5382 77.6545 33.1182 72.9145 33.1182H67.8145V19.1182H73.3145C76.4945 19.1182 79.3345 21.1982 79.3345 25.9182ZM77.5745 26.0182C77.5745 21.8382 75.2945 20.6182 72.8545 20.6182H69.5145V31.6182H72.7345C74.8545 31.6182 77.5745 30.6182 77.5745 26.0182ZM88.4979 28.9582V27.7382C88.4979 27.7382 86.1779 28.0382 84.9979 28.2182C83.8579 28.3782 82.9379 28.7582 82.9379 30.0182C82.9379 31.0782 83.6579 31.8782 85.1179 31.8782C87.1379 31.8782 88.4979 30.7182 88.4979 28.9582ZM84.0979 27.0182C85.1179 26.8182 88.4979 26.4182 88.4979 26.4182V25.8382C88.4979 24.3582 87.8579 23.6582 85.9779 23.6582C83.9579 23.6582 83.3979 24.5782 83.3179 25.6582H81.6779C81.6779 24.2782 82.4979 22.2982 85.9779 22.2982C89.6379 22.2982 90.1379 24.1982 90.1379 25.8982V31.3982C90.1379 31.8982 90.1579 32.6982 90.2779 33.1182H88.6179C88.6179 33.1182 88.5779 32.5382 88.5779 31.6782C88.0579 32.3582 86.9179 33.2582 84.7379 33.2582C82.6779 33.2582 81.2379 32.0582 81.2379 30.0582C81.2379 27.8382 83.0179 27.2382 84.0979 27.0182ZM94.5498 20.3182H92.9098V18.3182H94.5498V20.3182ZM94.5498 33.1182H92.9098V22.4382H94.5498V33.1182ZM102.963 24.1182H102.243C100.323 24.1182 98.9834 24.7782 98.9834 27.2982V33.1182H97.3434V22.4382H98.9634V24.2782C99.6634 22.9182 101.083 22.4382 102.203 22.4382H102.963V24.1182ZM111.783 22.4382H113.503L108.983 34.8382C108.523 36.0982 107.943 36.9582 106.403 36.9582H104.563V35.5782H105.943C107.103 35.5782 107.283 34.9582 107.823 33.2782L103.863 22.4382H105.663L108.723 31.2982L111.783 22.4382ZM128.491 20.6382H121.311V25.7782H128.191V27.2982H121.311V33.1182H119.611V19.1182H128.491V20.6382ZM136.42 24.1182H135.7C133.78 24.1182 132.44 24.7782 132.44 27.2982V33.1182H130.8V22.4382H132.42V24.2782C133.12 22.9182 134.54 22.4382 135.66 22.4382H136.42V24.1182ZM145.249 29.4382L146.909 29.4582C146.689 31.3382 145.289 33.2582 142.229 33.2582C139.389 33.2582 137.429 31.4182 137.429 27.7982C137.429 24.4782 139.469 22.2982 142.309 22.2982C145.309 22.2982 146.969 24.5382 146.969 28.0582H139.109C139.149 30.0782 139.989 31.8782 142.349 31.8782C144.089 31.8782 145.109 30.7982 145.249 29.4382ZM139.169 26.7582H145.189C145.029 24.4982 143.729 23.6782 142.269 23.6782C140.629 23.6782 139.369 24.7782 139.169 26.7582ZM156.597 29.4382L158.257 29.4582C158.037 31.3382 156.637 33.2582 153.577 33.2582C150.737 33.2582 148.777 31.4182 148.777 27.7982C148.777 24.4782 150.817 22.2982 153.657 22.2982C156.657 22.2982 158.317 24.5382 158.317 28.0582H150.457C150.497 30.0782 151.337 31.8782 153.697 31.8782C155.437 31.8782 156.457 30.7982 156.597 29.4382ZM150.517 26.7582H156.537C156.377 24.4982 155.077 23.6782 153.617 23.6782C151.977 23.6782 150.717 24.7782 150.517 26.7582Z" fill="#322D2D"/>
</svg>
