<svg width="47" height="47" viewBox="0 0 47 47" fill="none" xmlns="http://www.w3.org/2000/svg">
<path d="M22.7376 42.2751C18.9524 42.2755 15.252 41.1534 12.1045 39.0507C8.95706 36.948 6.5038 33.9592 5.055 30.4622C3.6062 26.9652 3.22693 23.1171 3.96517 19.4046C4.70341 15.692 6.52598 12.2818 9.20241 9.6051C11.8788 6.92841 15.2889 5.1055 19.0014 4.3669C22.7139 3.6283 26.562 4.00719 30.0591 5.45565C33.5562 6.90411 36.5453 9.35708 38.6483 12.5044C40.7513 15.6516 41.8738 19.3519 41.8738 23.1371C41.8685 28.2109 39.8507 33.0754 36.2632 36.6633C32.6757 40.2511 27.8114 42.2694 22.7376 42.2751ZM22.7376 5.24549C19.198 5.24512 15.7378 6.29445 12.7946 8.26075C9.85138 10.2271 7.5574 13.022 6.20277 16.2921C4.84814 19.5623 4.49371 23.1607 5.18429 26.6322C5.87488 30.1038 7.57947 33.2926 10.0825 35.7954C12.5855 38.2981 15.7745 40.0024 19.2461 40.6926C22.7178 41.3828 26.3161 41.028 29.5861 39.673C32.8561 38.3181 35.6508 36.0238 37.6168 33.0804C39.5828 30.137 40.6318 26.6767 40.631 23.1371C40.6261 18.3928 38.7394 13.8442 35.3848 10.4893C32.0303 7.13439 27.4819 5.24719 22.7376 5.24176V5.24549Z" fill="#1A1A1A"/>
<path d="M8.24704 34.5342C7.07915 34.5589 5.91451 34.4021 4.79473 34.0694C4.20716 33.9156 3.65721 33.6434 3.17863 33.2694C2.70005 32.8954 2.30293 32.4276 2.01164 31.8946C1.0827 30.0249 2.23968 26.8858 3.79806 24.6042C3.89257 24.472 4.03511 24.382 4.19512 24.3537C4.35513 24.3253 4.51989 24.3608 4.65406 24.4525C4.78824 24.5441 4.88117 24.6847 4.91292 24.8441C4.94468 25.0035 4.91273 25.1689 4.82394 25.305C3.27052 27.5755 2.54291 30.1703 3.1245 31.3416C3.34484 31.7249 3.6405 32.0595 3.99366 32.3254C4.34681 32.5913 4.75015 32.783 5.17936 32.8888C9.44068 34.2763 18.133 32.1668 26.8085 27.6432C38.945 21.314 45.3252 13.4979 43.6729 10.1686C43.0168 8.84943 40.9389 8.13921 37.9607 8.21005C37.8791 8.21204 37.7979 8.19795 37.7218 8.16857C37.6456 8.13919 37.576 8.0951 37.5169 8.03882C37.3975 7.92514 37.3282 7.7687 37.3241 7.6039C37.3201 7.43911 37.3817 7.27946 37.4954 7.16007C37.6091 7.04069 37.7655 6.97135 37.9303 6.96731C41.459 6.88157 43.8954 7.81921 44.7858 9.61495C47.0109 14.0925 39.3669 22.4946 27.3826 28.7443C20.3251 32.4247 13.185 34.5342 8.24704 34.5342Z" fill="#1A1A1A"/>
<path d="M39.8647 10.5646C39.7725 10.5646 39.6814 10.5441 39.5981 10.5046C39.5148 10.465 39.4414 10.4074 39.3831 10.336L37.4606 7.98162C37.4073 7.91641 37.3678 7.84104 37.3445 7.76009C37.3212 7.67914 37.3147 7.5943 37.3252 7.51073C37.3357 7.42716 37.3631 7.3466 37.4057 7.27394C37.4483 7.20129 37.5053 7.13806 37.5731 7.08809L40.0759 5.24326C40.1417 5.19483 40.2163 5.15982 40.2956 5.14023C40.3748 5.12064 40.4572 5.11686 40.5379 5.12909C40.6186 5.14132 40.6961 5.16933 40.766 5.21152C40.8359 5.25372 40.8968 5.30926 40.9452 5.37499C40.9937 5.44072 41.0287 5.51534 41.0483 5.5946C41.0678 5.67385 41.0716 5.75619 41.0594 5.83692C41.0472 5.91764 41.0192 5.99516 40.977 6.06505C40.9348 6.13495 40.8792 6.19585 40.8135 6.24428L38.8382 7.70138L40.3475 9.54994C40.4219 9.64098 40.469 9.75128 40.4832 9.86802C40.4975 9.98475 40.4783 10.1031 40.4279 10.2094C40.3776 10.3157 40.2981 10.4055 40.1987 10.4683C40.0993 10.5312 39.9841 10.5646 39.8665 10.5646H39.8647Z" fill="#1A1A1A"/>
<path d="M22.0452 35.7523C21.6271 35.7542 21.2128 35.6724 20.8267 35.5118C19.4299 34.919 18.6116 33.5763 18.0542 32.4733L18.0169 32.4C17.6832 31.7364 17.3378 31.0498 16.7879 30.8516C16.5948 30.7921 16.3954 30.7552 16.1938 30.7416C15.9897 30.723 15.787 30.6916 15.5868 30.6478C14.5037 30.3992 13.5735 29.5529 12.7508 28.0561L12.5203 27.6211C12.1702 26.7975 11.6378 26.0641 10.9632 25.4761C10.7524 25.3294 10.5135 25.2279 10.2616 25.1778C10.0097 25.1278 9.75012 25.1303 9.49924 25.1853C9.36888 25.2096 9.24567 25.263 9.13875 25.3414C9.03182 25.4198 8.94393 25.5213 8.8816 25.6383C8.63306 26.1398 8.90335 26.7798 9.21341 27.5217C9.562 28.3549 9.95905 29.2994 9.62041 30.2706C9.13201 31.6643 7.43755 32.1415 6.01649 31.8905C5.87974 31.8673 5.75359 31.8021 5.65547 31.7041C5.56185 31.6056 5.50307 31.4792 5.48814 31.3442C5.47321 31.2091 5.50295 31.0729 5.57281 30.9564C5.64267 30.8399 5.7488 30.7494 5.87494 30.699C6.00108 30.6485 6.14029 30.6408 6.27125 30.677C7.14737 30.818 8.19313 30.585 8.44603 29.8648C8.62684 29.3441 8.35469 28.6936 8.06637 28.0045C7.69355 27.1128 7.2704 26.1019 7.76625 25.0928C7.90819 24.8141 8.10986 24.5701 8.35689 24.3783C8.60392 24.1865 8.89022 24.0515 9.19539 23.983C9.62135 23.8839 10.0635 23.8762 10.4926 23.9603C10.9218 24.0445 11.3283 24.2187 11.6852 24.4714C12.5228 25.1639 13.1853 26.0442 13.6189 27.0407L13.842 27.4589C14.482 28.624 15.1468 29.2714 15.8695 29.4361C16.0218 29.4685 16.176 29.4918 16.3312 29.5057C16.6325 29.5278 16.9299 29.5873 17.2166 29.6828C18.2276 30.0482 18.7271 31.0417 19.1292 31.8395L19.1652 31.9122C19.6269 32.8257 20.2886 33.9311 21.3139 34.3666C21.571 34.469 21.8466 34.5169 22.1232 34.5072C22.3998 34.4976 22.6713 34.4307 22.9207 34.3107C23.073 34.2429 23.2086 34.1427 23.3181 34.017C23.4276 33.8913 23.5083 33.7432 23.5545 33.5831C23.7055 32.9766 23.3197 32.305 22.9114 31.5947C22.7871 31.376 22.6598 31.1598 22.5485 30.9404C21.8846 29.5775 21.6906 28.033 21.9969 26.5482C22.3032 25.0633 23.0926 23.7217 24.2418 22.7328C24.3499 22.6452 24.4605 22.5601 24.5711 22.4749C24.8793 22.2683 25.1508 22.0117 25.3745 21.7156C25.6097 21.2256 25.7188 20.6846 25.692 20.1417C25.7015 19.7692 25.7364 19.3978 25.7964 19.0301C25.9135 18.4923 26.0874 17.9684 26.3153 17.4674C26.5382 16.9963 26.696 16.4971 26.7844 15.9835C26.8025 15.7467 26.7663 15.5088 26.6785 15.2881C26.5907 15.0673 26.4537 14.8695 26.278 14.7097C26.2178 14.6482 26.1417 14.6047 26.0582 14.584C25.9746 14.5634 25.887 14.5665 25.8051 14.5929C25.5343 14.7431 25.3093 14.9639 25.1539 15.2317C24.8959 15.6297 24.5516 15.9646 24.1467 16.2116C23.8114 16.3734 23.4499 16.474 23.0792 16.5086C21.5341 16.7207 19.99 16.9361 18.4469 17.1548C16.5418 17.4214 15.3115 17.0262 14.7908 15.9773C14.5711 15.438 14.4976 14.8503 14.5777 14.2735C14.6224 13.6522 14.7398 12.0037 16.0354 11.5153C17.0842 11.1282 18.0548 11.8011 18.7626 12.292L18.8993 12.3865C19.7424 12.9712 21.2791 13.4378 21.9048 12.5865C21.9582 12.5114 22.0073 12.4219 22.0577 12.333C22.1754 12.1014 22.3268 11.8884 22.5069 11.7011C22.979 11.3169 23.5655 11.1009 24.174 11.0872C24.2641 11.0766 24.3536 11.0661 24.4418 11.053C24.9673 11.0179 25.4785 10.8664 25.9383 10.6096C26.3981 10.3527 26.7951 9.99696 27.1007 9.56795C27.6897 8.61477 27.722 7.17569 27.1833 5.51478C27.1527 5.43591 27.1386 5.35163 27.1418 5.26711C27.1449 5.18259 27.1653 5.0996 27.2017 5.02323C27.238 4.94686 27.2896 4.87871 27.3532 4.82297C27.4168 4.76723 27.4911 4.72506 27.5716 4.69905C27.6521 4.67304 27.7371 4.66374 27.8213 4.67171C27.9055 4.67968 27.9872 4.70476 28.0613 4.74542C28.1355 4.78607 28.2006 4.84144 28.2526 4.90813C28.3047 4.97482 28.3425 5.05143 28.3639 5.13326C28.8237 6.55743 29.1611 8.59613 28.1551 10.2216C27.7579 10.8076 27.2343 11.2969 26.6228 11.6537C26.0113 12.0104 25.3276 12.2253 24.622 12.2827C24.5195 12.2976 24.4201 12.3094 24.32 12.3212C23.9826 12.3204 23.6519 12.4159 23.3669 12.5965C23.2766 12.7021 23.1998 12.8186 23.1382 12.9432C23.0687 13.0715 22.9924 13.1959 22.9095 13.316C21.8439 14.7663 19.6853 14.445 18.1909 13.4099L18.0523 13.3142C17.4888 12.9233 16.9072 12.5201 16.4666 12.6804C16.1012 12.8189 15.8863 13.3682 15.816 14.3581C15.7612 14.7167 15.7914 15.0832 15.9043 15.428C16.2212 16.0662 17.3682 16.0494 18.2723 15.9251C19.8133 15.7077 21.3617 15.4902 22.9033 15.2783C23.1291 15.2607 23.3504 15.2059 23.5583 15.1161C23.798 14.9486 24.0019 14.7348 24.1579 14.4873C24.4504 14.0082 24.8866 13.6336 25.4043 13.4167C25.6843 13.3226 25.984 13.3033 26.2737 13.3605C26.5635 13.4177 26.8333 13.5495 27.0565 13.7429C27.3953 14.0348 27.6593 14.4035 27.8263 14.8183C27.9933 15.2331 28.0585 15.6819 28.0166 16.1271C27.9185 16.7557 27.7317 17.3672 27.4617 17.9433C27.2686 18.3648 27.1193 18.8049 27.0162 19.2569C26.9673 19.5695 26.939 19.885 26.9316 20.2014C26.958 20.962 26.7813 21.7158 26.4196 22.3855C26.1212 22.8059 25.7508 23.1703 25.3254 23.4617C25.2248 23.5393 25.1247 23.6158 25.0278 23.6953C24.0929 24.4996 23.4508 25.5909 23.2017 26.7987C22.9527 28.0065 23.1109 29.2628 23.6515 30.3713C23.7552 30.5744 23.8708 30.7745 23.9864 30.9758C24.476 31.8265 25.0309 32.7909 24.7587 33.8832C24.6706 34.2187 24.5097 34.5306 24.2874 34.7968C24.0651 35.0631 23.7869 35.2771 23.4725 35.4236C23.0283 35.6413 22.5399 35.7538 22.0452 35.7523Z" fill="#1A1A1A"/>
<path d="M36.9266 35.6466C36.8081 35.6464 36.6921 35.6124 36.5923 35.5484C35.4577 34.8227 34.7046 33.2717 35.408 31.9339C35.6234 31.5552 35.8982 31.2134 36.2219 30.9217C36.3506 30.7937 36.4798 30.667 36.5948 30.5303C36.7812 30.3078 36.8004 30.1748 36.7948 30.1512C36.7004 30.0969 36.5935 30.068 36.4846 30.0675C36.3756 30.0669 36.2684 30.0947 36.1735 30.1481C35.5312 30.4118 34.8138 30.4272 34.1609 30.1911C33.508 29.9551 32.9662 29.4846 32.641 28.8712C32.4918 28.5334 32.42 28.1665 32.4307 27.7973C32.4415 27.4281 32.5346 27.066 32.7031 26.7375C32.8488 26.424 33.0637 26.1478 33.3316 25.9294C33.5995 25.711 33.9134 25.5562 34.2497 25.4767C34.5629 25.4171 34.8822 25.3963 35.2004 25.4146C35.4675 25.4433 35.7376 25.4156 35.9933 25.3332C36.1589 25.2177 36.2932 25.0627 36.3839 24.8823C36.4746 24.7019 36.5189 24.5017 36.5127 24.2998C36.5536 24.0137 36.5233 23.7218 36.4246 23.4501C36.3259 23.1784 36.1617 22.9353 35.9467 22.7421C35.5882 22.4315 35.1971 22.1607 34.7804 21.9343C34.5492 21.797 34.3137 21.6572 34.0826 21.5043C33.9583 21.4223 33.8521 21.3577 33.757 21.3005C32.9579 20.8171 32.7355 20.4536 32.8995 19.1201C33.0304 18.3102 33.353 17.5433 33.8402 16.8832C33.921 16.759 34.0037 16.6266 34.0888 16.4924C35.2781 14.5481 35.2998 13.0687 35.3315 11.0244C35.3353 10.7485 35.3396 10.4651 35.3471 10.1731C35.3479 10.0912 35.3652 10.0102 35.3979 9.93511C35.4306 9.85999 35.4781 9.79219 35.5375 9.73575C35.5969 9.67931 35.667 9.63537 35.7437 9.60653C35.8204 9.5777 35.9021 9.56456 35.984 9.56789C36.1487 9.57212 36.3049 9.64159 36.4184 9.76103C36.5319 9.88046 36.5933 10.0401 36.5892 10.2048C36.5823 10.4925 36.578 10.7715 36.5743 11.043C36.5426 13.1177 36.5158 14.9098 35.1501 17.143C35.0643 17.284 34.9773 17.4201 34.8922 17.5543C34.5069 18.0589 34.2481 18.6485 34.1373 19.2736C34.0771 19.5266 34.0695 19.7893 34.1149 20.0454C34.2048 20.1192 34.3015 20.1844 34.4038 20.2398C34.5126 20.3051 34.6344 20.3796 34.7723 20.471C34.9842 20.6108 35.2035 20.7407 35.4191 20.8687C35.9143 21.139 36.3778 21.4637 36.8011 21.8367C37.1472 22.1555 37.4139 22.5509 37.5798 22.9912C37.7458 23.4315 37.8064 23.9046 37.7567 24.3725C37.761 24.8008 37.6479 25.222 37.4295 25.5904C37.2112 25.9588 36.896 26.2604 36.5183 26.4622C36.0935 26.6314 35.6348 26.6984 35.1793 26.6579C34.9582 26.6438 34.7362 26.6546 34.5175 26.6902C34.364 26.731 34.2216 26.8058 34.101 26.9092C33.9804 27.0126 33.8847 27.1419 33.821 27.2874C33.7358 27.4491 33.6873 27.6275 33.6788 27.8101C33.6703 27.9926 33.7021 28.1748 33.7719 28.3437C33.959 28.6663 34.256 28.9108 34.6085 29.0325C34.961 29.1542 35.3456 29.1451 35.6919 29.0067C36.0397 28.8333 36.435 28.7797 36.8164 28.8542C37.1978 28.9287 37.5439 29.1271 37.8008 29.4186C37.95 29.6212 38.3731 30.3575 37.5492 31.3331C37.4106 31.4977 37.2565 31.6518 37.1018 31.8053C36.872 32.0087 36.6743 32.2456 36.5152 32.5081C36.1579 33.1885 36.6159 34.0876 37.2665 34.5039C37.3796 34.5764 37.4662 34.6836 37.5132 34.8094C37.5603 34.9353 37.5653 35.073 37.5275 35.2019C37.4897 35.3308 37.4112 35.444 37.3036 35.5245C37.196 35.605 37.0653 35.6485 36.9309 35.6485L36.9266 35.6466Z" fill="#1A1A1A"/>
<path d="M28.7129 41.2829C28.5668 41.2827 28.4254 41.2311 28.3136 41.137C28.2017 41.0429 28.1267 40.9124 28.1015 40.7684C28.0468 40.4519 27.9334 40.1485 27.7672 39.8737C27.3419 39.214 26.7333 38.6927 26.0162 38.3737C25.5859 38.1363 25.0993 38.0199 24.6082 38.0369C23.9131 38.1877 23.267 38.5108 22.7292 38.9764C21.8593 39.5897 20.8794 40.2875 19.6708 40.047C19.3099 39.9623 18.9624 39.8282 18.6381 39.6487L16.2465 38.4681C16.098 38.3817 15.932 38.3296 15.7607 38.3156C15.5894 38.3016 15.4172 38.3261 15.2567 38.3873C15.0368 38.5041 14.8437 38.6655 14.6896 38.861C14.5356 39.0566 14.4239 39.2821 14.3619 39.5232C14.3417 39.6061 14.3047 39.684 14.2532 39.752C14.2016 39.82 14.1366 39.8766 14.0622 39.9184C13.9878 39.9601 13.9055 39.9861 13.8206 39.9947C13.7357 40.0033 13.65 39.9943 13.5687 39.9683C13.4874 39.9423 13.4124 39.8998 13.3483 39.8436C13.2841 39.7873 13.2323 39.7184 13.1959 39.6412C13.1596 39.564 13.1395 39.4801 13.137 39.3948C13.1345 39.3095 13.1496 39.2246 13.1813 39.1454C13.2953 38.7328 13.4966 38.3494 13.7714 38.0212C14.0462 37.693 14.3883 37.4275 14.7745 37.2428C15.0996 37.1104 15.45 37.0517 15.8005 37.071C16.151 37.0904 16.4928 37.1872 16.8014 37.3546L19.2005 38.5414C19.4261 38.6687 19.6674 38.766 19.9181 38.831C20.5973 38.9677 21.2553 38.5011 22.0146 37.9611C22.7252 37.362 23.5812 36.9609 24.4964 36.7985C25.2145 36.7569 25.9301 36.9152 26.5636 37.2558C27.4956 37.6798 28.2835 38.3668 28.8304 39.2324C29.0767 39.6391 29.2453 40.0882 29.3275 40.5565C29.3416 40.637 29.3397 40.7194 29.322 40.7991C29.3042 40.8788 29.2709 40.9542 29.224 41.021C29.1771 41.0878 29.1175 41.1447 29.0485 41.1885C28.9796 41.2323 28.9027 41.262 28.8223 41.2761C28.7861 41.2812 28.7495 41.2835 28.7129 41.2829Z" fill="#1A1A1A"/>
</svg>
