<svg width="157" height="52" viewBox="0 0 157 52" fill="none" xmlns="http://www.w3.org/2000/svg">
<path d="M14.9271 32.6859C15.3528 32.6952 15.7761 32.6196 16.1723 32.4635C16.5685 32.3075 16.9297 32.074 17.2347 31.7768C17.5397 31.4797 17.7824 31.1247 17.9487 30.7327C18.115 30.3407 18.2016 29.9195 18.2034 29.4936V26.6094C18.2034 26.3272 18.0913 26.0565 17.8917 25.8569C17.6921 25.6574 17.4215 25.5453 17.1393 25.5453H14.003C13.7208 25.5453 13.4501 25.6574 13.2506 25.8569C13.051 26.0565 12.9389 26.3272 12.9389 26.6094C12.9389 26.8916 13.051 27.1622 13.2506 27.3618C13.4501 27.5614 13.7208 27.6735 14.003 27.6735H16.0472V29.4936C16.0366 29.7749 15.9192 30.0415 15.7189 30.2392C15.5186 30.4369 15.2504 30.5508 14.9691 30.5577H11.8048C11.5713 30.5577 11.3401 30.5117 11.1243 30.4224C10.9086 30.333 10.7126 30.202 10.5474 30.0369C10.3823 29.8718 10.2513 29.6758 10.162 29.46C10.0726 29.2443 10.0266 29.0131 10.0266 28.7796V23.4591C10.0266 22.9875 10.214 22.5352 10.5474 22.2017C10.8809 21.8683 11.3332 21.6809 11.8048 21.6809H15.8232C16.1054 21.6809 16.376 21.5688 16.5756 21.3693C16.7751 21.1697 16.8873 20.899 16.8873 20.6168C16.8873 20.3346 16.7751 20.064 16.5756 19.8644C16.376 19.6648 16.1054 19.5527 15.8232 19.5527H11.8048C10.7688 19.5527 9.77517 19.9643 9.04258 20.6969C8.31 21.4295 7.89844 22.4231 7.89844 23.4591V28.7796C7.89844 29.8156 8.31 30.8092 9.04258 31.5418C9.77517 32.2744 10.7688 32.6859 11.8048 32.6859H14.9271Z" fill="#322D2D"/>
<path d="M29.4024 32.6846C29.6846 32.6846 29.9552 32.5725 30.1548 32.373C30.3543 32.1734 30.4665 31.9027 30.4665 31.6205V20.6155C30.4696 20.3843 30.3972 20.1583 30.2604 19.9718C30.1236 19.7853 29.9298 19.6484 29.7082 19.582C29.4867 19.5155 29.2495 19.5231 29.0326 19.6034C28.8158 19.6838 28.631 19.8327 28.5063 20.0275L25.202 24.9979L21.8837 20.0275C21.7596 19.8354 21.5762 19.6891 21.3614 19.6108C21.1466 19.5325 20.9121 19.5264 20.6936 19.5934C20.4755 19.6617 20.2847 19.7975 20.1488 19.9812C20.0129 20.1649 19.9389 20.387 19.9375 20.6155V31.6205C19.9375 31.9027 20.0496 32.1734 20.2492 32.373C20.4487 32.5725 20.7194 32.6846 21.0016 32.6846C21.2838 32.6846 21.5545 32.5725 21.754 32.373C21.9536 32.1734 22.0657 31.9027 22.0657 31.6205V24.1438L24.3619 27.5182C24.4648 27.6571 24.5988 27.7701 24.7532 27.8479C24.9076 27.9257 25.0781 27.9662 25.251 27.9662C25.4239 27.9662 25.5944 27.9257 25.7488 27.8479C25.9032 27.7701 26.0372 27.6571 26.1401 27.5182L28.3803 24.1578V31.6345C28.387 31.9061 28.496 32.1652 28.6855 32.3599C28.875 32.5546 29.131 32.6706 29.4024 32.6846Z" fill="#322D2D"/>
<path d="M44.1469 14.1752C44.0788 14.0447 43.9843 13.9298 43.8695 13.8377C43.7547 13.7455 43.6221 13.6783 43.48 13.64C43.3378 13.6018 43.1893 13.5935 43.0438 13.6156C42.8983 13.6377 42.7589 13.6897 42.6346 13.7684C42.5102 13.8471 42.4035 13.9508 42.3213 14.0728C42.239 14.1949 42.1829 14.3326 42.1566 14.4774C42.1303 14.6223 42.1343 14.7709 42.1684 14.9141C42.2025 15.0573 42.266 15.1918 42.3547 15.3093C44.2876 18.3764 45.3626 21.9056 45.4679 25.5294C45.5732 29.1532 44.7049 32.739 42.9534 35.9131C41.2018 39.0873 38.6313 41.7337 35.5094 43.5767C32.3875 45.4198 28.8285 46.392 25.2032 46.3921C20.1973 46.3974 15.3695 44.5352 11.6639 41.1696L16.0043 36.8292C16.1036 36.7299 16.1824 36.612 16.2361 36.4823C16.2898 36.3526 16.3175 36.2135 16.3175 36.0731C16.3175 35.9327 16.2898 35.7937 16.2361 35.664C16.1824 35.5342 16.1036 35.4164 16.0043 35.3171C15.905 35.2178 15.7872 35.139 15.6574 35.0853C15.5277 35.0315 15.3887 35.0039 15.2483 35.0039C15.1078 35.0039 14.9688 35.0315 14.8391 35.0853C14.7094 35.139 14.5915 35.2178 14.4922 35.3171L9.38173 40.4555C9.28182 40.5545 9.20252 40.6722 9.1484 40.802C9.09427 40.9318 9.06641 41.071 9.06641 41.2116C9.06641 41.3522 9.09427 41.4914 9.1484 41.6212C9.20252 41.751 9.28182 41.8687 9.38173 41.9677C13.2835 45.8395 18.4727 48.1417 23.9616 48.436C29.4506 48.7304 34.8561 46.9964 39.1496 43.564C43.4431 40.1316 46.3248 35.2405 47.2462 29.8214C48.1677 24.4024 47.0646 18.8337 44.1469 14.1752Z" fill="#322D2D"/>
<path d="M4.93025 26.1178C4.93766 20.7432 7.07603 15.5907 10.8765 11.7903C14.677 7.98979 19.8294 5.85142 25.2041 5.84401C30.2099 5.83867 35.0377 7.7009 38.7433 11.0665L34.4029 15.4069C34.3036 15.5062 34.2249 15.624 34.1711 15.7538C34.1174 15.8835 34.0897 16.0225 34.0897 16.1629C34.0897 16.3034 34.1174 16.4424 34.1711 16.5721C34.2249 16.7019 34.3036 16.8197 34.4029 16.919C34.5022 17.0183 34.6201 17.0971 34.7498 17.1508C34.8795 17.2045 35.0186 17.2322 35.159 17.2322C35.2994 17.2322 35.4384 17.2045 35.5682 17.1508C35.6979 17.0971 35.8158 17.0183 35.9151 16.919L40.8995 11.9346C41.0206 11.8338 41.1199 11.7096 41.1915 11.5693C41.263 11.429 41.3053 11.2756 41.3158 11.1185C41.3263 10.9614 41.3047 10.8037 41.2524 10.6552C41.2001 10.5067 41.1181 10.3703 41.0115 10.2544C37.1075 6.38711 31.9183 4.08963 26.4308 3.79896C20.9433 3.50829 15.5404 5.24472 11.2497 8.67796C6.959 12.1112 4.07988 17.0017 3.15995 22.4194C2.24002 27.837 3.34345 33.4038 6.26037 38.0609C6.32849 38.1914 6.42293 38.3063 6.53772 38.3984C6.65251 38.4905 6.78517 38.5578 6.9273 38.596C7.06943 38.6343 7.21794 38.6426 7.36345 38.6205C7.50896 38.5984 7.6483 38.5463 7.77267 38.4676C7.89704 38.3889 8.00373 38.2853 8.086 38.1633C8.16827 38.0412 8.22432 37.9034 8.25062 37.7586C8.27693 37.6138 8.2729 37.4651 8.23881 37.3219C8.20471 37.1788 8.14128 37.0442 8.05254 36.9268C6.01567 33.6893 4.93346 29.9428 4.93025 26.1178Z" fill="#322D2D"/>
<path d="M38.8428 19.5527H35.3985C34.7375 19.5527 34.1036 19.8153 33.6362 20.2827C33.1688 20.7501 32.9063 21.384 32.9062 22.045V30.1937C32.9063 30.8547 33.1688 31.4886 33.6362 31.956C34.1036 32.4233 34.7375 32.6859 35.3985 32.6859H38.8428C39.5038 32.6854 40.1379 32.4237 40.6069 31.9579C40.8401 31.7275 41.0247 31.4526 41.1498 31.1496C41.2749 30.8465 41.3378 30.5215 41.335 30.1937V22.045C41.3378 21.7172 41.2749 21.3921 41.1498 21.0891C41.0247 20.7861 40.8401 20.5112 40.6069 20.2808C40.1379 19.8149 39.5038 19.5533 38.8428 19.5527ZM39.1928 30.1937C39.194 30.2414 39.1845 30.2887 39.1652 30.3323C39.1458 30.3759 39.117 30.4146 39.0808 30.4457C39.0513 30.4801 39.0148 30.5078 38.9738 30.5271C38.9327 30.5464 38.8881 30.5569 38.8428 30.5577H35.3985C35.3511 30.5571 35.3043 30.5468 35.261 30.5276C35.2176 30.5083 35.1787 30.4805 35.1465 30.4457C35.1103 30.4146 35.0815 30.3759 35.0621 30.3323C35.0427 30.2887 35.0333 30.2414 35.0344 30.1937V22.045C35.0379 21.9495 35.0774 21.8589 35.1449 21.7914C35.2124 21.7239 35.303 21.6844 35.3985 21.6809H38.8428C38.8881 21.6818 38.9327 21.6922 38.9738 21.7115C39.0148 21.7308 39.0513 21.7586 39.0808 21.7929C39.1156 21.8252 39.1434 21.8641 39.1627 21.9075C39.1819 21.9508 39.1922 21.9976 39.1928 22.045V30.1937Z" fill="#322D2D"/>
<path d="M78.0436 33.1182H75.7436L68.8636 21.3982V33.1182H67.1836V19.1182H69.4836L76.3636 30.8982V19.1182H78.0436V33.1182ZM90.2308 27.7782C90.2308 31.4382 88.2308 33.2582 85.3508 33.2582C82.4508 33.2582 80.4508 31.4182 80.4508 27.7782C80.4508 24.1582 82.4508 22.2982 85.3508 22.2982C88.2308 22.2982 90.2308 24.1382 90.2308 27.7782ZM82.1308 27.7782C82.1308 30.7582 83.4908 31.8782 85.3508 31.8782C87.1908 31.8782 88.5508 30.7582 88.5508 27.7782C88.5508 24.8182 87.1908 23.6782 85.3508 23.6782C83.4908 23.6782 82.1308 24.7982 82.1308 27.7782ZM101.453 33.1182H99.8128V26.3382C99.8128 24.4782 98.8328 23.7182 97.3528 23.7182C95.6728 23.7182 94.1728 24.8582 94.1728 27.2182V33.1182H92.5328V22.4382H94.1528V24.0182C94.8328 23.0182 96.0328 22.2982 97.7328 22.2982C99.9928 22.2982 101.453 23.6582 101.453 25.7782V33.1182ZM109.933 27.6982H104.193V26.2582H109.933V27.6982ZM118.648 18.8982C122.708 18.8982 123.808 21.9582 123.948 23.4582H122.088C121.828 21.6982 120.788 20.4382 118.648 20.4382C115.328 20.4382 114.128 23.3182 114.128 26.1782C114.128 28.7382 114.988 31.8182 118.488 31.8182C121.528 31.8182 122.728 29.5382 122.728 27.5182H118.588V25.9582H124.308V33.1182H122.768V31.1782C122.368 31.8182 121.108 33.3382 118.348 33.3382C113.368 33.3382 112.328 28.9382 112.328 26.1582C112.328 22.7382 114.068 18.8982 118.648 18.8982ZM133.965 31.3582L138.245 19.1182H140.805V33.1182H139.105V20.9582L134.905 33.1182H132.925L128.805 20.9582V33.1182H127.105V19.1182H129.785L133.965 31.3582ZM149.385 18.8982C152.925 18.8982 155.465 21.5382 155.465 26.1382C155.465 30.7382 152.925 33.3382 149.385 33.3382C145.845 33.3382 143.305 30.7382 143.305 26.1382C143.305 21.5382 145.845 18.8982 149.385 18.8982ZM149.385 31.8182C152.005 31.8182 153.665 29.7982 153.665 26.1382C153.665 22.4182 152.005 20.4382 149.385 20.4382C146.765 20.4382 145.105 22.4182 145.105 26.1382C145.105 29.7982 146.765 31.8182 149.385 31.8182Z" fill="#322D2D"/>
</svg>
