<svg width="188" height="46" viewBox="0 0 188 46" fill="none" xmlns="http://www.w3.org/2000/svg">
<circle cx="22.5759" cy="23.1179" r="21.2419" stroke="#322D2D" stroke-width="2.1602"/>
<g clip-path="url(#clip0_625_1880)">
<path d="M35.0903 28.2568L32.1792 25.3457C35.5183 18.3391 30.386 10.1562 22.5745 10.1562C14.7766 10.1562 9.62408 18.325 12.9698 25.3457L10.0587 28.2568C9.24856 29.067 9.59304 30.4496 10.6916 30.7842L13.9252 31.7664L14.9074 35C15.2406 36.0942 16.6204 36.4458 17.4348 35.6329L21.6845 31.3831C22.2687 31.4316 22.8604 31.4332 23.4646 31.3831L27.7143 35.6329C28.5258 36.4443 29.9078 36.0964 30.2417 35L31.2239 31.7664L34.4575 30.7842C35.5578 30.4491 35.8991 29.0656 35.0903 28.2568ZM16.3609 34.5585L15.3783 31.3249C15.2309 30.8389 14.8527 30.4607 14.3668 30.3129L11.1331 29.3307L13.7506 26.7132C15.1723 28.8234 17.33 30.3985 19.8529 31.0668L16.3609 34.5585ZM14.8481 25.6156C11.0324 19.5391 15.4718 11.6751 22.5745 11.6751C29.7346 11.6751 34.0824 19.5937 30.3009 25.6155C26.7205 31.3256 18.428 31.3248 14.8481 25.6156ZM30.7824 30.3128C30.2963 30.4607 29.9181 30.8389 29.7703 31.3249L28.7882 34.5585L25.2964 31.0667C27.8192 30.3984 29.9769 28.8233 31.3986 26.7131L34.0161 29.3306L30.7824 30.3128Z" fill="#322D2D"/>
<path d="M22.5724 13.1934C17.4902 13.1934 13.816 18.1265 15.3082 23.0046C16.5796 27.1707 21.0897 29.3843 25.124 27.9408C28.0624 26.8892 30.1666 24.0781 30.1666 20.7876C30.1666 16.6001 26.7598 13.1934 22.5724 13.1934ZM18.4766 25.2702C14.3757 21.5271 17.0735 14.7122 22.5724 14.7122C26.3148 14.7122 29.1635 18.0796 28.5723 21.7404C27.8285 26.4855 22.0529 28.5428 18.4766 25.2702Z" fill="#322D2D"/>
<path d="M24.8788 18.7336L21.5314 21.2183L20.3718 19.9828C20.0847 19.6769 19.6042 19.6616 19.2983 19.9487C18.9925 20.2357 18.9772 20.7163 19.2643 21.0221L20.8869 22.7511C21.151 23.0325 21.5839 23.0709 21.8933 22.8412L25.7841 19.9533C26.1209 19.7033 26.1912 19.2276 25.9412 18.8908C25.6913 18.5541 25.2156 18.4837 24.8788 18.7336Z" fill="#322D2D"/>
<circle cx="22.577" cy="20.9578" r="7.92072" fill="#F9F9F9"/>
<path d="M16.6153 20.5783C16.6153 21.3458 16.8483 22.1749 17.8076 22.1749C18.7327 22.1749 18.9451 21.524 18.9588 21.1608H17.8144V20.3385H19.8633V22.9355H19.0068V22.4833C18.6984 22.8259 18.2667 23.0109 17.7391 23.0109C16.1356 23.0109 15.6148 21.7912 15.6148 20.5509C15.6148 19.4066 16.1767 18.0635 17.8213 18.0635C19.2603 18.0635 19.7057 19.0708 19.7126 19.6807H18.7258C18.7121 19.338 18.4654 18.8995 17.7939 18.8995C17.0607 18.8995 16.6153 19.4819 16.6153 20.5783ZM23.0708 21.6267L24.0369 18.1389H25.5239V22.9355H24.5783V19.3655L23.5641 22.9355H22.5774L21.5632 19.3655V22.9355H20.6176V18.1389H22.1046L23.0708 21.6267ZM30.0118 19.6807C30.0118 20.1124 29.8748 20.4892 29.6212 20.7702C29.3334 21.0923 28.8743 21.291 28.3124 21.291H27.2914V22.9355H26.3458V18.1389H28.47C29.3129 18.1389 30.0118 18.7145 30.0118 19.6807ZM29.0251 19.7081C29.0251 19.2969 28.8126 18.9543 28.1959 18.9543H27.2914V20.4755H28.1754C28.8195 20.4755 29.0251 20.0987 29.0251 19.7081Z" fill="#322D2D"/>
</g>
<path d="M67.6247 15.8982C71.6847 15.8982 72.7847 18.9582 72.9247 20.4582H71.0647C70.8047 18.6982 69.7647 17.4382 67.6247 17.4382C64.3047 17.4382 63.1047 20.3182 63.1047 23.1782C63.1047 25.7382 63.9647 28.8182 67.4647 28.8182C70.5047 28.8182 71.7047 26.5382 71.7047 24.5182H67.5647V22.9582H73.2847V30.1182H71.7447V28.1782C71.3447 28.8182 70.0847 30.3382 67.3247 30.3382C62.3447 30.3382 61.3047 25.9382 61.3047 23.1582C61.3047 19.7382 63.0447 15.8982 67.6247 15.8982ZM82.942 28.3582L87.222 16.1182H89.782V30.1182H88.082V17.9582L83.882 30.1182H81.902L77.782 17.9582V30.1182H76.082V16.1182H78.762L82.942 28.3582ZM102.681 20.2782C102.681 22.8782 100.901 24.7782 97.7813 24.7782H94.4813V30.1182H92.7813V16.1182H98.5213C100.761 16.1182 102.681 17.5982 102.681 20.2782ZM100.941 20.4182C100.941 18.6182 99.8413 17.6382 98.1613 17.6382H94.4813V23.2582H97.9413C99.7413 23.2582 100.941 22.0782 100.941 20.4182ZM114.923 28.8182C117.263 28.8182 118.343 27.2982 118.503 25.7382H120.343C120.263 27.3382 118.923 30.3382 114.903 30.3382C110.543 30.3382 108.883 27.1982 108.883 23.0982C108.883 19.4782 110.523 15.8982 114.983 15.8982C119.063 15.8982 120.163 18.9582 120.263 20.4582H118.403C118.223 18.6982 117.123 17.4382 114.943 17.4382C111.543 17.4382 110.683 20.5382 110.683 23.1382C110.683 25.6982 111.543 28.8182 114.923 28.8182ZM129.962 26.4382L131.622 26.4582C131.402 28.3382 130.002 30.2582 126.942 30.2582C124.102 30.2582 122.142 28.4182 122.142 24.7982C122.142 21.4782 124.182 19.2982 127.022 19.2982C130.022 19.2982 131.682 21.5382 131.682 25.0582H123.822C123.862 27.0782 124.702 28.8782 127.062 28.8782C128.802 28.8782 129.822 27.7982 129.962 26.4382ZM123.882 23.7582H129.902C129.742 21.4982 128.442 20.6782 126.982 20.6782C125.342 20.6782 124.082 21.7782 123.882 23.7582ZM139.61 21.1182H138.89C136.97 21.1182 135.63 21.7782 135.63 24.2982V30.1182H133.99V19.4382H135.61V21.2782C136.31 19.9182 137.73 19.4382 138.85 19.4382H139.61V21.1182ZM147.02 30.0582C147.02 30.0582 146.2 30.1782 145.16 30.1782C143.36 30.1782 142.76 29.4182 142.76 27.6382V20.8182H141V19.4382H142.76V16.1182H144.4V19.4382H147.16V20.8182H144.4V27.2182C144.4 28.5782 144.7 28.7582 145.78 28.7582C146.08 28.7582 146.92 28.6982 147.02 28.6982V30.0582ZM150.806 17.3182H149.166V15.3182H150.806V17.3182ZM150.806 30.1182H149.166V19.4382H150.806V30.1182ZM158.699 20.8182H156.219V30.1182H154.579V20.8182H152.699V19.4382H154.579V17.6382C154.579 16.1182 155.519 15.1982 157.199 15.1982C157.899 15.1982 158.839 15.2382 158.839 15.2382V16.6582C158.739 16.6382 157.939 16.6182 157.659 16.6182C156.799 16.6182 156.219 16.7182 156.219 17.8382V19.4382H158.699V20.8182ZM161.978 17.3182H160.338V15.3182H161.978V17.3182ZM161.978 30.1182H160.338V19.4382H161.978V30.1182ZM172.091 26.4382L173.751 26.4582C173.531 28.3382 172.131 30.2582 169.071 30.2582C166.231 30.2582 164.271 28.4182 164.271 24.7982C164.271 21.4782 166.311 19.2982 169.151 19.2982C172.151 19.2982 173.811 21.5382 173.811 25.0582H165.951C165.991 27.0782 166.831 28.8782 169.191 28.8782C170.931 28.8782 171.951 27.7982 172.091 26.4382ZM166.011 23.7582H172.031C171.871 21.4982 170.571 20.6782 169.111 20.6782C167.471 20.6782 166.211 21.7782 166.011 23.7582ZM183.799 30.1182V28.6182C183.259 29.3982 182.079 30.2582 180.239 30.2582C177.179 30.2582 175.619 27.9582 175.619 24.8182C175.619 21.7582 177.299 19.2982 180.559 19.2982C182.419 19.2982 183.439 20.2382 183.779 20.6982V15.3182H185.419V30.1182H183.799ZM177.299 24.7982C177.299 27.4182 178.459 28.9182 180.479 28.9182C182.779 28.9182 183.799 27.5382 183.799 24.6982C183.799 21.8382 182.799 20.6382 180.599 20.6382C178.319 20.6382 177.299 22.5782 177.299 24.7982Z" fill="#322D2D"/>
<defs>
<clipPath id="clip0_625_1880">
<rect width="25.9223" height="25.9223" fill="white" transform="translate(9.61719 10.1562)"/>
</clipPath>
</defs>
</svg>
