<svg width="42" height="41" viewBox="0 0 42 41" fill="none" xmlns="http://www.w3.org/2000/svg">
<g clip-path="url(#clip0_625_1495)">
<path d="M29.5147 2.4873C26.3827 2.4873 23.4545 3.66686 21.1821 5.82626C18.9097 3.66686 15.9814 2.4873 12.8495 2.4873C6.08087 2.4873 0.574219 8.12622 0.574219 15.0574C0.574219 19.0758 3.99891 24.0835 10.7533 29.9413C15.6916 34.2242 20.6994 37.4296 20.7494 37.4615C20.8813 37.5456 21.0317 37.5877 21.1821 37.5877C21.3325 37.5877 21.4828 37.5456 21.6149 37.4614C21.6649 37.4296 26.6726 34.2242 31.611 29.9413C38.3653 24.0834 41.79 19.0757 41.79 15.0574C41.79 8.12622 36.2833 2.4873 29.5147 2.4873ZM30.5699 28.713C26.5542 32.1973 22.4895 34.9571 21.1821 35.8212C19.8767 34.9586 15.8226 32.2065 11.8081 28.7249C5.51206 23.2646 2.18421 18.5384 2.18421 15.0574C2.18421 9.01388 6.9687 4.0973 12.8495 4.0973C15.8059 4.0973 18.5551 5.31235 20.5904 7.5186C20.7428 7.68379 20.9573 7.77773 21.1821 7.77773C21.4068 7.77773 21.6214 7.68379 21.7738 7.5186C23.8092 5.31244 26.5583 4.09738 29.5147 4.09738C35.3955 4.09729 40.18 9.01388 40.18 15.0574C40.18 18.5357 36.8569 23.2577 30.5699 28.713Z" fill="#1A1A1A"/>
<path d="M28.5384 6.93996L28.5081 6.94519C28.0703 7.02295 27.7785 7.44082 27.8563 7.87858C27.9256 8.26868 28.2651 8.54286 28.6479 8.54286C28.6947 8.54286 28.7421 8.53876 28.7896 8.5303L28.8056 8.52757C29.244 8.45375 29.5396 8.03853 29.4658 7.60013C29.392 7.16157 28.9764 6.86638 28.5384 6.93996Z" fill="#1A1A1A"/>
<path d="M35.92 10.0054C34.9316 8.64759 33.5277 7.63628 31.967 7.15771C31.5418 7.02722 31.0917 7.2663 30.9614 7.69134C30.831 8.11638 31.07 8.56661 31.495 8.69694C34.0677 9.48583 35.8644 12.0037 35.8644 14.82C35.8644 15.2646 36.2248 15.625 36.6694 15.625C37.114 15.625 37.4744 15.2646 37.4743 14.8199C37.4743 13.0671 36.9368 11.4023 35.92 10.0054Z" fill="#1A1A1A"/>
</g>
<defs>
<clipPath id="clip0_625_1495">
<rect width="41.2158" height="41.2158" fill="white" transform="translate(0.578125 -0.571289)"/>
</clipPath>
</defs>
</svg>
