<svg width="103" height="46" viewBox="0 0 103 46" fill="none" xmlns="http://www.w3.org/2000/svg">
<circle cx="22.6423" cy="23.1179" r="21.242" stroke="#322D2D" stroke-width="2.16"/>
<g clip-path="url(#clip0_625_1872)">
<path d="M32.5236 23.5507L30.2559 17.138C29.2079 14.1751 26.5313 12.1078 23.4482 11.7995V10.1562H21.8449V11.7995C18.7619 12.1078 16.0852 14.1752 15.0372 17.1381L12.7695 23.5507C12.373 24.6719 12.1719 25.8472 12.1719 27.044C12.1719 32.8198 16.8708 37.5187 22.6466 37.5187C28.4224 37.5187 33.1213 32.8198 33.1213 27.044C33.1213 25.8472 32.9202 24.6719 32.5236 23.5507ZM22.6466 35.9155C17.7548 35.9155 13.7751 31.9358 13.7751 27.044C13.7751 26.0299 13.9454 25.0344 14.281 24.0852L16.5487 17.6726C17.4606 15.0947 19.9111 13.3628 22.6466 13.3628C25.3821 13.3628 27.8326 15.0947 28.7444 17.6726L31.0121 24.0853C31.3478 25.0344 31.518 26.0298 31.518 27.044C31.518 31.9358 27.5383 35.9155 22.6466 35.9155Z" fill="#322D2D"/>
<path d="M22.6493 21.3789C19.5256 21.3789 16.9844 23.9202 16.9844 27.0438C16.9844 30.1674 19.5256 32.7087 22.6493 32.7087C25.7729 32.7087 28.3142 30.1674 28.3142 27.0438C28.3142 23.9202 25.7729 21.3789 22.6493 21.3789ZM22.6493 31.1054C20.4097 31.1054 18.5876 29.2833 18.5876 27.0438C18.5876 24.8042 20.4097 22.9822 22.6493 22.9822C24.8888 22.9822 26.7109 24.8042 26.7109 27.0438C26.7109 29.2833 24.8888 31.1054 22.6493 31.1054Z" fill="#322D2D"/>
</g>
<path d="M70.6404 30.1182L66.1404 23.2982L63.6004 26.2782V30.1182H61.9004V16.1182H63.6004V24.0182L70.2604 16.1182H72.2204L67.2404 21.9982L72.6604 30.1182H70.6404ZM80.9759 26.4382L82.6359 26.4582C82.4159 28.3382 81.0159 30.2582 77.9559 30.2582C75.1159 30.2582 73.1559 28.4182 73.1559 24.7982C73.1559 21.4782 75.1959 19.2982 78.0359 19.2982C81.0359 19.2982 82.6959 21.5382 82.6959 25.0582H74.8359C74.8759 27.0782 75.7159 28.8782 78.0759 28.8782C79.8159 28.8782 80.8359 27.7982 80.9759 26.4382ZM74.8959 23.7582H80.9159C80.7559 21.4982 79.4559 20.6782 77.9959 20.6782C76.3559 20.6782 75.0959 21.7782 74.8959 23.7582ZM89.9282 30.0582C89.9282 30.0582 89.1082 30.1782 88.0682 30.1782C86.2682 30.1782 85.6682 29.4182 85.6682 27.6382V20.8182H83.9082V19.4382H85.6682V16.1182H87.3082V19.4382H90.0682V20.8182H87.3082V27.2182C87.3082 28.5782 87.6082 28.7582 88.6882 28.7582C88.9882 28.7582 89.8282 28.6982 89.9282 28.6982V30.0582ZM100.963 24.7782C100.963 28.4382 98.9632 30.2582 96.0832 30.2582C93.1832 30.2582 91.1832 28.4182 91.1832 24.7782C91.1832 21.1582 93.1832 19.2982 96.0832 19.2982C98.9632 19.2982 100.963 21.1382 100.963 24.7782ZM92.8632 24.7782C92.8632 27.7582 94.2232 28.8782 96.0832 28.8782C97.9232 28.8782 99.2832 27.7582 99.2832 24.7782C99.2832 21.8182 97.9232 20.6782 96.0832 20.6782C94.2232 20.6782 92.8632 21.7982 92.8632 24.7782Z" fill="#322D2D"/>
<defs>
<clipPath id="clip0_625_1872">
<rect width="27.3625" height="27.3625" fill="white" transform="translate(8.96484 10.1562)"/>
</clipPath>
</defs>
</svg>
