<svg width="47" height="47" viewBox="0 0 47 47" fill="none" xmlns="http://www.w3.org/2000/svg">
<g clip-path="url(#clip0_625_1537)">
<path d="M9.36326 12.3923C11.3669 12.673 13.2035 13.5028 14.6741 14.792C17.1706 16.9803 20.3822 18.2631 23.7174 18.4043C23.9221 18.4129 24.1264 18.4173 24.3308 18.4172C27.502 18.4172 30.6154 17.3784 33.1582 15.4606C34.189 14.6833 35.1031 13.781 35.8895 12.7739C36.7837 13.5789 37.6004 14.4706 38.3196 15.4341C38.4959 15.6702 38.7662 15.7949 39.0398 15.7949C39.2266 15.7949 39.4151 15.7368 39.5764 15.6165C39.9738 15.3198 40.0554 14.7572 39.7587 14.3597C38.8168 13.0979 37.7222 11.9484 36.5123 10.9389C36.0202 9.48249 35.2988 8.10979 34.3648 6.85516C32.4484 4.28054 29.8032 2.44835 26.7152 1.55659C23.7281 0.694101 20.4816 0.804639 17.5736 1.86809C17.1078 2.03834 16.8683 2.55404 17.0386 3.01981C17.2089 3.48549 17.7245 3.72506 18.1904 3.55472C20.7429 2.62121 23.5935 2.52441 26.2169 3.28201C28.9247 4.06395 31.244 5.67031 32.9242 7.9275C33.1604 8.24475 33.379 8.57143 33.5838 8.90484C33.3286 8.75919 33.0711 8.61749 32.8097 8.48343C30.1968 7.14367 27.3902 6.41175 24.4565 6.29977L22.4135 4.49865C22.0415 4.17072 21.4742 4.20637 21.1462 4.57839C20.8182 4.95042 20.8539 5.51783 21.2259 5.84577L21.8169 6.36676C20.4529 6.49122 19.1089 6.75369 17.8025 7.15185C17.3281 7.29642 17.0607 7.7982 17.2054 8.27259C17.3499 8.74698 17.8522 9.01457 18.326 8.86973C20.0484 8.34478 21.8439 8.07863 23.6627 8.07863C25.2419 8.07863 26.7824 8.27564 28.2729 8.6632L26.1139 10.4338C25.7305 10.7483 25.6746 11.3141 25.989 11.6976C26.1666 11.9141 26.4242 12.0261 26.6839 12.0261C26.8841 12.0261 27.0858 11.9594 27.2528 11.8225L30.3018 9.32194C30.8735 9.5458 31.437 9.79777 31.9903 10.0815C32.8658 10.5304 33.7047 11.0537 34.4984 11.6398C33.8032 12.5355 32.9918 13.3365 32.0766 14.0269C29.7014 15.8183 26.7593 16.7356 23.7932 16.6101C20.8656 16.4862 18.0475 15.3609 15.8578 13.4416C14.391 12.1559 12.6202 11.2582 10.6868 10.8125C11.082 9.82848 11.595 8.90125 12.2182 8.04603C12.5102 7.64527 12.4222 7.08351 12.0214 6.7915C11.6206 6.49957 11.0588 6.58757 10.7668 6.98842C9.82921 8.27519 9.11058 9.70384 8.63089 11.2348C8.55205 11.4866 8.58788 11.7603 8.72895 11.9832C8.87002 12.206 9.10196 12.3557 9.36326 12.3923Z" fill="#1A1A1A"/>
<path d="M17.952 37.5876C18.5988 34.3315 18.104 30.9088 16.5586 27.9497C14.992 24.9498 12.4102 22.5689 9.28894 21.2456C8.10041 20.7416 6.86231 20.399 5.59682 20.2215C5.84681 19.0453 6.21066 17.8929 6.68514 16.7889C6.88098 16.3333 6.67032 15.8052 6.21479 15.6094C5.75872 15.4134 5.23099 15.6242 5.03514 16.0798C4.4134 17.5265 3.96514 19.0493 3.69584 20.6018C2.6807 21.7561 1.85252 23.0674 1.23293 24.5035C-0.313536 28.0877 -0.364091 32.0673 1.09051 35.709C2.55265 39.3698 5.35455 42.2383 8.98014 43.7861C10.8022 44.564 12.7319 44.9569 14.6805 44.9569C15.7505 44.9569 16.8264 44.8384 17.8926 44.6C18.1501 44.5424 18.3694 44.3745 18.4918 44.1409C18.6145 43.9072 18.6281 43.6315 18.5292 43.3869C17.7706 41.5111 17.5709 39.5058 17.952 37.5876ZM9.6853 42.1342C6.50223 40.7753 4.04209 38.2568 2.75837 35.0427C1.4822 31.8477 1.52611 28.3574 2.88193 25.2147C3.03863 24.8516 3.21211 24.4989 3.39853 24.1548C3.40005 24.4487 3.40598 24.7425 3.42062 25.0359C3.5668 27.9686 4.33626 30.7653 5.70628 33.3619L5.16795 36.0317C5.06989 36.5178 5.38454 36.9914 5.87069 37.0894C5.93059 37.1014 5.9903 37.1073 6.04912 37.1073C6.46774 37.1073 6.84246 36.8128 6.9284 36.3867L7.0841 35.6144C7.87385 36.7334 8.77325 37.7662 9.77115 38.6984C9.94427 38.8601 10.1644 38.9401 10.3839 38.9401C10.624 38.9401 10.8635 38.8444 11.0403 38.6551C11.3789 38.2927 11.3595 37.7244 10.9971 37.3859C9.68144 36.1568 8.55316 34.735 7.64371 33.1598C6.85404 31.7922 6.25448 30.3596 5.84483 28.875L8.45771 29.8594C8.56196 29.8987 8.66899 29.9173 8.77406 29.9173C9.1371 29.9173 9.47895 29.6955 9.61445 29.3357C9.78929 28.8717 9.55492 28.3536 9.09076 28.1788L5.4007 26.7885C5.30866 26.1815 5.24518 25.5674 5.2142 24.9463C5.16526 23.9637 5.19893 22.9755 5.30965 21.9952C6.43299 22.1494 7.53245 22.4514 8.58782 22.8989C11.3268 24.0601 13.5921 26.1491 14.9666 28.781C16.3231 31.3784 16.7576 34.3816 16.1903 37.2376C15.8103 39.1508 15.9182 41.1332 16.499 43.0305C14.1837 43.3617 11.8474 43.0572 9.6853 42.1342Z" fill="#1A1A1A"/>
<path d="M45.908 28.0201C45.5403 24.9733 44.2431 22.1635 42.1566 19.8947C41.978 19.7004 41.7211 19.5943 41.4595 19.6053C41.1957 19.6159 40.9502 19.7419 40.7879 19.9499C39.543 21.5448 37.9061 22.7203 36.0542 23.3494C32.911 24.4172 30.1942 26.5572 28.4043 29.3749C26.5897 32.2317 25.8186 35.6581 26.2332 39.0229C26.391 40.3042 26.7133 41.5476 27.1924 42.7323C26.0487 43.1039 24.8688 43.3651 23.6754 43.5061C23.183 43.5643 22.8309 44.0107 22.8891 44.5032C22.9431 44.9599 23.3309 45.2958 23.7797 45.2958C23.8149 45.2958 23.8505 45.2937 23.8863 45.2895C25.4506 45.1046 26.9939 44.7313 28.4736 44.1879C29.4161 44.3767 30.3748 44.4725 31.3411 44.4725C31.9196 44.4725 32.5007 44.4385 33.0824 44.3706C36.9598 43.9177 40.4314 41.9717 42.858 38.8912C45.2973 35.7944 46.3805 31.9337 45.908 28.0201ZM41.4473 37.7799C39.3183 40.4826 36.2737 42.1897 32.8741 42.5868C32.4813 42.6327 32.089 42.6589 31.6978 42.6695C31.9515 42.5213 32.2031 42.3692 32.4497 42.2099C34.9165 40.617 36.9538 38.5522 38.5176 36.0675L41.0989 35.1988C41.5688 35.0406 41.8217 34.5314 41.6635 34.0614C41.5054 33.5915 40.9963 33.3383 40.526 33.4967L39.7794 33.7481C40.3535 32.5047 40.7982 31.2095 41.1066 29.8791C41.2186 29.396 40.9177 28.9135 40.4346 28.8015C39.9516 28.6894 39.4692 28.9903 39.3572 29.4734C38.9505 31.2277 38.2832 32.9158 37.3739 34.4907C36.5843 35.8584 35.6434 37.0939 34.5625 38.1909L34.1086 35.4359C34.028 34.9466 33.5673 34.6153 33.0766 34.6958C32.5873 34.7764 32.256 35.2384 32.3366 35.7278L32.9776 39.6187C32.498 40.0019 31.998 40.3639 31.4755 40.7012C30.649 41.235 29.7764 41.6998 28.872 42.0941C28.4439 41.0443 28.1558 39.941 28.0156 38.8033C27.6519 35.8506 28.3282 32.8443 29.9203 30.338C31.4914 27.8646 33.875 25.9866 36.632 25.0499C38.4789 24.4224 40.1418 23.3378 41.4945 21.8862C42.9393 23.7259 43.8435 25.9015 44.1251 28.2353C44.5398 31.6714 43.5888 35.0611 41.4473 37.7799Z" fill="#1A1A1A"/>
<path d="M14.3276 5.53908C14.8236 5.53908 15.2256 5.13705 15.2256 4.64112C15.2256 4.14519 14.8236 3.74316 14.3276 3.74316C13.8317 3.74316 13.4297 4.14519 13.4297 4.64112C13.4297 5.13705 13.8317 5.53908 14.3276 5.53908Z" fill="#1A1A1A"/>
</g>
<defs>
<clipPath id="clip0_625_1537">
<rect width="45.981" height="45.981" fill="white" transform="translate(0.0390625 0.147461)"/>
</clipPath>
</defs>
</svg>
