<svg width="181" height="46" viewBox="0 0 181 46" fill="none" xmlns="http://www.w3.org/2000/svg">
<circle cx="22.5095" cy="23.1179" r="21.2419" stroke="#322D2D" stroke-width="2.1602"/>
<g clip-path="url(#clip0_625_1891)">
<path d="M35.0278 28.2568L32.1167 25.3457C35.4558 18.3391 30.3235 10.1562 22.512 10.1562C14.7141 10.1562 9.56158 18.325 12.9073 25.3457L9.99623 28.2568C9.18606 29.067 9.53054 30.4496 10.6291 30.7842L13.8627 31.7664L14.8449 35C15.1781 36.0942 16.5579 36.4458 17.3723 35.6329L21.622 31.3831C22.2062 31.4316 22.7979 31.4332 23.4021 31.3831L27.6518 35.6329C28.4633 36.4443 29.8453 36.0964 30.1792 35L31.1614 31.7664L34.395 30.7842C35.4953 30.4491 35.8366 29.0656 35.0278 28.2568ZM16.2984 34.5585L15.3158 31.3249C15.1684 30.8389 14.7902 30.4607 14.3043 30.3129L11.0706 29.3307L13.6881 26.7132C15.1098 28.8234 17.2675 30.3985 19.7904 31.0668L16.2984 34.5585ZM14.7856 25.6156C10.9699 19.5391 15.4093 11.6751 22.512 11.6751C29.6721 11.6751 34.0199 19.5937 30.2384 25.6155C26.658 31.3256 18.3655 31.3248 14.7856 25.6156ZM30.7199 30.3128C30.2338 30.4607 29.8556 30.8389 29.7078 31.3249L28.7257 34.5585L25.2339 31.0667C27.7567 30.3984 29.9144 28.8233 31.3361 26.7131L33.9536 29.3306L30.7199 30.3128Z" fill="#322D2D"/>
<path d="M22.5099 13.1934C17.4277 13.1934 13.7535 18.1265 15.2457 23.0046C16.5171 27.1707 21.0272 29.3843 25.0615 27.9408C27.9999 26.8892 30.1041 24.0781 30.1041 20.7876C30.1041 16.6001 26.6973 13.1934 22.5099 13.1934ZM18.4141 25.2702C14.3132 21.5271 17.011 14.7122 22.5099 14.7122C26.2523 14.7122 29.101 18.0796 28.5098 21.7404C27.766 26.4855 21.9904 28.5428 18.4141 25.2702Z" fill="#322D2D"/>
<path d="M24.8163 18.7336L21.4689 21.2183L20.3093 19.9828C20.0222 19.6769 19.5417 19.6616 19.2358 19.9487C18.93 20.2357 18.9147 20.7163 19.2018 21.0221L20.8244 22.7511C21.0885 23.0325 21.5214 23.0709 21.8308 22.8412L25.7216 19.9533C26.0584 19.7033 26.1287 19.2276 25.8787 18.8908C25.6288 18.5541 25.1531 18.4837 24.8163 18.7336Z" fill="#322D2D"/>
<circle cx="22.5106" cy="20.9578" r="7.92072" fill="#F9F9F9"/>
<path d="M20.3736 22.9355H19.2224L17.4065 19.5642V22.9355H16.4608V18.1389H17.66L19.4348 21.4828V18.1389H20.3736V22.9355ZM24.8167 21.4486C24.8167 22.5038 24.0492 23.0109 22.8569 23.0109C21.7879 23.0109 21.0205 22.497 20.9931 21.4212H21.9729C21.9729 21.9488 22.3087 22.2092 22.898 22.2092C23.3023 22.2092 23.8642 22.0996 23.8642 21.5582C23.8642 20.7702 22.2402 21.1402 21.4796 20.4687C21.2534 20.27 21.0753 19.9479 21.0753 19.4819C21.0753 18.5363 21.9181 18.0635 22.8432 18.0635C23.8025 18.0635 24.6591 18.413 24.7345 19.5642H23.7614C23.734 19.3038 23.6586 18.8447 22.8638 18.8447C22.3156 18.8447 22.0415 19.0708 22.0415 19.4134C22.0415 20.1329 23.2749 19.9479 24.104 20.3522C24.4946 20.5372 24.8167 20.8456 24.8167 21.4486ZM28.7313 18.9817H26.3467V20.2494H28.5669V21.106H26.3467V22.9355H25.4011V18.1389H28.7313V18.9817Z" fill="#322D2D"/>
</g>
<path d="M72.4498 30.1182H70.1498L63.2698 18.3982V30.1182H61.5898V16.1182H63.8898L70.7698 27.8982V16.1182H72.4498V30.1182ZM85.477 26.1582C85.477 28.6382 83.717 30.3382 80.037 30.3382C77.317 30.3382 74.897 29.1782 74.857 26.0182H76.697C76.697 27.8582 77.917 28.8982 80.177 28.8982C81.677 28.8982 83.777 28.3382 83.777 26.3182C83.777 22.3382 75.137 25.3782 75.137 19.7982C75.137 17.1182 77.737 15.8982 80.157 15.8982C83.117 15.8982 85.137 17.2382 85.257 20.0382H83.457C83.377 18.4382 82.537 17.3182 80.157 17.3182C78.137 17.3182 76.857 18.2582 76.857 19.7182C76.857 20.6382 77.357 21.1982 78.117 21.5582C80.517 22.6982 85.477 22.0982 85.477 26.1582ZM96.6613 17.6382H89.4813V22.7782H96.3613V24.2982H89.4813V30.1182H87.7813V16.1182H96.6613V17.6382ZM109.005 28.8182C111.345 28.8182 112.425 27.2982 112.585 25.7382H114.425C114.345 27.3382 113.005 30.3382 108.985 30.3382C104.625 30.3382 102.965 27.1982 102.965 23.0982C102.965 19.4782 104.605 15.8982 109.065 15.8982C113.145 15.8982 114.245 18.9582 114.345 20.4582H112.485C112.305 18.6982 111.205 17.4382 109.025 17.4382C105.625 17.4382 104.765 20.5382 104.765 23.1382C104.765 25.6982 105.625 28.8182 109.005 28.8182ZM124.044 26.4382L125.704 26.4582C125.484 28.3382 124.084 30.2582 121.024 30.2582C118.184 30.2582 116.224 28.4182 116.224 24.7982C116.224 21.4782 118.264 19.2982 121.104 19.2982C124.104 19.2982 125.764 21.5382 125.764 25.0582H117.904C117.944 27.0782 118.784 28.8782 121.144 28.8782C122.884 28.8782 123.904 27.7982 124.044 26.4382ZM117.964 23.7582H123.984C123.824 21.4982 122.524 20.6782 121.064 20.6782C119.424 20.6782 118.164 21.7782 117.964 23.7582ZM133.692 21.1182H132.972C131.052 21.1182 129.712 21.7782 129.712 24.2982V30.1182H128.072V19.4382H129.692V21.2782C130.392 19.9182 131.812 19.4382 132.932 19.4382H133.692V21.1182ZM141.102 30.0582C141.102 30.0582 140.282 30.1782 139.242 30.1782C137.442 30.1782 136.842 29.4182 136.842 27.6382V20.8182H135.082V19.4382H136.842V16.1182H138.482V19.4382H141.242V20.8182H138.482V27.2182C138.482 28.5782 138.782 28.7582 139.862 28.7582C140.162 28.7582 141.002 28.6982 141.102 28.6982V30.0582ZM144.888 17.3182H143.248V15.3182H144.888V17.3182ZM144.888 30.1182H143.248V19.4382H144.888V30.1182ZM152.781 20.8182H150.301V30.1182H148.661V20.8182H146.781V19.4382H148.661V17.6382C148.661 16.1182 149.601 15.1982 151.281 15.1982C151.981 15.1982 152.921 15.2382 152.921 15.2382V16.6582C152.821 16.6382 152.021 16.6182 151.741 16.6182C150.881 16.6182 150.301 16.7182 150.301 17.8382V19.4382H152.781V20.8182ZM156.06 17.3182H154.42V15.3182H156.06V17.3182ZM156.06 30.1182H154.42V19.4382H156.06V30.1182ZM166.173 26.4382L167.833 26.4582C167.613 28.3382 166.213 30.2582 163.153 30.2582C160.313 30.2582 158.353 28.4182 158.353 24.7982C158.353 21.4782 160.393 19.2982 163.233 19.2982C166.233 19.2982 167.893 21.5382 167.893 25.0582H160.033C160.073 27.0782 160.913 28.8782 163.273 28.8782C165.013 28.8782 166.033 27.7982 166.173 26.4382ZM160.093 23.7582H166.113C165.953 21.4982 164.653 20.6782 163.193 20.6782C161.553 20.6782 160.293 21.7782 160.093 23.7582ZM177.881 30.1182V28.6182C177.341 29.3982 176.161 30.2582 174.321 30.2582C171.261 30.2582 169.701 27.9582 169.701 24.8182C169.701 21.7582 171.381 19.2982 174.641 19.2982C176.501 19.2982 177.521 20.2382 177.861 20.6982V15.3182H179.501V30.1182H177.881ZM171.381 24.7982C171.381 27.4182 172.541 28.9182 174.561 28.9182C176.861 28.9182 177.881 27.5382 177.881 24.6982C177.881 21.8382 176.881 20.6382 174.681 20.6382C172.401 20.6382 171.381 22.5782 171.381 24.7982Z" fill="#322D2D"/>
<defs>
<clipPath id="clip0_625_1891">
<rect width="25.9223" height="25.9223" fill="white" transform="translate(9.54688 10.1562)"/>
</clipPath>
</defs>
</svg>
