<svg width="364" height="141" viewBox="0 0 364 141" fill="none" xmlns="http://www.w3.org/2000/svg">
<path fill-rule="evenodd" clip-rule="evenodd" d="M12.2978 5.51927C12.5774 5.7639 12.6028 6.19008 12.3541 6.46607L5.35385 14.2359C5.10388 14.5134 4.67469 14.531 4.40279 14.2751L0.35199 10.4616C0.0993685 10.2238 0.0751864 9.82747 0.291927 9.55655C0.531086 9.2576 0.976452 9.21646 1.26108 9.47246L4.40396 12.2994C4.67709 12.5451 5.09759 12.5231 5.34367 12.2503L11.3649 5.57434C11.6085 5.30418 12.0241 5.27969 12.2978 5.51927Z" fill="#322D2D"/>
<path d="M22.8992 15.572C20.61 15.572 19.276 14.2531 19.276 12.2217H20.6252C20.6555 13.6467 21.4742 14.4654 22.884 14.4654C24.5971 14.4654 25.2338 13.5406 25.2338 12.4794C25.2338 11.2666 24.4455 10.645 22.9295 10.645C22.7476 10.645 22.1412 10.6602 22.1412 10.6602V9.50803H22.7779C24.203 9.50803 24.9761 8.82583 24.9761 7.62819C24.9761 6.55183 24.203 5.83931 23.0053 5.83931C21.4135 5.83931 20.792 6.73375 20.792 8.14363H19.5185C19.5185 6.15767 20.7313 4.74779 23.0356 4.74779C25.0519 4.74779 26.2647 5.96059 26.2647 7.50691C26.2647 8.62875 25.6583 9.55351 24.5213 9.96283C25.6886 10.2054 26.5528 11.1302 26.5528 12.4339C26.5528 14.1925 25.2793 15.572 22.8992 15.572ZM31.8747 4.73263C33.5423 4.73263 35.5131 5.73319 35.5131 10.1448C35.5131 14.5866 33.5423 15.572 31.8747 15.572C30.2071 15.572 28.2363 14.5866 28.2363 10.1448C28.2363 5.73319 30.2071 4.73263 31.8747 4.73263ZM31.8747 14.4805C32.9511 14.4805 34.1639 13.8286 34.1639 10.1448C34.1639 6.47603 32.9511 5.83931 31.8747 5.83931C30.7984 5.83931 29.5704 6.47603 29.5704 10.1448C29.5704 13.8286 30.7984 14.4805 31.8747 14.4805ZM48.2597 12.4036C48.2597 14.2834 46.9257 15.572 44.1362 15.572C42.0745 15.572 40.2401 14.6928 40.2098 12.2975H41.6045C41.6045 13.6922 42.5293 14.4805 44.2423 14.4805C45.3793 14.4805 46.9711 14.056 46.9711 12.5249C46.9711 9.50803 40.422 11.8124 40.422 7.58271C40.422 5.55127 42.3928 4.62651 44.2272 4.62651C46.4709 4.62651 48.002 5.64223 48.093 7.76463H46.7286C46.6679 6.55183 46.0312 5.70287 44.2272 5.70287C42.696 5.70287 41.7258 6.41539 41.7258 7.52207C41.7258 8.21943 42.1048 8.64391 42.6809 8.91679C44.5001 9.78091 48.2597 9.32611 48.2597 12.4036ZM55.4791 12.6158L56.7374 12.631C56.5706 14.056 55.5094 15.5114 53.1899 15.5114C51.0372 15.5114 49.5515 14.1167 49.5515 11.3727C49.5515 8.85615 51.0979 7.20371 53.2506 7.20371C55.5246 7.20371 56.7829 8.90163 56.7829 11.5698H50.825C50.8553 13.101 51.492 14.4654 53.2809 14.4654C54.5998 14.4654 55.373 13.6467 55.4791 12.6158ZM50.8705 10.5844H55.4336C55.3123 8.87131 54.3269 8.24975 53.2203 8.24975C51.9771 8.24975 51.0221 9.08355 50.8705 10.5844ZM62.792 8.58327H62.2463C60.7909 8.58327 59.7752 9.08355 59.7752 10.9937V15.4053H58.5321V7.30983H59.76V8.70455C60.2906 7.67367 61.367 7.30983 62.2159 7.30983H62.792V8.58327ZM67.9612 15.4053H66.3543L63.4739 7.30983H64.8079L67.1729 14.238L69.5682 7.30983H70.8871L67.9612 15.4053ZM73.4991 5.70287H72.256V4.18687H73.4991V5.70287ZM73.4991 15.4053H72.256V7.30983H73.4991V15.4053ZM82.378 15.4053H81.1349V10.266C81.1349 8.85615 80.3921 8.28007 79.2702 8.28007C77.9968 8.28007 76.8598 9.14419 76.8598 10.9331V15.4053H75.6167V7.30983H76.8446V8.50747C77.3601 7.74947 78.2697 7.20371 79.5583 7.20371C81.2713 7.20371 82.378 8.23459 82.378 9.84155V15.4053ZM91.2619 7.30983V15.3598C91.2619 16.9213 90.3978 18.4221 87.5477 18.4221C85.4253 18.4221 84.2428 17.5732 84.1973 15.7843H85.4556C85.4556 16.709 86.0469 17.3912 87.6235 17.3912C89.4427 17.3912 90.0188 16.5574 90.0188 15.2234V13.9651C89.6701 14.4654 88.8666 15.0869 87.4871 15.0869C85.5769 15.0869 84.0761 13.7983 84.0761 11.1756C84.0761 8.40135 85.8498 7.20371 87.5932 7.20371C88.8211 7.20371 89.564 7.61303 90.0339 8.18911V7.30983H91.2619ZM90.0188 11.0544C90.0188 9.03807 89.2911 8.23459 87.7599 8.23459C86.3955 8.23459 85.3343 9.12903 85.3343 11.1302C85.3343 13.2677 86.3652 14.0257 87.6538 14.0257C89.1092 14.0257 90.0188 13.1161 90.0188 11.0544ZM98.2487 9.52319C98.188 8.53779 97.3694 8.24975 96.384 8.24975C95.5199 8.24975 94.4435 8.52263 94.4435 9.47771C94.4435 11.5395 99.7495 9.64447 99.7495 12.9494C99.7495 14.056 99.0976 15.5114 96.2779 15.5114C94.0948 15.5114 93.0943 14.4047 93.0336 12.9342H94.398C94.4283 13.8286 94.9893 14.4654 96.4295 14.4654C98.0971 14.4654 98.4912 13.7528 98.4912 13.0252C98.4912 11.494 95.6866 12.1307 94.1555 11.2818C93.5945 10.9634 93.2004 10.4631 93.2004 9.55351C93.2004 8.14363 94.4435 7.20371 96.3991 7.20371C98.8096 7.20371 99.5221 8.59843 99.5676 9.52319H98.2487ZM112.349 12.4036C112.349 14.2834 111.015 15.572 108.226 15.572C106.164 15.572 104.33 14.6928 104.299 12.2975H105.694C105.694 13.6922 106.619 14.4805 108.332 14.4805C109.469 14.4805 111.061 14.056 111.061 12.5249C111.061 9.50803 104.512 11.8124 104.512 7.58271C104.512 5.55127 106.482 4.62651 108.317 4.62651C110.56 4.62651 112.092 5.64223 112.182 7.76463H110.818C110.757 6.55183 110.121 5.70287 108.317 5.70287C106.786 5.70287 105.815 6.41539 105.815 7.52207C105.815 8.21943 106.194 8.64391 106.77 8.91679C108.59 9.78091 112.349 9.32611 112.349 12.4036ZM120.781 15.4053H119.538V10.266C119.538 8.87131 118.765 8.28007 117.674 8.28007C116.4 8.28007 115.263 9.14419 115.263 10.9331V15.4053H114.02V4.18687H115.263V8.50747C115.763 7.74947 116.673 7.20371 117.962 7.20371C119.69 7.20371 120.781 8.23459 120.781 9.84155V15.4053ZM124.102 5.70287H122.858V4.18687H124.102V5.70287ZM124.102 15.4053H122.858V7.30983H124.102V15.4053ZM129.918 15.5114C128.493 15.5114 127.75 14.8898 127.462 14.526V18.316H126.219V7.30983H127.462V8.44683C127.978 7.73431 128.948 7.20371 130.115 7.20371C132.435 7.20371 133.632 8.87131 133.632 11.2514C133.632 13.48 132.541 15.5114 129.918 15.5114ZM132.374 11.3272C132.374 9.34127 131.495 8.23459 129.964 8.23459C129.16 8.23459 128.493 8.52263 128.053 9.03807C127.69 9.47771 127.447 10.0841 127.447 11.4485C127.447 12.7068 127.629 13.3132 128.008 13.768C128.402 14.2228 128.978 14.4957 129.842 14.4957C131.464 14.4957 132.374 13.2526 132.374 11.3272ZM139.067 15.5114C137.642 15.5114 136.9 14.8898 136.612 14.526V18.316H135.368V7.30983H136.612V8.44683C137.127 7.73431 138.097 7.20371 139.265 7.20371C141.584 7.20371 142.782 8.87131 142.782 11.2514C142.782 13.48 141.69 15.5114 139.067 15.5114ZM141.523 11.3272C141.523 9.34127 140.644 8.23459 139.113 8.23459C138.309 8.23459 137.642 8.52263 137.203 9.03807C136.839 9.47771 136.596 10.0841 136.596 11.4485C136.596 12.7068 136.778 13.3132 137.157 13.768C137.551 14.2228 138.128 14.4957 138.992 14.4957C140.614 14.4957 141.523 13.2526 141.523 11.3272ZM150.066 12.6158L151.325 12.631C151.158 14.056 150.097 15.5114 147.777 15.5114C145.624 15.5114 144.139 14.1167 144.139 11.3727C144.139 8.85615 145.685 7.20371 147.838 7.20371C150.112 7.20371 151.37 8.90163 151.37 11.5698H145.412C145.442 13.101 146.079 14.4654 147.868 14.4654C149.187 14.4654 149.96 13.6467 150.066 12.6158ZM145.458 10.5844H150.021C149.899 8.87131 148.914 8.24975 147.807 8.24975C146.564 8.24975 145.609 9.08355 145.458 10.5844ZM158.941 15.4053V14.2683C158.531 14.8595 157.637 15.5114 156.242 15.5114C153.923 15.5114 152.74 13.768 152.74 11.3879C152.74 9.06839 154.014 7.20371 156.485 7.20371C157.895 7.20371 158.668 7.91623 158.925 8.26491V4.18687H160.169V15.4053H158.941ZM154.014 11.3727C154.014 13.3587 154.893 14.4957 156.424 14.4957C158.167 14.4957 158.941 13.4496 158.941 11.2969C158.941 9.12903 158.183 8.21943 156.515 8.21943C154.787 8.21943 154.014 9.68995 154.014 11.3727ZM170.757 14.0712L174.001 4.79327H175.942V15.4053H174.653V6.18799L171.469 15.4053H169.968L166.846 6.18799V15.4053H165.557V4.79327H167.588L170.757 14.0712ZM185.173 11.3576C185.173 14.1318 183.657 15.5114 181.474 15.5114C179.276 15.5114 177.76 14.1167 177.76 11.3576C177.76 8.61359 179.276 7.20371 181.474 7.20371C183.657 7.20371 185.173 8.59843 185.173 11.3576ZM179.034 11.3576C179.034 13.6164 180.064 14.4654 181.474 14.4654C182.869 14.4654 183.9 13.6164 183.9 11.3576C183.9 9.11387 182.869 8.24975 181.474 8.24975C180.064 8.24975 179.034 9.09871 179.034 11.3576ZM193.68 15.4053H192.437V10.266C192.437 8.85615 191.694 8.28007 190.572 8.28007C189.298 8.28007 188.161 9.14419 188.161 10.9331V15.4053H186.918V7.30983H188.146V8.50747C188.662 7.74947 189.571 7.20371 190.86 7.20371C192.573 7.20371 193.68 8.23459 193.68 9.84155V15.4053ZM199.638 15.3598C199.638 15.3598 199.016 15.4508 198.228 15.4508C196.863 15.4508 196.409 14.8747 196.409 13.5254V8.35587H195.075V7.30983H196.409V4.79327H197.652V7.30983H199.744V8.35587H197.652V13.2071C197.652 14.238 197.879 14.3744 198.698 14.3744C198.925 14.3744 199.562 14.3289 199.638 14.3289V15.3598ZM208.025 15.4053H206.782V10.266C206.782 8.87131 206.009 8.28007 204.918 8.28007C203.644 8.28007 202.507 9.14419 202.507 10.9331V15.4053H201.264V4.18687H202.507V8.50747C203.007 7.74947 203.917 7.20371 205.206 7.20371C206.934 7.20371 208.025 8.23459 208.025 9.84155V15.4053ZM211.346 15.4053H210.102V4.18687H211.346V15.4053ZM218.708 7.30983H220.012L216.586 16.709C216.237 17.6641 215.798 18.316 214.63 18.316H213.236V17.27H214.282C215.161 17.27 215.297 16.8 215.707 15.5266L212.705 7.30983H214.07L216.389 14.0257L218.708 7.30983Z" fill="#322D2D"/>
<path fill-rule="evenodd" clip-rule="evenodd" d="M12.2978 30.2908C12.5774 30.5354 12.6028 30.9616 12.3541 31.2376L5.35385 39.0074C5.10388 39.2849 4.67469 39.3025 4.40279 39.0466L0.35199 35.2331C0.0993685 34.9952 0.0751864 34.599 0.291927 34.328C0.531086 34.0291 0.976452 33.9879 1.26108 34.2439L4.40396 37.0709C4.67709 37.3166 5.09759 37.2946 5.34367 37.0218L11.3649 30.3458C11.6085 30.0757 12.0241 30.0512 12.2978 30.2908Z" fill="#322D2D"/>
<path d="M26.8711 30.9294H21.5954V33.734H26.5073V35.629H21.5954V39.6768H19.5034V29.0648H26.8711V30.9294ZM32.8922 33.4308H32.3162C30.9972 33.4308 30.2089 33.9311 30.2089 35.25V39.6768H28.1623V31.3691H30.1331V32.597C30.5121 31.839 31.2853 31.3691 32.2858 31.3691H32.8922V33.4308ZM35.6221 34.5224H39.1089C39.0483 33.3854 38.2751 32.9457 37.4413 32.9457C36.4862 32.9457 35.7282 33.537 35.6221 34.5224ZM37.3807 39.7829C35.0612 39.7829 33.4239 38.3882 33.4239 35.5684C33.4239 32.7486 35.1825 31.263 37.4565 31.263C39.9579 31.263 41.2768 33.0973 41.2768 35.5532C41.2768 35.6442 41.2768 35.9929 41.2768 35.9929H35.5463C35.5463 36.9328 35.9253 38.085 37.4261 38.085C38.2448 38.085 38.9118 37.6756 39.0786 36.9025L41.1555 36.948C40.8978 38.6004 39.5789 39.7829 37.3807 39.7829ZM44.3865 34.5224H47.8733C47.8126 33.3854 47.0395 32.9457 46.2057 32.9457C45.2506 32.9457 44.4926 33.537 44.3865 34.5224ZM46.145 39.7829C43.8256 39.7829 42.1883 38.3882 42.1883 35.5684C42.1883 32.7486 43.9468 31.263 46.2208 31.263C48.7222 31.263 50.0412 33.0973 50.0412 35.5532C50.0412 35.6442 50.0412 35.9929 50.0412 35.9929H44.3107C44.3107 36.9328 44.6897 38.085 46.1905 38.085C47.0092 38.085 47.6762 37.6756 47.843 36.9025L49.9199 36.948C49.6622 38.6004 48.3432 39.7829 46.145 39.7829ZM59.2294 28.898C62.3069 28.898 63.1407 31.2175 63.2468 32.3545H61.8369C61.6399 31.0204 60.8515 30.0653 59.2294 30.0653C56.7129 30.0653 55.8033 32.2484 55.8033 34.4162C55.8033 36.3567 56.4551 38.6914 59.1081 38.6914C61.4125 38.6914 62.3221 36.9631 62.3221 35.432H59.1839V34.2495H63.5197V39.6768H62.3524V38.2062C62.0492 38.6914 61.0941 39.8435 59.002 39.8435C55.2272 39.8435 54.4389 36.5083 54.4389 34.4011C54.4389 31.8087 55.7578 28.898 59.2294 28.898ZM72.5985 35.629C72.5985 38.4033 71.0825 39.7829 68.8995 39.7829C66.7013 39.7829 65.1853 38.3882 65.1853 35.629C65.1853 32.8851 66.7013 31.4752 68.8995 31.4752C71.0825 31.4752 72.5985 32.8699 72.5985 35.629ZM66.4587 35.629C66.4587 37.8879 67.4896 38.7368 68.8995 38.7368C70.2942 38.7368 71.3251 37.8879 71.3251 35.629C71.3251 33.3854 70.2942 32.5212 68.8995 32.5212C67.4896 32.5212 66.4587 33.3702 66.4587 35.629ZM75.5866 39.6768H74.3435V28.4584H75.5866V39.6768ZM83.5256 39.6768V38.5398C83.1162 39.131 82.2218 39.7829 80.8271 39.7829C78.5076 39.7829 77.3251 38.0395 77.3251 35.6594C77.3251 33.3399 78.5986 31.4752 81.0696 31.4752C82.4795 31.4752 83.2527 32.1877 83.5104 32.5364V28.4584H84.7535V39.6768H83.5256ZM78.5986 35.6442C78.5986 37.6302 79.4778 38.7672 81.009 38.7672C82.7524 38.7672 83.5256 37.7211 83.5256 35.5684C83.5256 33.4005 82.7676 32.4909 81.1 32.4909C79.3717 32.4909 78.5986 33.9614 78.5986 35.6442ZM92.4316 36.8873L93.6899 36.9025C93.5231 38.3275 92.4619 39.7829 90.1424 39.7829C87.9897 39.7829 86.504 38.3882 86.504 35.6442C86.504 33.1276 88.0504 31.4752 90.2031 31.4752C92.4771 31.4752 93.7354 33.1731 93.7354 35.8413H87.7775C87.8078 37.3724 88.4445 38.7368 90.2334 38.7368C91.5523 38.7368 92.3255 37.9182 92.4316 36.8873ZM87.823 34.8559H92.3861C92.2648 33.1428 91.2794 32.5212 90.1728 32.5212C88.9296 32.5212 87.9746 33.355 87.823 34.8559ZM102.246 39.6768H101.003V34.5375C101.003 33.1276 100.26 32.5516 99.1381 32.5516C97.8647 32.5516 96.7277 33.4157 96.7277 35.2046V39.6768H95.4846V31.5813H96.7125V32.779C97.228 32.021 98.1376 31.4752 99.4262 31.4752C101.139 31.4752 102.246 32.5061 102.246 34.113V39.6768ZM114.207 39.6768L110.796 34.5072L108.87 36.766V39.6768H107.582V29.0648H108.87V35.053L113.919 29.0648H115.404L111.629 33.5218L115.738 39.6768H114.207ZM118.343 29.9744H117.099V28.4584H118.343V29.9744ZM118.343 39.6768H117.099V31.5813H118.343V39.6768ZM124.341 39.6313C124.341 39.6313 123.719 39.7222 122.931 39.7222C121.567 39.7222 121.112 39.1462 121.112 37.7969V32.6274H119.778V31.5813H121.112V29.0648H122.355V31.5813H124.447V32.6274H122.355V37.4786C122.355 38.5094 122.582 38.6459 123.401 38.6459C123.629 38.6459 124.265 38.6004 124.341 38.6004V39.6313ZM133.638 28.898C136.715 28.898 137.549 31.2175 137.655 32.3545H136.245C136.048 31.0204 135.26 30.0653 133.638 30.0653C131.121 30.0653 130.212 32.2484 130.212 34.4162C130.212 36.3567 130.863 38.6914 133.516 38.6914C135.821 38.6914 136.73 36.9631 136.73 35.432H133.592V34.2495H137.928V39.6768H136.761V38.2062C136.458 38.6914 135.502 39.8435 133.41 39.8435C129.636 39.8435 128.847 36.5083 128.847 34.4011C128.847 31.8087 130.166 28.898 133.638 28.898ZM147.007 35.629C147.007 38.4033 145.491 39.7829 143.308 39.7829C141.11 39.7829 139.594 38.3882 139.594 35.629C139.594 32.8851 141.11 31.4752 143.308 31.4752C145.491 31.4752 147.007 32.8699 147.007 35.629ZM140.867 35.629C140.867 37.8879 141.898 38.7368 143.308 38.7368C144.703 38.7368 145.733 37.8879 145.733 35.629C145.733 33.3854 144.703 32.5212 143.308 32.5212C141.898 32.5212 140.867 33.3702 140.867 35.629ZM149.995 39.6768H148.752V28.4584H149.995V39.6768ZM157.934 39.6768V38.5398C157.525 39.131 156.63 39.7829 155.235 39.7829C152.916 39.7829 151.733 38.0395 151.733 35.6594C151.733 33.3399 153.007 31.4752 155.478 31.4752C156.888 31.4752 157.661 32.1877 157.919 32.5364V28.4584H159.162V39.6768H157.934ZM153.007 35.6442C153.007 37.6302 153.886 38.7672 155.417 38.7672C157.161 38.7672 157.934 37.7211 157.934 35.5684C157.934 33.4005 157.176 32.4909 155.508 32.4909C153.78 32.4909 153.007 33.9614 153.007 35.6442ZM172.494 36.7206C172.494 38.1456 171.463 39.6768 169.159 39.6768H164.55V29.0648H168.719C170.296 29.0648 172.115 29.5196 172.115 31.6723C172.115 33.0215 171.19 33.8402 170.402 34.1585C171.387 34.3708 172.494 35.1136 172.494 36.7206ZM170.857 31.839C170.857 30.5959 169.962 30.1866 168.886 30.1866H165.839V33.6886H168.719C169.871 33.6886 170.857 33.0518 170.857 31.839ZM171.175 36.6144C171.175 35.1742 169.902 34.7801 168.204 34.7801H165.839V38.5549H168.901C170.341 38.5549 171.175 37.8879 171.175 36.6144ZM181.191 35.629C181.191 38.4033 179.675 39.7829 177.492 39.7829C175.294 39.7829 173.778 38.3882 173.778 35.629C173.778 32.8851 175.294 31.4752 177.492 31.4752C179.675 31.4752 181.191 32.8699 181.191 35.629ZM175.051 35.629C175.051 37.8879 176.082 38.7368 177.492 38.7368C178.887 38.7368 179.917 37.8879 179.917 35.629C179.917 33.3854 178.887 32.5212 177.492 32.5212C176.082 32.5212 175.051 33.3702 175.051 35.629ZM186.669 39.6313C186.669 39.6313 186.047 39.7222 185.259 39.7222C183.894 39.7222 183.44 39.1462 183.44 37.7969V32.6274H182.106V31.5813H183.44V29.0648H184.683V31.5813H186.775V32.6274H184.683V37.4786C184.683 38.5094 184.91 38.6459 185.729 38.6459C185.956 38.6459 186.593 38.6004 186.669 38.6004V39.6313ZM192.176 39.6313C192.176 39.6313 191.555 39.7222 190.766 39.7222C189.402 39.7222 188.947 39.1462 188.947 37.7969V32.6274H187.613V31.5813H188.947V29.0648H190.19V31.5813H192.282V32.6274H190.19V37.4786C190.19 38.5094 190.418 38.6459 191.236 38.6459C191.464 38.6459 192.1 38.6004 192.176 38.6004V39.6313ZM195.046 39.6768H193.802V28.4584H195.046V39.6768ZM202.712 36.8873L203.97 36.9025C203.803 38.3275 202.742 39.7829 200.423 39.7829C198.27 39.7829 196.784 38.3882 196.784 35.6442C196.784 33.1276 198.33 31.4752 200.483 31.4752C202.757 31.4752 204.015 33.1731 204.015 35.8413H198.058C198.088 37.3724 198.725 38.7368 200.514 38.7368C201.832 38.7368 202.606 37.9182 202.712 36.8873ZM198.103 34.8559H202.666C202.545 33.1428 201.56 32.5212 200.453 32.5212C199.21 32.5212 198.255 33.355 198.103 34.8559ZM213.723 30.035V33.8402H217.392V34.9317H213.723V38.7368H212.616V34.9317H208.948V33.8402H212.616V30.035H213.723ZM230.372 36.6751C230.372 38.5549 229.038 39.8435 226.249 39.8435C224.187 39.8435 222.353 38.9642 222.322 36.569H223.717C223.717 37.9637 224.642 38.752 226.355 38.752C227.492 38.752 229.084 38.3275 229.084 36.7964C229.084 33.7795 222.534 36.0838 222.534 31.8542C222.534 29.8228 224.505 28.898 226.34 28.898C228.583 28.898 230.114 29.9137 230.205 32.0361H228.841C228.78 30.8233 228.144 29.9744 226.34 29.9744C224.808 29.9744 223.838 30.6869 223.838 31.7936C223.838 32.4909 224.217 32.9154 224.793 33.1883C226.613 34.0524 230.372 33.5976 230.372 36.6751ZM235.742 39.7829C234.317 39.7829 233.574 39.1613 233.286 38.7975V42.5875H232.043V31.5813H233.286V32.7183C233.802 32.0058 234.772 31.4752 235.939 31.4752C238.259 31.4752 239.456 33.1428 239.456 35.5229C239.456 37.7514 238.365 39.7829 235.742 39.7829ZM238.198 35.5987C238.198 33.6128 237.319 32.5061 235.788 32.5061C234.984 32.5061 234.317 32.7941 233.877 33.3096C233.514 33.7492 233.271 34.3556 233.271 35.72C233.271 36.9783 233.453 37.5847 233.832 38.0395C234.226 38.4943 234.802 38.7672 235.666 38.7672C237.288 38.7672 238.198 37.524 238.198 35.5987ZM248.227 35.629C248.227 38.4033 246.711 39.7829 244.527 39.7829C242.329 39.7829 240.813 38.3882 240.813 35.629C240.813 32.8851 242.329 31.4752 244.527 31.4752C246.711 31.4752 248.227 32.8699 248.227 35.629ZM242.087 35.629C242.087 37.8879 243.118 38.7368 244.527 38.7368C245.922 38.7368 246.953 37.8879 246.953 35.629C246.953 33.3854 245.922 32.5212 244.527 32.5212C243.118 32.5212 242.087 33.3702 242.087 35.629ZM257.006 35.629C257.006 38.4033 255.49 39.7829 253.307 39.7829C251.108 39.7829 249.592 38.3882 249.592 35.629C249.592 32.8851 251.108 31.4752 253.307 31.4752C255.49 31.4752 257.006 32.8699 257.006 35.629ZM250.866 35.629C250.866 37.8879 251.897 38.7368 253.307 38.7368C254.701 38.7368 255.732 37.8879 255.732 35.629C255.732 33.3854 254.701 32.5212 253.307 32.5212C251.897 32.5212 250.866 33.3702 250.866 35.629ZM265.512 39.6768H264.269V34.5375C264.269 33.1276 263.526 32.5516 262.404 32.5516C261.131 32.5516 259.994 33.4157 259.994 35.2046V39.6768H258.751V31.5813H259.979V32.779C260.494 32.021 261.404 31.4752 262.692 31.4752C264.405 31.4752 265.512 32.5061 265.512 34.113V39.6768ZM271.757 35.2197C271.757 38.0243 273.061 40.6622 273.986 41.9962H272.743C271.742 40.7076 270.469 37.9334 270.469 35.2197C270.469 32.5212 271.742 29.7621 272.743 28.4584H273.986C273.061 29.8076 271.757 32.4151 271.757 35.2197ZM282.548 37.145H281.198V39.6768H279.94V37.145H274.877V35.8564L279.364 29.2012H281.198V36.099H282.548V37.145ZM279.94 36.099V30.2018L275.983 36.099H279.94ZM287.563 29.0193C289.58 29.0193 290.853 30.3382 290.853 31.9452C290.853 33.2944 290.292 34.0979 289.125 35.25L285.759 38.5549H290.883V39.6768H284.198V38.4943L288.261 34.5072C289.079 33.7037 289.595 33.0367 289.595 32.021C289.595 31.0659 289.034 30.1108 287.472 30.1108C285.941 30.1108 285.213 31.0507 285.213 32.5667H283.925C283.925 30.702 284.971 29.0193 287.563 29.0193ZM298.748 36.7964C298.748 35.5532 297.732 35.2955 296.58 35.0226V38.7217C297.596 38.7065 298.748 38.2062 298.748 36.7964ZM300.006 36.6599C300.006 38.3882 298.885 39.6464 296.58 39.7526V41.2989H295.868V39.7677C294.124 39.6919 292.578 38.8278 292.411 36.6296H293.685C293.76 37.7211 294.382 38.5852 295.868 38.7065V34.871C294.291 34.5678 292.608 34.1282 292.608 31.9906C292.608 30.126 294.23 29.186 295.868 29.0799V27.7004H296.58V29.0799C298.43 29.2012 299.733 30.1866 299.855 32.1119H298.627C298.521 30.9294 297.854 30.2624 296.58 30.1563V33.7947C298.202 34.1282 300.006 34.5678 300.006 36.6599ZM293.867 31.9603C293.867 33.067 294.716 33.4157 295.868 33.6431V30.1411C294.609 30.2321 293.867 30.9598 293.867 31.9603ZM308.98 38.6307L311.997 29.0648H313.316L309.829 39.6768H308.071L304.553 29.0648H305.918L308.98 38.6307ZM319.052 36.5235V35.5987C319.052 35.5987 317.293 35.8261 316.399 35.9626C315.535 36.0838 314.837 36.3719 314.837 37.327C314.837 38.1304 315.383 38.7368 316.49 38.7368C318.021 38.7368 319.052 37.8576 319.052 36.5235ZM315.717 35.053C316.49 34.9014 319.052 34.5982 319.052 34.5982V34.1585C319.052 33.0367 318.567 32.5061 317.142 32.5061C315.61 32.5061 315.186 33.2034 315.125 34.0221H313.882C313.882 32.976 314.504 31.4752 317.142 31.4752C319.916 31.4752 320.295 32.9154 320.295 34.204V38.373C320.295 38.752 320.31 39.3584 320.401 39.6768H319.143C319.143 39.6768 319.112 39.2371 319.112 38.5852C318.718 39.1007 317.854 39.7829 316.202 39.7829C314.64 39.7829 313.549 38.8733 313.549 37.3573C313.549 35.6745 314.898 35.2197 315.717 35.053ZM323.639 39.6768H322.396V28.4584H323.639V39.6768ZM325.711 31.5813H326.954V36.766C326.954 38.1759 327.667 38.7368 328.758 38.7368C330.123 38.7368 331.123 37.8727 331.123 36.1748V31.5813H332.366V39.6768H331.138V38.5246C330.669 39.2371 329.82 39.7829 328.44 39.7829C326.666 39.7829 325.711 38.6307 325.711 37.0996V31.5813ZM340.04 36.8873L341.298 36.9025C341.132 38.3275 340.07 39.7829 337.751 39.7829C335.598 39.7829 334.112 38.3882 334.112 35.6442C334.112 33.1276 335.659 31.4752 337.811 31.4752C340.085 31.4752 341.344 33.1731 341.344 35.8413H335.386C335.416 37.3724 336.053 38.7368 337.842 38.7368C339.161 38.7368 339.934 37.9182 340.04 36.8873ZM335.431 34.8559H339.995C339.873 33.1428 338.888 32.5212 337.781 32.5212C336.538 32.5212 335.583 33.355 335.431 34.8559ZM344.548 35.2197C344.548 32.4151 343.26 29.8076 342.335 28.4584H343.563C344.579 29.7621 345.852 32.5212 345.852 35.2197C345.852 37.9334 344.579 40.7076 343.563 41.9962H342.335C343.26 40.6622 344.548 38.0243 344.548 35.2197Z" fill="#322D2D"/>
<path fill-rule="evenodd" clip-rule="evenodd" d="M12.2978 54.5603C12.5774 54.8049 12.6028 55.2311 12.3541 55.5071L5.35385 63.2769C5.10388 63.5544 4.67469 63.572 4.40279 63.3161L0.35199 59.5026C0.0993685 59.2648 0.0751864 58.8685 0.291927 58.5976C0.531086 58.2986 0.976452 58.2575 1.26108 58.5135L4.40396 61.3404C4.67709 61.5861 5.09759 61.5641 5.34367 61.2914L11.3649 54.6154C11.6085 54.3452 12.0241 54.3207 12.2978 54.5603Z" fill="#322D2D"/>
<path d="M26.8711 55.199H21.5954V58.0036H26.5073V59.8986H21.5954V63.9463H19.5034V53.3343H26.8711V55.199ZM32.8922 57.7004H32.3162C30.9972 57.7004 30.2089 58.2006 30.2089 59.5196V63.9463H28.1623V55.6386H30.1331V56.8666C30.5121 56.1086 31.2853 55.6386 32.2858 55.6386H32.8922V57.7004ZM35.6221 58.7919H39.1089C39.0483 57.6549 38.2751 57.2152 37.4413 57.2152C36.4862 57.2152 35.7282 57.8065 35.6221 58.7919ZM37.3807 64.0524C35.0612 64.0524 33.4239 62.6577 33.4239 59.8379C33.4239 57.0182 35.1825 55.5325 37.4565 55.5325C39.9579 55.5325 41.2768 57.3668 41.2768 59.8228C41.2768 59.9137 41.2768 60.2624 41.2768 60.2624H35.5463C35.5463 61.2023 35.9253 62.3545 37.4261 62.3545C38.2448 62.3545 38.9118 61.9452 39.0786 61.172L41.1555 61.2175C40.8978 62.8699 39.5789 64.0524 37.3807 64.0524ZM44.3865 58.7919H47.8733C47.8126 57.6549 47.0395 57.2152 46.2057 57.2152C45.2506 57.2152 44.4926 57.8065 44.3865 58.7919ZM46.145 64.0524C43.8256 64.0524 42.1883 62.6577 42.1883 59.8379C42.1883 57.0182 43.9468 55.5325 46.2208 55.5325C48.7222 55.5325 50.0412 57.3668 50.0412 59.8228C50.0412 59.9137 50.0412 60.2624 50.0412 60.2624H44.3107C44.3107 61.2023 44.6897 62.3545 46.1905 62.3545C47.0092 62.3545 47.6762 61.9452 47.843 61.172L49.9199 61.2175C49.6622 62.8699 48.3432 64.0524 46.145 64.0524ZM58.6079 53.2736C60.9273 53.2736 61.7308 54.8351 61.7611 56.0479H60.4574C60.4271 55.2748 60.0481 54.35 58.5624 54.35C56.349 54.35 55.9094 56.7756 55.8184 58.7161C56.3642 57.8065 57.3041 57.2152 58.623 57.2152C60.4422 57.2152 61.9279 58.4887 61.9279 60.5504C61.9279 62.5516 60.5332 64.113 58.2743 64.113C55.7578 64.113 54.4843 62.2029 54.4843 59.1557C54.4843 57.8671 54.6663 56.4876 55.2272 55.3809C55.8487 54.1529 56.8948 53.2736 58.6079 53.2736ZM60.6393 60.6111C60.6393 59.1709 59.851 58.2764 58.4563 58.2764C57.1222 58.2764 56.1368 59.2012 56.1368 60.6262C56.1368 62.0513 56.9706 63.0064 58.3501 63.0064C59.7145 63.0064 60.6393 62.0664 60.6393 60.6111ZM67.2283 53.2736C68.8959 53.2736 70.8667 54.2742 70.8667 58.6858C70.8667 63.1276 68.8959 64.113 67.2283 64.113C65.5607 64.113 63.5899 63.1276 63.5899 58.6858C63.5899 54.2742 65.5607 53.2736 67.2283 53.2736ZM67.2283 63.0215C68.3047 63.0215 69.5175 62.3696 69.5175 58.6858C69.5175 55.017 68.3047 54.3803 67.2283 54.3803C66.152 54.3803 64.924 55.017 64.924 58.6858C64.924 62.3696 66.152 63.0215 67.2283 63.0215ZM84.7503 58.4887C84.7503 61.2326 83.4769 63.9463 79.884 63.9463H76.0182V53.3343H80.1872C82.5976 53.3343 84.7503 54.9109 84.7503 58.4887ZM83.4163 58.5645C83.4163 55.396 81.688 54.4713 79.8385 54.4713H77.3068V62.8093H79.7475C81.3545 62.8093 83.4163 62.0513 83.4163 58.5645ZM91.6962 60.793V59.8682C91.6962 59.8682 89.9377 60.0956 89.0432 60.2321C88.1791 60.3534 87.4817 60.6414 87.4817 61.5965C87.4817 62.4 88.0275 63.0064 89.1342 63.0064C90.6653 63.0064 91.6962 62.1271 91.6962 60.793ZM88.361 59.3225C89.1342 59.1709 91.6962 58.8677 91.6962 58.8677V58.428C91.6962 57.3062 91.2111 56.7756 89.7861 56.7756C88.2549 56.7756 87.8304 57.473 87.7698 58.2916H86.5267C86.5267 57.2456 87.1482 55.7447 89.7861 55.7447C92.5603 55.7447 92.9393 57.1849 92.9393 58.4735V62.6425C92.9393 63.0215 92.9545 63.6279 93.0455 63.9463H91.7872C91.7872 63.9463 91.7569 63.5066 91.7569 62.8548C91.3627 63.3702 90.4986 64.0524 88.8461 64.0524C87.2847 64.0524 86.1931 63.1428 86.1931 61.6268C86.1931 59.944 87.5424 59.4892 88.361 59.3225ZM99.9009 55.8508H101.205L97.7785 65.25C97.4298 66.2051 96.9901 66.857 95.8228 66.857H94.4281V65.811H95.4741C96.3534 65.811 96.4899 65.341 96.8992 64.0676L93.8975 55.8508H95.2619L97.5814 62.5667L99.9009 55.8508ZM107.22 58.0642C107.16 57.0788 106.341 56.7908 105.356 56.7908C104.491 56.7908 103.415 57.0636 103.415 58.0187C103.415 60.0805 108.721 58.1855 108.721 61.4904C108.721 62.597 108.069 64.0524 105.249 64.0524C103.066 64.0524 102.066 62.9457 102.005 61.4752H103.37C103.4 62.3696 103.961 63.0064 105.401 63.0064C107.069 63.0064 107.463 62.2938 107.463 61.5662C107.463 60.035 104.658 60.6717 103.127 59.8228C102.566 59.5044 102.172 59.0041 102.172 58.0945C102.172 56.6846 103.415 55.7447 105.371 55.7447C107.781 55.7447 108.494 57.1394 108.539 58.0642H107.22ZM121.321 60.9446C121.321 62.8244 119.987 64.113 117.197 64.113C115.136 64.113 113.301 63.2338 113.271 60.8385H114.666C114.666 62.2332 115.59 63.0215 117.303 63.0215C118.44 63.0215 120.032 62.597 120.032 61.0659C120.032 58.049 113.483 60.3534 113.483 56.1237C113.483 54.0923 115.454 53.1675 117.288 53.1675C119.532 53.1675 121.063 54.1832 121.154 56.3056H119.79C119.729 55.0928 119.092 54.2439 117.288 54.2439C115.757 54.2439 114.787 54.9564 114.787 56.0631C114.787 56.7604 115.166 57.1849 115.742 57.4578C117.561 58.3219 121.321 57.8671 121.321 60.9446ZM122.946 55.8508H124.189V61.0356C124.189 62.4454 124.902 63.0064 125.993 63.0064C127.358 63.0064 128.358 62.1422 128.358 60.4443V55.8508H129.601V63.9463H128.373V62.7941C127.904 63.5066 127.055 64.0524 125.675 64.0524C123.901 64.0524 122.946 62.9002 122.946 61.3691V55.8508ZM135.425 64.0524C134 64.0524 133.258 63.4308 132.97 63.067V66.857H131.726V55.8508H132.97V56.9878C133.485 56.2753 134.455 55.7447 135.623 55.7447C137.942 55.7447 139.14 57.4123 139.14 59.7924C139.14 62.021 138.048 64.0524 135.425 64.0524ZM137.881 59.8682C137.881 57.8823 137.002 56.7756 135.471 56.7756C134.667 56.7756 134 57.0636 133.561 57.5791C133.197 58.0187 132.954 58.6251 132.954 59.9895C132.954 61.2478 133.136 61.8542 133.515 62.309C133.909 62.7638 134.486 63.0367 135.35 63.0367C136.972 63.0367 137.881 61.7936 137.881 59.8682ZM144.575 64.0524C143.15 64.0524 142.407 63.4308 142.119 63.067V66.857H140.876V55.8508H142.119V56.9878C142.634 56.2753 143.605 55.7447 144.772 55.7447C147.091 55.7447 148.289 57.4123 148.289 59.7924C148.289 62.021 147.197 64.0524 144.575 64.0524ZM147.031 59.8682C147.031 57.8823 146.151 56.7756 144.62 56.7756C143.817 56.7756 143.15 57.0636 142.71 57.5791C142.346 58.0187 142.104 58.6251 142.104 59.9895C142.104 61.2478 142.286 61.8542 142.665 62.309C143.059 62.7638 143.635 63.0367 144.499 63.0367C146.121 63.0367 147.031 61.7936 147.031 59.8682ZM151.268 63.9463H150.025V52.7279H151.268V63.9463ZM158.631 55.8508H159.935L156.509 65.25C156.16 66.2051 155.72 66.857 154.553 66.857H153.158V65.811H154.204C155.084 65.811 155.22 65.341 155.629 64.0676L152.628 55.8508H153.992L156.312 62.5667L158.631 55.8508ZM168.795 53.1675C171.478 53.1675 173.403 55.1686 173.403 58.6554C173.403 62.1422 171.478 64.113 168.795 64.113C166.111 64.113 164.186 62.1422 164.186 58.6554C164.186 55.1686 166.111 53.1675 168.795 53.1675ZM168.795 62.9609C170.781 62.9609 172.039 61.4297 172.039 58.6554C172.039 55.8357 170.781 54.3348 168.795 54.3348C166.809 54.3348 165.55 55.8357 165.55 58.6554C165.55 61.4297 166.809 62.9609 168.795 62.9609ZM178.94 56.8969H177.061V63.9463H175.817V56.8969H174.392V55.8508H175.817V54.4864C175.817 53.3343 176.53 52.6369 177.803 52.6369C178.334 52.6369 179.046 52.6672 179.046 52.6672V53.7436C178.971 53.7284 178.364 53.7133 178.152 53.7133C177.5 53.7133 177.061 53.7891 177.061 54.638V55.8508H178.94V56.8969ZM189.005 61.0507H184.775L183.85 63.9463H182.531L186.033 53.3343H187.777L191.294 63.9463H189.929L189.005 61.0507ZM188.656 59.9289L186.882 54.3803L185.124 59.9289H188.656ZM193.832 63.9463H192.588V52.7279H193.832V63.9463ZM196.844 59.9289C196.844 62.1422 197.92 63.0064 199.269 63.0064C200.467 63.0064 201.316 62.3242 201.437 61.0962H202.695C202.468 63.0518 201.058 64.0524 199.178 64.0524C197.026 64.0524 195.57 62.6728 195.57 59.9289C195.57 57.1698 197.192 55.7447 199.3 55.7447C201.149 55.7447 202.453 56.7453 202.665 58.6403H201.407C201.24 57.3365 200.406 56.7908 199.3 56.7908C197.92 56.7908 196.844 57.6852 196.844 59.9289ZM209.556 60.793V59.8682C209.556 59.8682 207.798 60.0956 206.903 60.2321C206.039 60.3534 205.342 60.6414 205.342 61.5965C205.342 62.4 205.888 63.0064 206.994 63.0064C208.525 63.0064 209.556 62.1271 209.556 60.793ZM206.221 59.3225C206.994 59.1709 209.556 58.8677 209.556 58.8677V58.428C209.556 57.3062 209.071 56.7756 207.646 56.7756C206.115 56.7756 205.691 57.473 205.63 58.2916H204.387C204.387 57.2456 205.008 55.7447 207.646 55.7447C210.42 55.7447 210.799 57.1849 210.799 58.4735V62.6425C210.799 63.0215 210.815 63.6279 210.906 63.9463H209.647C209.647 63.9463 209.617 63.5066 209.617 62.8548C209.223 63.3702 208.359 64.0524 206.706 64.0524C205.145 64.0524 204.053 63.1428 204.053 61.6268C204.053 59.944 205.402 59.4892 206.221 59.3225ZM221.42 55.7447C223.194 55.7447 224.134 56.8362 224.134 58.4129V63.9463H222.891V58.7767C222.891 57.4881 222.33 56.8211 221.208 56.8211C219.995 56.8211 219.131 57.67 219.131 59.2922V63.9463H217.888V58.7767C217.888 57.5336 217.388 56.8211 216.236 56.8211C214.977 56.8211 214.144 57.6852 214.144 59.3831V63.9463H212.901V55.8508H214.129V56.912C214.583 56.1844 215.432 55.7447 216.509 55.7447C217.676 55.7447 218.51 56.336 218.828 57.1698C219.404 56.1692 220.374 55.7447 221.42 55.7447ZM227.453 54.2439H226.21V52.7279H227.453V54.2439ZM227.453 63.9463H226.21V55.8508H227.453V63.9463ZM240.425 60.9446C240.425 62.8244 239.09 64.113 236.301 64.113C234.239 64.113 232.405 63.2338 232.375 60.8385H233.769C233.769 62.2332 234.694 63.0215 236.407 63.0215C237.544 63.0215 239.136 62.597 239.136 61.0659C239.136 58.049 232.587 60.3534 232.587 56.1237C232.587 54.0923 234.558 53.1675 236.392 53.1675C238.636 53.1675 240.167 54.1832 240.258 56.3056H238.893C238.833 55.0928 238.196 54.2439 236.392 54.2439C234.861 54.2439 233.891 54.9564 233.891 56.0631C233.891 56.7604 234.27 57.1849 234.846 57.4578C236.665 58.3219 240.425 57.8671 240.425 60.9446ZM248.857 63.9463H247.614V58.807C247.614 57.4123 246.84 56.8211 245.749 56.8211C244.475 56.8211 243.338 57.6852 243.338 59.4741V63.9463H242.095V52.7279H243.338V57.0485C243.839 56.2905 244.748 55.7447 246.037 55.7447C247.765 55.7447 248.857 56.7756 248.857 58.3826V63.9463ZM252.177 54.2439H250.934V52.7279H252.177V54.2439ZM252.177 63.9463H250.934V55.8508H252.177V63.9463ZM255.538 63.9463H254.294V52.7279H255.538V63.9463ZM262.779 60.793V59.8682C262.779 59.8682 261.021 60.0956 260.126 60.2321C259.262 60.3534 258.565 60.6414 258.565 61.5965C258.565 62.4 259.11 63.0064 260.217 63.0064C261.748 63.0064 262.779 62.1271 262.779 60.793ZM259.444 59.3225C260.217 59.1709 262.779 58.8677 262.779 58.8677V58.428C262.779 57.3062 262.294 56.7756 260.869 56.7756C259.338 56.7756 258.913 57.473 258.853 58.2916H257.61C257.61 57.2456 258.231 55.7447 260.869 55.7447C263.643 55.7447 264.022 57.1849 264.022 58.4735V62.6425C264.022 63.0215 264.037 63.6279 264.128 63.9463H262.87C262.87 63.9463 262.84 63.5066 262.84 62.8548C262.446 63.3702 261.582 64.0524 259.929 64.0524C258.368 64.0524 257.276 63.1428 257.276 61.6268C257.276 59.944 258.625 59.4892 259.444 59.3225ZM267.366 55.8508V64.8862C267.366 66.1293 267.094 66.857 265.562 66.857C265.214 66.857 264.759 66.8418 264.668 66.8267V65.811C264.668 65.811 265.047 65.8413 265.274 65.8413C265.987 65.8413 266.123 65.6745 266.123 64.9772V55.8508H267.366ZM267.366 54.2439H266.123V52.7279H267.366V54.2439ZM270.727 54.2439H269.484V52.7279H270.727V54.2439ZM270.727 63.9463H269.484V55.8508H270.727V63.9463ZM276.726 63.9008C276.726 63.9008 276.104 63.9918 275.316 63.9918C273.951 63.9918 273.497 63.4157 273.497 62.0664V56.8969H272.163V55.8508H273.497V53.3343H274.74V55.8508H276.832V56.8969H274.74V61.7481C274.74 62.779 274.967 62.9154 275.786 62.9154C276.013 62.9154 276.65 62.8699 276.726 62.8699V63.9008ZM282.52 59.4892C282.52 62.2938 283.824 64.9317 284.749 66.2658H283.506C282.505 64.9772 281.232 62.2029 281.232 59.4892C281.232 56.7908 282.505 54.0316 283.506 52.7279H284.749C283.824 54.0771 282.52 56.6846 282.52 59.4892ZM292.219 61.0659C292.219 59.8228 291.203 59.565 290.051 59.2922V62.9912C291.067 62.976 292.219 62.4758 292.219 61.0659ZM293.477 60.9294C293.477 62.6577 292.356 63.916 290.051 64.0221V65.5684H289.339V64.0372C287.595 63.9614 286.049 63.0973 285.882 60.8991H287.156C287.232 61.9906 287.853 62.8548 289.339 62.976V59.1406C287.762 58.8374 286.079 58.3977 286.079 56.2602C286.079 54.3955 287.702 53.4556 289.339 53.3494V51.9699H290.051V53.3494C291.901 53.4707 293.205 54.4561 293.326 56.3814H292.098C291.992 55.199 291.325 54.5319 290.051 54.4258V58.0642C291.673 58.3977 293.477 58.8374 293.477 60.9294ZM287.338 56.2298C287.338 57.3365 288.187 57.6852 289.339 57.9126V54.4106C288.081 54.5016 287.338 55.2293 287.338 56.2298ZM300.39 54.6077H294.766V53.4859H301.709V54.5016L297.404 63.9463H295.994L300.39 54.6077ZM306.563 53.2736C308.473 53.2736 310.019 54.259 310.019 56.0782C310.019 57.2759 309.337 58.14 308.291 58.4887C309.307 58.7312 310.262 59.6408 310.262 61.0507C310.262 62.976 308.761 64.113 306.563 64.113C304.364 64.113 302.848 62.976 302.848 61.0507C302.848 59.6408 303.819 58.7312 304.819 58.4887C303.788 58.14 303.091 57.2759 303.091 56.0782C303.091 54.259 304.637 53.2736 306.563 53.2736ZM306.563 63.0215C308.048 63.0215 308.958 62.2029 308.958 61.0052C308.958 59.8076 308.109 59.0193 306.563 59.0193C305.001 59.0193 304.152 59.8076 304.152 61.0052C304.152 62.2029 305.062 63.0215 306.563 63.0215ZM306.563 57.9884C307.927 57.9884 308.806 57.3214 308.806 56.1389C308.806 54.9412 307.866 54.3652 306.563 54.3652C305.244 54.3652 304.304 54.9412 304.304 56.1389C304.304 57.3214 305.198 57.9884 306.563 57.9884ZM319.003 62.9002L322.02 53.3343H323.339L319.852 63.9463H318.093L314.576 53.3343H315.941L319.003 62.9002ZM329.075 60.793V59.8682C329.075 59.8682 327.316 60.0956 326.422 60.2321C325.557 60.3534 324.86 60.6414 324.86 61.5965C324.86 62.4 325.406 63.0064 326.513 63.0064C328.044 63.0064 329.075 62.1271 329.075 60.793ZM325.739 59.3225C326.513 59.1709 329.075 58.8677 329.075 58.8677V58.428C329.075 57.3062 328.589 56.7756 327.164 56.7756C325.633 56.7756 325.209 57.473 325.148 58.2916H323.905C323.905 57.2456 324.527 55.7447 327.164 55.7447C329.939 55.7447 330.318 57.1849 330.318 58.4735V62.6425C330.318 63.0215 330.333 63.6279 330.424 63.9463H329.166C329.166 63.9463 329.135 63.5066 329.135 62.8548C328.741 63.3702 327.877 64.0524 326.224 64.0524C324.663 64.0524 323.571 63.1428 323.571 61.6268C323.571 59.944 324.921 59.4892 325.739 59.3225ZM333.662 63.9463H332.419V52.7279H333.662V63.9463ZM335.734 55.8508H336.977V61.0356C336.977 62.4454 337.69 63.0064 338.781 63.0064C340.146 63.0064 341.146 62.1422 341.146 60.4443V55.8508H342.389V63.9463H341.161V62.7941C340.691 63.5066 339.842 64.0524 338.463 64.0524C336.689 64.0524 335.734 62.9002 335.734 61.3691V55.8508ZM350.063 61.1568L351.321 61.172C351.154 62.597 350.093 64.0524 347.774 64.0524C345.621 64.0524 344.135 62.6577 344.135 59.9137C344.135 57.3972 345.682 55.7447 347.834 55.7447C350.108 55.7447 351.367 57.4426 351.367 60.1108H345.409C345.439 61.642 346.076 63.0064 347.865 63.0064C349.183 63.0064 349.957 62.1877 350.063 61.1568ZM345.454 59.1254H350.017C349.896 57.4123 348.911 56.7908 347.804 56.7908C346.561 56.7908 345.606 57.6246 345.454 59.1254ZM354.571 59.4892C354.571 56.6846 353.282 54.0771 352.358 52.7279H353.586C354.601 54.0316 355.875 56.7908 355.875 59.4892C355.875 62.2029 354.601 64.9772 353.586 66.2658H352.358C353.282 64.9317 354.571 62.2938 354.571 59.4892Z" fill="#322D2D"/>
<path fill-rule="evenodd" clip-rule="evenodd" d="M12.2978 78.8318C12.5774 79.0764 12.6028 79.5026 12.3541 79.7786L5.35385 87.5484C5.10388 87.8259 4.67469 87.8435 4.40279 87.5876L0.35199 83.7741C0.0993685 83.5363 0.0751864 83.14 0.291927 82.8691C0.531086 82.5701 0.976452 82.529 1.26108 82.785L4.40396 85.6119C4.67709 85.8576 5.09759 85.8356 5.34367 85.5628L11.3649 78.8868C11.6085 78.6167 12.0241 78.5922 12.2978 78.8318Z" fill="#322D2D"/>
<path d="M19.473 83.7607L19.8066 77.6967H26.5073V79.5008H21.4893L21.3529 81.7899C21.6409 81.4716 22.3989 81.0319 23.4904 81.0319C25.7038 81.0319 27.0076 82.5025 27.0076 84.4884C27.0076 86.7473 25.6886 88.3694 22.975 88.3694C20.0036 88.3694 19.2305 86.2621 19.2002 85.2161H21.3074C21.3832 85.8831 21.8986 86.6715 23.0356 86.6715C24.2788 86.6715 24.961 85.8528 24.961 84.64C24.961 83.503 24.3242 82.7147 23.1418 82.7147C21.9896 82.7147 21.5348 83.4424 21.3832 83.8214L19.473 83.7607ZM32.0686 88.3845C30.3707 88.3845 28.1422 87.4598 28.1422 82.9724C28.1422 78.4851 30.3707 77.5451 32.0686 77.5451C33.7665 77.5451 35.9951 78.4851 35.9951 82.9724C35.9951 87.4598 33.7665 88.3845 32.0686 88.3845ZM32.0686 79.2885C31.1893 79.2885 30.2646 79.8646 30.2646 82.9724C30.2646 86.0954 31.1893 86.6411 32.0686 86.6411C32.9479 86.6411 33.8727 86.0954 33.8727 82.9724C33.8727 79.8646 32.9479 79.2885 32.0686 79.2885ZM47.754 77.6513L40.6136 88.2178H38.9915L46.1167 77.6513H47.754ZM40.0224 83.3817C39.1583 83.3817 37.43 83.0331 37.43 80.4862C37.43 77.9848 39.1583 77.6058 40.0224 77.6058C40.9017 77.6058 42.6299 77.9848 42.6299 80.4862C42.6299 83.0331 40.9017 83.3817 40.0224 83.3817ZM40.0224 78.8489C39.4008 78.8489 38.9612 79.3795 38.9612 80.4862C38.9612 81.7293 39.4008 82.1386 40.0224 82.1386C40.6591 82.1386 41.0836 81.7293 41.0836 80.4862C41.0836 79.3795 40.6591 78.8489 40.0224 78.8489ZM46.6473 88.3239C45.7832 88.3239 44.055 87.9601 44.055 85.4283C44.055 82.9118 45.7832 82.5479 46.6473 82.5479C47.5266 82.5479 49.2548 82.9118 49.2548 85.4283C49.2548 87.9601 47.5266 88.3239 46.6473 88.3239ZM46.6473 83.7911C46.0258 83.7911 45.6013 84.2913 45.6013 85.4283C45.6013 86.6563 46.0258 87.0808 46.6473 87.0808C47.284 87.0808 47.7085 86.6563 47.7085 85.4283C47.7085 84.2913 47.284 83.7911 46.6473 83.7911ZM63.4084 82.9269C63.4084 86.3834 61.3011 88.3845 58.6026 88.3845C55.889 88.3845 53.7969 86.3834 53.7969 82.9269C53.7969 79.4856 55.889 77.439 58.6026 77.439C61.3011 77.439 63.4084 79.4856 63.4084 82.9269ZM61.195 82.9269C61.195 80.5771 60.2096 79.2885 58.6026 79.2885C56.9805 79.2885 56.0103 80.5771 56.0103 82.9269C56.0103 85.1403 56.9805 86.535 58.6026 86.535C60.2096 86.535 61.195 85.1403 61.195 82.9269ZM72.2179 79.4705H66.9422V82.2751H71.854V84.1701H66.9422V88.2178H64.8501V77.6058H72.2179V79.4705ZM81.1007 79.4705H75.825V82.2751H80.7368V84.1701H75.825V88.2178H73.7329V77.6058H81.1007V79.4705ZM93.6213 85.2161C93.6213 87.0959 92.2872 88.3845 89.4978 88.3845C87.436 88.3845 85.6017 87.5053 85.5713 85.11H86.9661C86.9661 86.5047 87.8908 87.293 89.6039 87.293C90.7409 87.293 92.3327 86.8685 92.3327 85.3374C92.3327 82.3205 85.7836 84.6249 85.7836 80.3952C85.7836 78.3638 87.7544 77.439 89.5887 77.439C91.8324 77.439 93.3636 78.4547 93.4545 80.5771H92.0901C92.0295 79.3643 91.3928 78.5154 89.5887 78.5154C88.0576 78.5154 87.0873 79.2279 87.0873 80.3346C87.0873 81.0319 87.4663 81.4564 88.0424 81.7293C89.8616 82.5934 93.6213 82.1386 93.6213 85.2161ZM102.053 88.2178H100.81V83.0785C100.81 81.6838 100.037 81.0926 98.9457 81.0926C97.6722 81.0926 96.5352 81.9567 96.5352 83.7456V88.2178H95.2921V76.9994H96.5352V81.32C97.0355 80.562 97.9451 80.0162 99.2337 80.0162C100.962 80.0162 102.053 81.0471 102.053 82.6541V88.2178ZM105.374 78.5154H104.13V76.9994H105.374V78.5154ZM105.374 88.2178H104.13V80.1223H105.374V88.2178ZM111.19 88.3239C109.765 88.3239 109.022 87.7023 108.734 87.3385V91.1285H107.491V80.1223H108.734V81.2593C109.25 80.5468 110.22 80.0162 111.387 80.0162C113.707 80.0162 114.904 81.6838 114.904 84.0639C114.904 86.2925 113.813 88.3239 111.19 88.3239ZM113.646 84.1397C113.646 82.1538 112.767 81.0471 111.236 81.0471C110.432 81.0471 109.765 81.3351 109.326 81.8506C108.962 82.2902 108.719 82.8966 108.719 84.261C108.719 85.5193 108.901 86.1257 109.28 86.5805C109.674 87.0353 110.25 87.3082 111.114 87.3082C112.737 87.3082 113.646 86.0651 113.646 84.1397ZM120.339 88.3239C118.914 88.3239 118.172 87.7023 117.884 87.3385V91.1285H116.64V80.1223H117.884V81.2593C118.399 80.5468 119.369 80.0162 120.537 80.0162C122.856 80.0162 124.054 81.6838 124.054 84.0639C124.054 86.2925 122.962 88.3239 120.339 88.3239ZM122.795 84.1397C122.795 82.1538 121.916 81.0471 120.385 81.0471C119.581 81.0471 118.914 81.3351 118.475 81.8506C118.111 82.2902 117.868 82.8966 117.868 84.261C117.868 85.5193 118.05 86.1257 118.429 86.5805C118.823 87.0353 119.4 87.3082 120.264 87.3082C121.886 87.3082 122.795 86.0651 122.795 84.1397ZM127.033 78.5154H125.79V76.9994H127.033V78.5154ZM127.033 88.2178H125.79V80.1223H127.033V88.2178ZM135.912 88.2178H134.669V83.0785C134.669 81.6687 133.926 81.0926 132.804 81.0926C131.531 81.0926 130.394 81.9567 130.394 83.7456V88.2178H129.15V80.1223H130.378V81.32C130.894 80.562 131.803 80.0162 133.092 80.0162C134.805 80.0162 135.912 81.0471 135.912 82.6541V88.2178ZM144.796 80.1223V88.1723C144.796 89.7338 143.932 91.2346 141.081 91.2346C138.959 91.2346 137.777 90.3857 137.731 88.5968H138.989C138.989 89.5215 139.581 90.2037 141.157 90.2037C142.976 90.2037 143.553 89.3699 143.553 88.0359V86.7776C143.204 87.2779 142.4 87.8994 141.021 87.8994C139.111 87.8994 137.61 86.6108 137.61 83.9881C137.61 81.2139 139.384 80.0162 141.127 80.0162C142.355 80.0162 143.098 80.4255 143.568 81.0016V80.1223H144.796ZM143.553 83.8669C143.553 81.8506 142.825 81.0471 141.294 81.0471C139.929 81.0471 138.868 81.9415 138.868 83.9427C138.868 86.0802 139.899 86.8382 141.188 86.8382C142.643 86.8382 143.553 85.9286 143.553 83.8669ZM151.084 83.7607C151.084 86.5653 152.388 89.2032 153.313 90.5373H152.07C151.069 89.2487 149.796 86.4744 149.796 83.7607C149.796 81.0623 151.069 78.3031 152.07 76.9994H153.313C152.388 78.3486 151.084 80.9561 151.084 83.7607ZM158.979 77.439C161.662 77.439 163.588 79.4401 163.588 82.9269C163.588 86.4137 161.662 88.3845 158.979 88.3845C156.296 88.3845 154.371 86.4137 154.371 82.9269C154.371 79.4401 156.296 77.439 158.979 77.439ZM158.979 87.2324C160.965 87.2324 162.223 85.7012 162.223 82.9269C162.223 80.1072 160.965 78.6063 158.979 78.6063C156.993 78.6063 155.735 80.1072 155.735 82.9269C155.735 85.7012 156.993 87.2324 158.979 87.2324ZM168.988 88.2178H167.381L164.501 80.1223H165.835L168.2 87.0505L170.595 80.1223H171.914L168.988 88.2178ZM178.536 85.4283L179.794 85.4435C179.627 86.8685 178.566 88.3239 176.247 88.3239C174.094 88.3239 172.608 86.9292 172.608 84.1852C172.608 81.6687 174.154 80.0162 176.307 80.0162C178.581 80.0162 179.839 81.7141 179.839 84.3823H173.882C173.912 85.9135 174.549 87.2779 176.337 87.2779C177.656 87.2779 178.43 86.4592 178.536 85.4283ZM173.927 83.3969H178.49C178.369 81.6838 177.384 81.0623 176.277 81.0623C175.034 81.0623 174.079 81.8961 173.927 83.3969ZM185.849 81.3958H185.303C183.847 81.3958 182.832 81.8961 182.832 83.8062V88.2178H181.589V80.1223H182.817V81.5171C183.347 80.4862 184.424 80.1223 185.273 80.1223H185.849V81.3958ZM196.581 85.3374C196.581 84.0943 195.565 83.8365 194.413 83.5637V87.2627C195.429 87.2475 196.581 86.7473 196.581 85.3374ZM197.839 85.2009C197.839 86.9292 196.717 88.1875 194.413 88.2936V89.8399H193.701V88.3087C191.957 88.2329 190.411 87.3688 190.244 85.1706H191.517C191.593 86.2621 192.215 87.1263 193.701 87.2475V83.4121C192.124 83.1089 190.441 82.6692 190.441 80.5317C190.441 78.667 192.063 77.7271 193.701 77.6209V76.2414H194.413V77.6209C196.263 77.7422 197.566 78.7276 197.688 80.6529H196.46C196.354 79.4705 195.686 78.8034 194.413 78.6973V82.3357C196.035 82.6692 197.839 83.1089 197.839 85.2009ZM191.699 80.5013C191.699 81.608 192.548 81.9567 193.701 82.1841V78.6821C192.442 78.7731 191.699 79.5008 191.699 80.5013ZM204.752 78.8792H199.127V77.7574H206.071V78.7731L201.765 88.2178H200.355L204.752 78.8792ZM211.182 84.1094H206.831V83.0179H211.182V84.1094ZM219.41 85.3374C219.41 84.0943 218.394 83.8365 217.242 83.5637V87.2627C218.258 87.2475 219.41 86.7473 219.41 85.3374ZM220.668 85.2009C220.668 86.9292 219.546 88.1875 217.242 88.2936V89.8399H216.529V88.3087C214.786 88.2329 213.24 87.3688 213.073 85.1706H214.346C214.422 86.2621 215.044 87.1263 216.529 87.2475V83.4121C214.953 83.1089 213.27 82.6692 213.27 80.5317C213.27 78.667 214.892 77.7271 216.529 77.6209V76.2414H217.242V77.6209C219.091 77.7422 220.395 78.7276 220.516 80.6529H219.288C219.182 79.4705 218.515 78.8034 217.242 78.6973V82.3357C218.864 82.6692 220.668 83.1089 220.668 85.2009ZM214.528 80.5013C214.528 81.608 215.377 81.9567 216.529 82.1841V78.6821C215.271 78.7731 214.528 79.5008 214.528 80.5013ZM223.912 77.7422H225.11V88.2178H223.821V80.0162H222.259V78.9247H222.775C223.654 78.9247 223.882 78.6973 223.912 77.7422ZM230.953 77.5451C232.621 77.5451 234.592 78.5457 234.592 82.9573C234.592 87.3991 232.621 88.3845 230.953 88.3845C229.286 88.3845 227.315 87.3991 227.315 82.9573C227.315 78.5457 229.286 77.5451 230.953 77.5451ZM230.953 87.293C232.03 87.293 233.243 86.6411 233.243 82.9573C233.243 79.2885 232.03 78.6518 230.953 78.6518C229.877 78.6518 228.649 79.2885 228.649 82.9573C228.649 86.6411 229.877 87.293 230.953 87.293ZM241.032 77.6058V88.2178H239.743V77.6058H241.032ZM249.997 88.2178H248.754V83.0785C248.754 81.6687 248.011 81.0926 246.889 81.0926C245.615 81.0926 244.478 81.9567 244.478 83.7456V88.2178H243.235V80.1223H244.463V81.32C244.979 80.562 245.888 80.0162 247.177 80.0162C248.89 80.0162 249.997 81.0471 249.997 82.6541V88.2178ZM262.928 85.2161C262.928 87.0959 261.594 88.3845 258.804 88.3845C256.742 88.3845 254.908 87.5053 254.878 85.11H256.272C256.272 86.5047 257.197 87.293 258.91 87.293C260.047 87.293 261.639 86.8685 261.639 85.3374C261.639 82.3205 255.09 84.6249 255.09 80.3952C255.09 78.3638 257.061 77.439 258.895 77.439C261.139 77.439 262.67 78.4547 262.761 80.5771H261.397C261.336 79.3643 260.699 78.5154 258.895 78.5154C257.364 78.5154 256.394 79.2279 256.394 80.3346C256.394 81.0319 256.773 81.4564 257.349 81.7293C259.168 82.5934 262.928 82.1386 262.928 85.2161ZM269.723 85.0645V84.1397C269.723 84.1397 267.964 84.3671 267.07 84.5036C266.205 84.6249 265.508 84.9129 265.508 85.868C265.508 86.6715 266.054 87.2779 267.161 87.2779C268.692 87.2779 269.723 86.3986 269.723 85.0645ZM266.387 83.594C267.161 83.4424 269.723 83.1392 269.723 83.1392V82.6995C269.723 81.5777 269.237 81.0471 267.812 81.0471C266.281 81.0471 265.857 81.7445 265.796 82.5631H264.553C264.553 81.5171 265.175 80.0162 267.812 80.0162C270.587 80.0162 270.966 81.4564 270.966 82.745V86.914C270.966 87.293 270.981 87.8994 271.072 88.2178H269.814C269.814 88.2178 269.783 87.7781 269.783 87.1263C269.389 87.6417 268.525 88.3239 266.872 88.3239C265.311 88.3239 264.219 87.4143 264.219 85.8983C264.219 84.2155 265.569 83.7607 266.387 83.594ZM276.5 88.2178H274.893L272.013 80.1223H273.347L275.712 87.0505L278.107 80.1223H279.426L276.5 88.2178ZM282.038 78.5154H280.795V76.9994H282.038V78.5154ZM282.038 88.2178H280.795V80.1223H282.038V88.2178ZM290.917 88.2178H289.674V83.0785C289.674 81.6687 288.931 81.0926 287.809 81.0926C286.536 81.0926 285.399 81.9567 285.399 83.7456V88.2178H284.155V80.1223H285.383V81.32C285.899 80.562 286.808 80.0162 288.097 80.0162C289.81 80.0162 290.917 81.0471 290.917 82.6541V88.2178ZM299.801 80.1223V88.1723C299.801 89.7338 298.937 91.2346 296.087 91.2346C293.964 91.2346 292.782 90.3857 292.736 88.5968H293.994C293.994 89.5215 294.586 90.2037 296.162 90.2037C297.982 90.2037 298.558 89.3699 298.558 88.0359V86.7776C298.209 87.2779 297.405 87.8994 296.026 87.8994C294.116 87.8994 292.615 86.6108 292.615 83.9881C292.615 81.2139 294.389 80.0162 296.132 80.0162C297.36 80.0162 298.103 80.4255 298.573 81.0016V80.1223H299.801ZM298.558 83.8669C298.558 81.8506 297.83 81.0471 296.299 81.0471C294.934 81.0471 293.873 81.9415 293.873 83.9427C293.873 86.0802 294.904 86.8382 296.193 86.8382C297.648 86.8382 298.558 85.9286 298.558 83.8669ZM306.787 82.3357C306.727 81.3503 305.908 81.0623 304.923 81.0623C304.059 81.0623 302.982 81.3351 302.982 82.2902C302.982 84.352 308.288 82.457 308.288 85.7619C308.288 86.8685 307.636 88.3239 304.817 88.3239C302.634 88.3239 301.633 87.2172 301.572 85.7467H302.937C302.967 86.6411 303.528 87.2779 304.968 87.2779C306.636 87.2779 307.03 86.5653 307.03 85.8377C307.03 84.3065 304.225 84.9432 302.694 84.0943C302.133 83.7759 301.739 83.2756 301.739 82.366C301.739 80.9561 302.982 80.0162 304.938 80.0162C307.348 80.0162 308.061 81.4109 308.106 82.3357H306.787ZM311.489 83.7607C311.489 80.9561 310.201 78.3486 309.276 76.9994H310.504C311.52 78.3031 312.793 81.0623 312.793 83.7607C312.793 86.4744 311.52 89.2487 310.504 90.5373H309.276C310.201 89.2032 311.489 86.5653 311.489 83.7607Z" fill="#322D2D"/>
<path fill-rule="evenodd" clip-rule="evenodd" d="M12.2978 102.603C12.5774 102.848 12.6028 103.274 12.3541 103.55L5.35385 111.32C5.10388 111.597 4.67469 111.615 4.40279 111.359L0.35199 107.546C0.0993685 107.308 0.0751864 106.911 0.291927 106.641C0.531086 106.342 0.976452 106.3 1.26108 106.556L4.40396 109.383C4.67709 109.629 5.09759 109.607 5.34367 109.334L11.3649 102.658C11.6085 102.388 12.0241 102.364 12.2978 102.603Z" fill="#322D2D"/>
<path d="M27.235 105.031C27.235 107.001 25.8857 108.442 23.5208 108.442H21.0194V112.489H19.7308V101.877H24.0817C25.7796 101.877 27.235 102.999 27.235 105.031ZM25.916 105.137C25.916 103.772 25.0822 103.029 23.8088 103.029H21.0194V107.289H23.642C25.0064 107.289 25.916 106.395 25.916 105.137ZM33.8839 109.336V108.411C33.8839 108.411 32.1254 108.639 31.2309 108.775C30.3668 108.896 29.6694 109.184 29.6694 110.139C29.6694 110.943 30.2152 111.549 31.3219 111.549C32.853 111.549 33.8839 110.67 33.8839 109.336ZM30.5487 107.865C31.3219 107.714 33.8839 107.411 33.8839 107.411V106.971C33.8839 105.849 33.3988 105.319 31.9738 105.319C30.4426 105.319 30.0181 106.016 29.9575 106.835H28.7144C28.7144 105.789 29.3359 104.288 31.9738 104.288C34.748 104.288 35.127 105.728 35.127 107.016V111.185C35.127 111.564 35.1422 112.171 35.2332 112.489H33.9749C33.9749 112.489 33.9446 112.05 33.9446 111.398C33.5504 111.913 32.6863 112.595 31.0338 112.595C29.4724 112.595 28.3808 111.686 28.3808 110.17C28.3808 108.487 29.7301 108.032 30.5487 107.865ZM37.1826 104.394H38.4258V109.579C38.4258 110.988 39.1383 111.549 40.2298 111.549C41.5942 111.549 42.5948 110.685 42.5948 108.987V104.394H43.8379V112.489H42.6099V111.337C42.14 112.05 41.291 112.595 39.9114 112.595C38.1377 112.595 37.1826 111.443 37.1826 109.912V104.394ZM50.8292 106.607C50.7686 105.622 49.95 105.334 48.9646 105.334C48.1004 105.334 47.0241 105.607 47.0241 106.562C47.0241 108.623 52.3301 106.728 52.3301 110.033C52.3301 111.14 51.6782 112.595 48.8584 112.595C46.6754 112.595 45.6748 111.489 45.6142 110.018H46.9786C47.0089 110.913 47.5698 111.549 49.01 111.549C50.6776 111.549 51.0718 110.837 51.0718 110.109C51.0718 108.578 48.2672 109.215 46.736 108.366C46.1751 108.047 45.781 107.547 45.781 106.637C45.781 105.228 47.0241 104.288 48.9797 104.288C51.3902 104.288 52.1027 105.682 52.1482 106.607H50.8292ZM59.6244 109.7L60.8827 109.715C60.7159 111.14 59.6547 112.595 57.3352 112.595C55.1825 112.595 53.6968 111.201 53.6968 108.457C53.6968 105.94 55.2432 104.288 57.3959 104.288C59.6699 104.288 60.9282 105.986 60.9282 108.654H54.9703C55.0006 110.185 55.6373 111.549 57.4262 111.549C58.7451 111.549 59.5183 110.731 59.6244 109.7ZM55.0158 107.668H59.5789C59.4576 105.955 58.4722 105.334 57.3656 105.334C56.1224 105.334 55.1674 106.168 55.0158 107.668ZM70.1658 101.71C72.8491 101.71 74.7745 103.712 74.7745 107.198C74.7745 110.685 72.8491 112.656 70.1658 112.656C67.4825 112.656 65.5572 110.685 65.5572 107.198C65.5572 103.712 67.4825 101.71 70.1658 101.71ZM70.1658 111.504C72.1518 111.504 73.4101 109.973 73.4101 107.198C73.4101 104.379 72.1518 102.878 70.1658 102.878C68.1799 102.878 66.9216 104.379 66.9216 107.198C66.9216 109.973 68.1799 111.504 70.1658 111.504ZM80.8537 105.667H80.308C78.8526 105.667 77.8369 106.168 77.8369 108.078V112.489H76.5938V104.394H77.8217V105.789C78.3523 104.758 79.4287 104.394 80.2777 104.394H80.8537V105.667ZM89.7517 111.504C91.5254 111.504 92.3441 110.352 92.4654 109.169H93.8601C93.7994 110.382 92.7837 112.656 89.7366 112.656C86.4317 112.656 85.1734 110.276 85.1734 107.168C85.1734 104.424 86.4165 101.71 89.7972 101.71C92.8898 101.71 93.7236 104.03 93.7994 105.167H92.3896C92.2531 103.833 91.4193 102.878 89.7669 102.878C87.1897 102.878 86.5378 105.228 86.5378 107.198C86.5378 109.139 87.1897 111.504 89.7517 111.504ZM100.727 109.336V108.411C100.727 108.411 98.9685 108.639 98.0741 108.775C97.21 108.896 96.5126 109.184 96.5126 110.139C96.5126 110.943 97.0584 111.549 98.165 111.549C99.6962 111.549 100.727 110.67 100.727 109.336ZM97.3919 107.865C98.165 107.714 100.727 107.411 100.727 107.411V106.971C100.727 105.849 100.242 105.319 98.8169 105.319C97.2858 105.319 96.8613 106.016 96.8006 106.835H95.5575C95.5575 105.789 96.1791 104.288 98.8169 104.288C101.591 104.288 101.97 105.728 101.97 107.016V111.185C101.97 111.564 101.985 112.171 102.076 112.489H100.818C100.818 112.489 100.788 112.05 100.788 111.398C100.394 111.913 99.5294 112.595 97.877 112.595C96.3155 112.595 95.224 111.686 95.224 110.17C95.224 108.487 96.5732 108.032 97.3919 107.865ZM110.833 112.489H109.59V107.35C109.59 105.94 108.847 105.364 107.725 105.364C106.451 105.364 105.314 106.228 105.314 108.017V112.489H104.071V104.394H105.299V105.591C105.815 104.833 106.724 104.288 108.013 104.288C109.726 104.288 110.833 105.319 110.833 106.926V112.489ZM113.804 108.472C113.804 110.685 114.88 111.549 116.23 111.549C117.427 111.549 118.276 110.867 118.398 109.639H119.656C119.428 111.595 118.019 112.595 116.139 112.595C113.986 112.595 112.531 111.216 112.531 108.472C112.531 105.713 114.153 104.288 116.26 104.288C118.11 104.288 119.413 105.288 119.626 107.183H118.367C118.201 105.879 117.367 105.334 116.26 105.334C114.88 105.334 113.804 106.228 113.804 108.472ZM126.941 109.7L128.2 109.715C128.033 111.14 126.972 112.595 124.652 112.595C122.499 112.595 121.014 111.201 121.014 108.457C121.014 105.94 122.56 104.288 124.713 104.288C126.987 104.288 128.245 105.986 128.245 108.654H122.287C122.318 110.185 122.954 111.549 124.743 111.549C126.062 111.549 126.835 110.731 126.941 109.7ZM122.333 107.668H126.896C126.775 105.955 125.789 105.334 124.682 105.334C123.439 105.334 122.484 106.168 122.333 107.668ZM131.237 112.489H129.994V101.271H131.237V112.489ZM142.177 109.594H137.948L137.023 112.489H135.704L139.206 101.877H140.95L144.467 112.489H143.102L142.177 109.594ZM141.829 108.472L140.055 102.923L138.297 108.472H141.829ZM152.523 112.489H151.28V107.35C151.28 105.94 150.537 105.364 149.415 105.364C148.141 105.364 147.004 106.228 147.004 108.017V112.489H145.761V104.394H146.989V105.591C147.505 104.833 148.414 104.288 149.703 104.288C151.416 104.288 152.523 105.319 152.523 106.926V112.489ZM159.46 104.394H160.764L157.338 113.793C156.989 114.748 156.549 115.4 155.382 115.4H153.987V114.354H155.033C155.913 114.354 156.049 113.884 156.458 112.611L153.457 104.394H154.821L157.141 111.11L159.46 104.394ZM166.016 112.444C166.016 112.444 165.395 112.535 164.606 112.535C163.242 112.535 162.787 111.959 162.787 110.609V105.44H161.453V104.394H162.787V101.877H164.03V104.394H166.122V105.44H164.03V110.291C164.03 111.322 164.258 111.458 165.076 111.458C165.304 111.458 165.94 111.413 166.016 111.413V112.444ZM168.886 102.787H167.643V101.271H168.886V102.787ZM168.886 112.489H167.643V104.394H168.886V112.489ZM179.523 104.288C181.297 104.288 182.237 105.379 182.237 106.956V112.489H180.994V107.32C180.994 106.031 180.433 105.364 179.311 105.364C178.098 105.364 177.234 106.213 177.234 107.835V112.489H175.991V107.32C175.991 106.077 175.491 105.364 174.338 105.364C173.08 105.364 172.246 106.228 172.246 107.926V112.489H171.003V104.394H172.231V105.455C172.686 104.727 173.535 104.288 174.611 104.288C175.779 104.288 176.612 104.879 176.931 105.713C177.507 104.712 178.477 104.288 179.523 104.288ZM189.861 109.7L191.12 109.715C190.953 111.14 189.892 112.595 187.572 112.595C185.419 112.595 183.934 111.201 183.934 108.457C183.934 105.94 185.48 104.288 187.633 104.288C189.907 104.288 191.165 105.986 191.165 108.654H185.207C185.237 110.185 185.874 111.549 187.663 111.549C188.982 111.549 189.755 110.731 189.861 109.7ZM185.253 107.668H189.816C189.694 105.955 188.709 105.334 187.602 105.334C186.359 105.334 185.404 106.168 185.253 107.668ZM201.737 109.594H197.507L196.582 112.489H195.263L198.765 101.877H200.509L204.026 112.489H202.661L201.737 109.594ZM201.388 108.472L199.614 102.923L197.856 108.472H201.388ZM208.579 105.44H206.7V112.489H205.456V105.44H204.031V104.394H205.456V103.029C205.456 101.877 206.169 101.18 207.442 101.18C207.973 101.18 208.685 101.21 208.685 101.21V102.287C208.61 102.271 208.003 102.256 207.791 102.256C207.139 102.256 206.7 102.332 206.7 103.181V104.394H208.579V105.44ZM213.998 112.444C213.998 112.444 213.377 112.535 212.588 112.535C211.224 112.535 210.769 111.959 210.769 110.609V105.44H209.435V104.394H210.769V101.877H212.012V104.394H214.104V105.44H212.012V110.291C212.012 111.322 212.24 111.458 213.058 111.458C213.286 111.458 213.922 111.413 213.998 111.413V112.444ZM220.877 109.7L222.135 109.715C221.969 111.14 220.907 112.595 218.588 112.595C216.435 112.595 214.95 111.201 214.95 108.457C214.95 105.94 216.496 104.288 218.649 104.288C220.923 104.288 222.181 105.986 222.181 108.654H216.223C216.253 110.185 216.89 111.549 218.679 111.549C219.998 111.549 220.771 110.731 220.877 109.7ZM216.268 107.668H220.832C220.71 105.955 219.725 105.334 218.618 105.334C217.375 105.334 216.42 106.168 216.268 107.668ZM228.19 105.667H227.644C226.189 105.667 225.173 106.168 225.173 108.078V112.489H223.93V104.394H225.158V105.789C225.689 104.758 226.765 104.394 227.614 104.394H228.19V105.667ZM236.057 112.656C233.768 112.656 232.434 111.337 232.434 109.306H233.783C233.813 110.731 234.632 111.549 236.042 111.549C237.755 111.549 238.392 110.625 238.392 109.563C238.392 108.351 237.603 107.729 236.087 107.729C235.905 107.729 235.299 107.744 235.299 107.744V106.592H235.936C237.361 106.592 238.134 105.91 238.134 104.712C238.134 103.636 237.361 102.923 236.163 102.923C234.571 102.923 233.95 103.818 233.95 105.228H232.676C232.676 103.242 233.889 101.832 236.194 101.832C238.21 101.832 239.423 103.045 239.423 104.591C239.423 105.713 238.816 106.637 237.679 107.047C238.847 107.289 239.711 108.214 239.711 109.518C239.711 111.276 238.437 112.656 236.057 112.656ZM250.08 111.155L253.325 101.877H255.265V112.489H253.976V103.272L250.793 112.489H249.292L246.169 103.272V112.489H244.88V101.877H246.912L250.08 111.155ZM264.497 108.442C264.497 111.216 262.981 112.595 260.798 112.595C258.6 112.595 257.084 111.201 257.084 108.442C257.084 105.698 258.6 104.288 260.798 104.288C262.981 104.288 264.497 105.682 264.497 108.442ZM258.357 108.442C258.357 110.7 259.388 111.549 260.798 111.549C262.193 111.549 263.223 110.7 263.223 108.442C263.223 106.198 262.193 105.334 260.798 105.334C259.388 105.334 258.357 106.183 258.357 108.442ZM273.003 112.489H271.76V107.35C271.76 105.94 271.017 105.364 269.895 105.364C268.622 105.364 267.485 106.228 267.485 108.017V112.489H266.242V104.394H267.47V105.591C267.985 104.833 268.895 104.288 270.183 104.288C271.896 104.288 273.003 105.319 273.003 106.926V112.489ZM278.961 112.444C278.961 112.444 278.34 112.535 277.551 112.535C276.187 112.535 275.732 111.959 275.732 110.609V105.44H274.398V104.394H275.732V101.877H276.975V104.394H279.067V105.44H276.975V110.291C276.975 111.322 277.203 111.458 278.021 111.458C278.249 111.458 278.885 111.413 278.961 111.413V112.444ZM287.349 112.489H286.106V107.35C286.106 105.955 285.333 105.364 284.241 105.364C282.968 105.364 281.831 106.228 281.831 108.017V112.489H280.588V101.271H281.831V105.591C282.331 104.833 283.241 104.288 284.529 104.288C286.257 104.288 287.349 105.319 287.349 106.926V112.489ZM294.292 106.607C294.232 105.622 293.413 105.334 292.428 105.334C291.564 105.334 290.487 105.607 290.487 106.562C290.487 108.623 295.793 106.728 295.793 110.033C295.793 111.14 295.141 112.595 292.322 112.595C290.138 112.595 289.138 111.489 289.077 110.018H290.442C290.472 110.913 291.033 111.549 292.473 111.549C294.141 111.549 294.535 110.837 294.535 110.109C294.535 108.578 291.73 109.215 290.199 108.366C289.638 108.047 289.244 107.547 289.244 106.637C289.244 105.228 290.487 104.288 292.443 104.288C294.853 104.288 295.566 105.682 295.611 106.607H294.292ZM305.998 111.155L309.242 101.877H311.182V112.489H309.894V103.272L306.71 112.489H305.209L302.086 103.272V112.489H300.798V101.877H302.829L305.998 111.155ZM314.623 102.787H313.38V101.271H314.623V102.787ZM314.623 112.489H313.38V104.394H314.623V112.489ZM323.502 112.489H322.259V107.35C322.259 105.94 321.516 105.364 320.394 105.364C319.121 105.364 317.984 106.228 317.984 108.017V112.489H316.741V104.394H317.969V105.591C318.484 104.833 319.394 104.288 320.682 104.288C322.395 104.288 323.502 105.319 323.502 106.926V112.489ZM326.822 102.787H325.579V101.271H326.822V102.787ZM326.822 112.489H325.579V104.394H326.822V112.489ZM337.46 104.288C339.233 104.288 340.173 105.379 340.173 106.956V112.489H338.93V107.32C338.93 106.031 338.369 105.364 337.247 105.364C336.035 105.364 335.17 106.213 335.17 107.835V112.489H333.927V107.32C333.927 106.077 333.427 105.364 332.275 105.364C331.017 105.364 330.183 106.228 330.183 107.926V112.489H328.94V104.394H330.168V105.455C330.622 104.727 331.471 104.288 332.548 104.288C333.715 104.288 334.549 104.879 334.867 105.713C335.443 104.712 336.414 104.288 337.46 104.288ZM342.204 104.394H343.447V109.579C343.447 110.988 344.159 111.549 345.251 111.549C346.615 111.549 347.616 110.685 347.616 108.987V104.394H348.859V112.489H347.631V111.337C347.161 112.05 346.312 112.595 344.932 112.595C343.159 112.595 342.204 111.443 342.204 109.912V104.394ZM359.504 104.288C361.277 104.288 362.217 105.379 362.217 106.956V112.489H360.974V107.32C360.974 106.031 360.413 105.364 359.292 105.364C358.079 105.364 357.215 106.213 357.215 107.835V112.489H355.971V107.32C355.971 106.077 355.471 105.364 354.319 105.364C353.061 105.364 352.227 106.228 352.227 107.926V112.489H350.984V104.394H352.212V105.455C352.667 104.727 353.516 104.288 354.592 104.288C355.759 104.288 356.593 104.879 356.911 105.713C357.487 104.712 358.458 104.288 359.504 104.288Z" fill="#322D2D"/>
<path fill-rule="evenodd" clip-rule="evenodd" d="M12.2978 126.875C12.5774 127.119 12.6028 127.546 12.3541 127.822L5.35385 135.591C5.10388 135.869 4.67469 135.886 4.40279 135.631L0.35199 131.817C0.0993685 131.579 0.0751864 131.183 0.291927 130.912C0.531086 130.613 0.976452 130.572 1.26108 130.828L4.40396 133.655C4.67709 133.901 5.09759 133.879 5.34367 133.606L11.3649 126.93C11.6085 126.66 12.0241 126.635 12.2978 126.875Z" fill="#322D2D"/>
<path d="M22.8234 136.928C20.5039 136.928 19.6246 135.366 19.5943 134.153H20.9435C20.9739 134.866 21.3529 135.851 22.8992 135.851C24.9458 135.851 25.537 133.683 25.537 131.485C25.0216 132.41 23.9149 133.016 22.7021 133.016C20.8829 133.016 19.4276 131.834 19.4276 129.62C19.4276 127.68 20.7768 126.088 23.0205 126.088C25.5219 126.088 26.8408 128.15 26.8408 131.015C26.8408 133.805 26.1737 136.928 22.8234 136.928ZM20.7313 129.545C20.7313 130.985 21.5045 131.925 22.8992 131.925C24.2333 131.925 25.2187 131 25.2187 129.575C25.2187 128.15 24.3697 127.18 22.9902 127.18C21.6258 127.18 20.7313 128.089 20.7313 129.545ZM32.1412 126.088C33.8088 126.088 35.7796 127.089 35.7796 131.5C35.7796 135.942 33.8088 136.928 32.1412 136.928C30.4736 136.928 28.5028 135.942 28.5028 131.5C28.5028 127.089 30.4736 126.088 32.1412 126.088ZM32.1412 135.836C33.2176 135.836 34.4304 135.184 34.4304 131.5C34.4304 127.832 33.2176 127.195 32.1412 127.195C31.0649 127.195 29.8369 127.832 29.8369 131.5C29.8369 135.184 31.0649 135.836 32.1412 135.836ZM49.6632 131.303C49.6632 134.047 48.3898 136.761 44.7969 136.761H40.9311V126.149H45.1001C47.5105 126.149 49.6632 127.725 49.6632 131.303ZM48.3291 131.379C48.3291 128.211 46.6009 127.286 44.7514 127.286H42.2197V135.624H44.6604C46.2674 135.624 48.3291 134.866 48.3291 131.379ZM56.6091 133.607V132.683C56.6091 132.683 54.8505 132.91 53.9561 133.047C53.092 133.168 52.3946 133.456 52.3946 134.411C52.3946 135.214 52.9404 135.821 54.0471 135.821C55.5782 135.821 56.6091 134.942 56.6091 133.607ZM53.2739 132.137C54.0471 131.985 56.6091 131.682 56.6091 131.682V131.243C56.6091 130.121 56.124 129.59 54.6989 129.59C53.1678 129.59 52.7433 130.287 52.6827 131.106H51.4395C51.4395 130.06 52.0611 128.559 54.6989 128.559C57.4732 128.559 57.8522 129.999 57.8522 131.288V135.457C57.8522 135.836 57.8674 136.442 57.9583 136.761H56.7001C56.7001 136.761 56.6697 136.321 56.6697 135.669C56.2756 136.185 55.4115 136.867 53.759 136.867C52.1975 136.867 51.106 135.957 51.106 134.441C51.106 132.759 52.4553 132.304 53.2739 132.137ZM64.8137 128.665H66.1175L62.6913 138.065C62.3427 139.02 61.903 139.671 60.7357 139.671H59.341V138.625H60.387C61.2663 138.625 61.4027 138.155 61.8121 136.882L58.8104 128.665H60.1748L62.4943 135.381L64.8137 128.665ZM75.9476 135.427L79.1918 126.149H81.1323V136.761H79.8437V127.543L76.6601 136.761H75.1593L72.0363 127.543V136.761H70.7477V126.149H72.7791L75.9476 135.427ZM90.3642 132.713C90.3642 135.487 88.8482 136.867 86.6651 136.867C84.4669 136.867 82.9509 135.472 82.9509 132.713C82.9509 129.969 84.4669 128.559 86.6651 128.559C88.8482 128.559 90.3642 129.954 90.3642 132.713ZM84.2244 132.713C84.2244 134.972 85.2552 135.821 86.6651 135.821C88.0598 135.821 89.0907 134.972 89.0907 132.713C89.0907 130.469 88.0598 129.605 86.6651 129.605C85.2552 129.605 84.2244 130.454 84.2244 132.713ZM98.8705 136.761H97.6273V131.622C97.6273 130.212 96.8845 129.636 95.7626 129.636C94.4892 129.636 93.3522 130.5 93.3522 132.289V136.761H92.1091V128.665H93.337V129.863C93.8525 129.105 94.7621 128.559 96.0507 128.559C97.7638 128.559 98.8705 129.59 98.8705 131.197V136.761ZM106.496 133.971L107.754 133.986C107.588 135.412 106.526 136.867 104.207 136.867C102.054 136.867 100.568 135.472 100.568 132.728C100.568 130.212 102.115 128.559 104.268 128.559C106.542 128.559 107.8 130.257 107.8 132.925H101.842C101.872 134.456 102.509 135.821 104.298 135.821C105.617 135.821 106.39 135.002 106.496 133.971ZM101.887 131.94H106.451C106.329 130.227 105.344 129.605 104.237 129.605C102.994 129.605 102.039 130.439 101.887 131.94ZM114.528 128.665H115.832L112.405 138.065C112.057 139.02 111.617 139.671 110.45 139.671H109.055V138.625H110.101C110.98 138.625 111.117 138.155 111.526 136.882L108.525 128.665H109.889L112.208 135.381L114.528 128.665ZM128.406 133.805C128.406 135.23 127.375 136.761 125.07 136.761H120.462V126.149H124.631C126.207 126.149 128.027 126.604 128.027 128.756C128.027 130.106 127.102 130.924 126.314 131.243C127.299 131.455 128.406 132.198 128.406 133.805ZM126.768 128.923C126.768 127.68 125.874 127.271 124.798 127.271H121.75V130.773H124.631C125.783 130.773 126.768 130.136 126.768 128.923ZM127.087 133.698C127.087 132.258 125.813 131.864 124.115 131.864H121.75V135.639H124.813C126.253 135.639 127.087 134.972 127.087 133.698ZM135.192 133.607V132.683C135.192 132.683 133.434 132.91 132.539 133.047C131.675 133.168 130.978 133.456 130.978 134.411C130.978 135.214 131.524 135.821 132.63 135.821C134.162 135.821 135.192 134.942 135.192 133.607ZM131.857 132.137C132.63 131.985 135.192 131.682 135.192 131.682V131.243C135.192 130.121 134.707 129.59 133.282 129.59C131.751 129.59 131.327 130.287 131.266 131.106H130.023C130.023 130.06 130.644 128.559 133.282 128.559C136.057 128.559 136.436 129.999 136.436 131.288V135.457C136.436 135.836 136.451 136.442 136.542 136.761H135.283C135.283 136.761 135.253 136.321 135.253 135.669C134.859 136.185 133.995 136.867 132.342 136.867C130.781 136.867 129.689 135.957 129.689 134.441C129.689 132.759 131.039 132.304 131.857 132.137ZM139.431 132.743C139.431 134.957 140.507 135.821 141.857 135.821C143.054 135.821 143.903 135.139 144.025 133.911H145.283C145.055 135.866 143.646 136.867 141.766 136.867C139.613 136.867 138.158 135.487 138.158 132.743C138.158 129.984 139.78 128.559 141.887 128.559C143.736 128.559 145.04 129.56 145.252 131.455H143.994C143.827 130.151 142.994 129.605 141.887 129.605C140.507 129.605 139.431 130.5 139.431 132.743ZM152.462 128.665H154.008L151.067 131.667L154.16 136.761H152.69L150.188 132.546L148.263 134.578V136.761H147.02V125.542H148.263V132.986L152.462 128.665ZM163.277 125.982C166.354 125.982 167.188 128.301 167.294 129.438H165.884C165.687 128.104 164.899 127.149 163.277 127.149C160.76 127.149 159.851 129.332 159.851 131.5C159.851 133.441 160.502 135.775 163.155 135.775C165.46 135.775 166.369 134.047 166.369 132.516H163.231V131.333H167.567V136.761H166.4V135.29C166.097 135.775 165.141 136.928 163.049 136.928C159.275 136.928 158.486 133.592 158.486 131.485C158.486 128.893 159.805 125.982 163.277 125.982ZM169.566 128.665H170.809V133.85C170.809 135.26 171.522 135.821 172.613 135.821C173.978 135.821 174.978 134.957 174.978 133.259V128.665H176.221V136.761H174.993V135.609C174.523 136.321 173.675 136.867 172.295 136.867C170.521 136.867 169.566 135.715 169.566 134.184V128.665ZM183.47 133.607V132.683C183.47 132.683 181.712 132.91 180.817 133.047C179.953 133.168 179.256 133.456 179.256 134.411C179.256 135.214 179.802 135.821 180.908 135.821C182.44 135.821 183.47 134.942 183.47 133.607ZM180.135 132.137C180.908 131.985 183.47 131.682 183.47 131.682V131.243C183.47 130.121 182.985 129.59 181.56 129.59C180.029 129.59 179.605 130.287 179.544 131.106H178.301C178.301 130.06 178.922 128.559 181.56 128.559C184.335 128.559 184.714 129.999 184.714 131.288V135.457C184.714 135.836 184.729 136.442 184.82 136.761H183.561C183.561 136.761 183.531 136.321 183.531 135.669C183.137 136.185 182.273 136.867 180.62 136.867C179.059 136.867 177.967 135.957 177.967 134.441C177.967 132.759 179.317 132.304 180.135 132.137ZM191.075 129.939H190.529C189.074 129.939 188.058 130.439 188.058 132.349V136.761H186.815V128.665H188.043V130.06C188.573 129.029 189.65 128.665 190.499 128.665H191.075V129.939ZM197.254 133.607V132.683C197.254 132.683 195.495 132.91 194.601 133.047C193.737 133.168 193.039 133.456 193.039 134.411C193.039 135.214 193.585 135.821 194.692 135.821C196.223 135.821 197.254 134.942 197.254 133.607ZM193.918 132.137C194.692 131.985 197.254 131.682 197.254 131.682V131.243C197.254 130.121 196.769 129.59 195.343 129.59C193.812 129.59 193.388 130.287 193.327 131.106H192.084C192.084 130.06 192.706 128.559 195.343 128.559C198.118 128.559 198.497 129.999 198.497 131.288V135.457C198.497 135.836 198.512 136.442 198.603 136.761H197.345C197.345 136.761 197.314 136.321 197.314 135.669C196.92 136.185 196.056 136.867 194.404 136.867C192.842 136.867 191.751 135.957 191.751 134.441C191.751 132.759 193.1 132.304 193.918 132.137ZM207.359 136.761H206.116V131.622C206.116 130.212 205.373 129.636 204.251 129.636C202.978 129.636 201.841 130.5 201.841 132.289V136.761H200.598V128.665H201.826V129.863C202.341 129.105 203.251 128.559 204.539 128.559C206.253 128.559 207.359 129.59 207.359 131.197V136.761ZM213.317 136.715C213.317 136.715 212.696 136.806 211.907 136.806C210.543 136.806 210.088 136.23 210.088 134.881V129.711H208.754V128.665H210.088V126.149H211.331V128.665H213.423V129.711H211.331V134.563C211.331 135.593 211.559 135.73 212.377 135.73C212.605 135.73 213.241 135.684 213.317 135.684V136.715ZM220.196 133.971L221.454 133.986C221.288 135.412 220.226 136.867 217.907 136.867C215.754 136.867 214.268 135.472 214.268 132.728C214.268 130.212 215.815 128.559 217.968 128.559C220.242 128.559 221.5 130.257 221.5 132.925H215.542C215.572 134.456 216.209 135.821 217.998 135.821C219.317 135.821 220.09 135.002 220.196 133.971ZM215.587 131.94H220.151C220.029 130.227 219.044 129.605 217.937 129.605C216.694 129.605 215.739 130.439 215.587 131.94ZM228.798 133.971L230.056 133.986C229.889 135.412 228.828 136.867 226.508 136.867C224.356 136.867 222.87 135.472 222.87 132.728C222.87 130.212 224.416 128.559 226.569 128.559C228.843 128.559 230.101 130.257 230.101 132.925H224.143C224.174 134.456 224.81 135.821 226.599 135.821C227.918 135.821 228.691 135.002 228.798 133.971ZM224.189 131.94H228.752C228.631 130.227 227.645 129.605 226.539 129.605C225.296 129.605 224.341 130.439 224.189 131.94ZM235.534 130.788L233.442 133.486L232.472 132.759L234.837 130.212L231.851 129.378L232.23 128.211L235.125 129.408L234.898 126.149H236.171L235.959 129.408L238.854 128.211L239.233 129.378L236.232 130.212L238.597 132.759L237.626 133.486L235.534 130.788Z" fill="#322D2D"/>
</svg>
