<svg width="44" height="45" viewBox="0 0 44 45" fill="none" xmlns="http://www.w3.org/2000/svg">
<g clip-path="url(#clip0_625_1958)">
<path d="M34.7016 28.6514C35.3954 29.3912 36.0618 30.1288 36.7578 30.8364C37.5942 31.6875 37.6127 32.4968 36.7793 33.3494C35.9639 34.1836 35.1522 35.0225 34.3336 35.8535C33.5534 36.6459 32.7143 36.6523 31.9147 35.8756C31.2535 35.2334 30.5928 34.5901 29.9443 33.9352C29.7848 33.7744 29.6684 33.7644 29.4647 33.8614C28.8946 34.1319 28.3134 34.3829 27.7238 34.6075C27.4832 34.6992 27.3895 34.8079 27.3974 35.0704C27.4259 35.9779 27.4353 36.8864 27.4417 37.7949C27.4496 38.8979 26.84 39.5191 25.7503 39.528C24.6564 39.537 23.5614 39.5133 22.4696 39.5597C21.6231 39.5955 20.9266 39.4189 20.5403 38.5278C19.8385 39.4315 18.9494 39.9077 17.8687 40.002C16.7858 40.0964 15.823 39.8064 15.0039 39.0667C14.8823 38.957 14.6733 38.8352 14.5375 38.8658C12.7724 39.2628 10.5114 37.9916 10.1913 35.6984C10.1855 35.6573 10.1708 35.6172 10.1518 35.545C8.81313 35.613 7.71185 35.1216 6.898 34.0449C6.09468 32.983 5.9078 31.8029 6.32473 30.5401C3.63102 29.659 2.81086 26.1273 4.90444 24.1691C3.12092 22.487 3.4752 19.3192 5.71618 18.1165C4.27694 15.6646 6.0352 12.4973 8.95316 12.4245C8.93105 11.2572 9.34271 10.2622 10.2187 9.47971C11.0994 8.69302 12.1433 8.42516 13.3304 8.58018C13.3598 8.38667 13.3793 8.21953 13.4109 8.05502C13.6983 6.53647 14.8301 5.42023 16.3836 5.12021C17.8839 4.83021 19.3332 5.43552 20.1549 6.72417C20.3339 7.00469 20.4587 7.05741 20.7624 6.87445C21.0446 6.70414 21.3952 6.57496 21.721 6.5623C22.9718 6.51327 24.2242 6.51063 25.476 6.50641C26.5057 6.50325 27.11 7.1075 27.1295 8.1378C27.1474 9.07476 27.1632 10.0117 27.1716 10.9487C27.1737 11.1554 27.2116 11.2761 27.4427 11.3584C28.0644 11.5793 28.6651 11.8582 29.2847 12.0839C29.4021 12.1266 29.6168 12.0792 29.7063 11.9911C30.3849 11.3252 31.0403 10.6366 31.7083 9.96006C32.4169 9.24244 33.2739 9.22293 33.994 9.91893C34.9053 10.8 35.8091 11.6885 36.7078 12.5827C37.3742 13.246 37.3742 14.1245 36.7151 14.8099C36.066 15.4848 35.4154 16.1587 34.75 16.8167C34.5563 17.0081 34.5215 17.1526 34.6479 17.4073C34.9153 17.9477 35.1553 18.504 35.3612 19.0708C35.4585 19.3387 35.588 19.4204 35.8586 19.4136C36.7793 19.3904 37.7006 19.3814 38.6213 19.3798C39.631 19.3777 40.2432 19.9693 40.2632 20.9753C40.2885 22.2292 40.3037 23.4836 40.308 24.738C40.3111 25.6955 39.6794 26.3393 38.7197 26.3588C37.7848 26.3778 36.8488 26.382 35.9134 26.3767C35.666 26.3752 35.5401 26.4321 35.4512 26.6936C35.2153 27.386 34.93 28.0614 34.7005 28.6509L34.7016 28.6514ZM19.758 36.5147C19.6743 36.483 19.5827 36.4477 19.4906 36.4139C18.1666 35.9347 17.3459 34.4725 17.6218 33.0842C17.7165 32.6081 18.0397 32.3587 18.4735 32.4262C18.8857 32.4905 19.1121 32.8517 19.0431 33.3352C18.9026 34.3164 19.4537 35.052 20.3818 35.1227C21.3373 35.1954 21.9195 34.6233 21.9279 33.5957C21.9384 32.3418 21.9421 31.0874 21.9516 29.8336C22.0021 23.2031 22.0553 16.5726 22.1032 9.94213C22.1111 8.86755 21.3241 8.23376 20.3218 8.48633C19.6522 8.65505 19.4558 8.55698 19.1916 7.92003C18.7025 6.74263 17.5307 6.21325 16.3231 6.62399C15.4076 6.93508 14.8501 7.68961 14.8107 8.67193C14.7717 9.63789 15.3581 10.5322 16.3031 10.9471C16.8142 11.1717 17.0001 11.5276 16.8269 11.9516C16.6616 12.357 16.2957 12.4794 15.7703 12.2801C14.8965 11.9484 14.2648 11.3268 13.8294 10.5206C13.6636 10.2132 13.4446 10.084 13.1351 10.0233C11.4631 9.69642 10.0497 11.2329 10.5029 12.887C10.7546 13.8049 10.3692 14.1957 9.43431 13.9716C8.27302 13.6932 7.02066 14.4561 6.73165 15.6177C6.46476 16.6902 6.89906 17.6693 7.93032 18.2267C8.9042 18.7529 9.91704 18.8525 10.9625 18.4191C11.3842 18.2441 11.7511 18.3685 11.928 18.7097C12.1185 19.0766 11.9943 19.4631 11.5916 19.702C11.4452 19.789 11.281 19.8549 11.1168 19.9008C9.80175 20.2704 8.50833 20.2161 7.32177 19.5148C6.83589 19.2274 6.48371 19.3123 6.12469 19.616C5.8878 19.8164 5.6588 20.0568 5.50983 20.3252C4.86022 21.4995 5.28873 22.8635 6.48687 23.4836C6.78009 23.6354 6.98065 23.829 6.98486 24.1733C6.9896 24.5392 6.78114 24.7543 6.46528 24.893C6.36053 24.9389 6.2584 24.9953 6.16417 25.0596C5.38243 25.5901 5.06342 26.3467 5.19187 27.2626C5.31768 28.16 5.82252 28.789 6.69375 29.0985C6.9817 29.2008 7.19806 29.1882 7.46391 28.9578C8.21827 28.3034 9.12477 27.9396 10.1076 27.7777C10.2755 27.7498 10.454 27.7545 10.624 27.7751C11.0746 27.8304 11.361 28.1436 11.3484 28.5438C11.3357 28.9419 11.0299 29.2172 10.5593 29.2277C9.50116 29.2509 8.61993 29.6443 8.00191 30.5143C7.47549 31.2556 7.4039 32.075 7.84293 32.8801C8.28408 33.6895 8.98685 34.1034 9.92809 34.0918C10.2271 34.0881 10.3824 33.9827 10.494 33.6895C10.9494 32.4905 11.8311 31.7317 13.044 31.3653C13.3093 31.2851 13.612 31.2672 13.8878 31.3004C14.2279 31.341 14.3974 31.602 14.4195 31.94C14.4401 32.2648 14.2964 32.4979 13.9868 32.6097C13.8252 32.6682 13.6594 32.7246 13.4909 32.7526C12.3481 32.9429 11.3231 34.3091 11.6885 35.7907C12.0059 37.0773 13.2604 37.7342 14.6396 37.3425C15.1039 37.2107 15.4397 37.2882 15.7256 37.6915C16.2425 38.4197 16.9753 38.6728 17.8418 38.5747C18.9194 38.4529 19.7711 37.5428 19.758 36.5147ZM22.8802 7.97065C23.6151 8.87229 23.5614 9.8836 23.544 10.8944C23.5161 12.5084 23.5072 14.1229 23.4909 15.7369C23.4893 15.8882 23.4909 16.0395 23.4909 16.1914C27.9196 16.0796 30.526 19.7225 30.6018 22.8314C30.6407 24.4195 30.2149 25.8553 29.2536 27.1102C27.787 29.0258 25.8076 29.9032 23.3703 29.8515C23.3703 31.1206 23.3682 32.3439 23.3708 33.5677C23.3729 34.618 22.9892 35.4712 22.1227 36.0923C22.0306 36.1582 21.9263 36.2837 21.9226 36.3849C21.9032 36.9433 21.9132 37.5028 21.9132 38.0643H26.0093C26.0093 37.8481 26.0103 37.691 26.0093 37.5339C26.0008 36.453 25.9966 35.372 25.9814 34.2911C25.9756 33.8572 26.1719 33.6189 26.5794 33.4591C27.5254 33.0874 28.4603 32.6851 29.3857 32.2643C29.8595 32.0486 30.0775 32.0465 30.4675 32.4241C31.0055 32.945 31.5478 33.4623 32.0679 34.0006C32.4048 34.3497 32.7054 34.7335 32.9444 35.0109C34.0251 33.9816 34.9911 33.0621 35.9781 32.1219C35.8586 31.9954 35.7649 31.8894 35.6644 31.7903C34.8953 31.0321 34.123 30.277 33.3555 29.5167C32.9354 29.1006 32.9433 28.9045 33.186 28.3662C33.5629 27.5294 33.9224 26.682 34.2257 25.8163C34.4847 25.0754 34.5463 24.9784 35.3464 24.9747C36.5077 24.9695 37.669 24.9731 38.8424 24.9731V20.8356C38.6655 20.8356 38.5255 20.8351 38.3855 20.8356C37.2779 20.843 36.1697 20.8456 35.0622 20.8599C34.6236 20.8657 34.3999 20.6548 34.242 20.2493C33.8719 19.3013 33.4745 18.3622 33.0438 17.44C32.8496 17.0234 32.8786 16.7039 33.1944 16.387C33.6013 15.9794 33.9935 15.5571 34.4062 15.1548C34.879 14.6939 35.3664 14.2489 35.7291 13.9078C34.7316 12.8395 33.814 11.8572 32.9575 10.9403C32.0521 11.8066 31.1666 12.6497 30.2859 13.4975C29.8848 13.8835 29.6768 13.8856 29.1694 13.6615C28.2781 13.2687 27.3748 12.9007 26.4615 12.5643C25.9266 12.3671 25.7539 12.2099 25.7471 11.6421C25.7339 10.5754 25.7303 9.50871 25.7213 8.44256C25.7197 8.28913 25.7087 8.13569 25.7013 7.97065H22.8813H22.8802ZM23.4566 28.344C25.1812 28.6572 27.3327 27.5642 28.4029 25.8289C29.5574 23.9576 29.4026 21.5685 28.0413 19.7484C26.9026 18.2256 24.899 17.4373 23.4561 17.7405V28.344H23.4566Z" fill="url(#paint0_linear_625_1958)"/>
<path d="M30.1451 3.62273C30.5173 4.28077 30.841 4.85022 31.1622 5.42179C31.3406 5.73973 31.3675 6.05346 31.0942 6.33503C30.7584 6.68092 30.2357 6.65086 29.9861 6.22535C29.2581 4.98362 28.5453 3.73293 27.8562 2.46905C27.583 1.96814 27.911 1.46196 28.5169 1.39816C29.7471 1.26897 30.979 1.15456 32.2097 1.03434C32.3529 1.0201 32.4961 1.0085 32.6393 0.994264C33.1515 0.944701 33.4679 1.15877 33.5221 1.59219C33.5805 2.0583 33.3173 2.36043 32.8004 2.41685C32.3893 2.46167 31.9781 2.50385 31.4443 2.55974C31.6396 2.67732 31.7349 2.74218 31.8365 2.79491C38.2704 6.14732 42.396 11.3594 43.6178 18.5072C44.9634 26.3778 42.7624 33.3072 36.9233 38.8758C33.8417 41.8148 30.0614 43.4757 25.8774 44.1654C21.3528 44.9115 16.9493 44.4296 12.7521 42.5461C6.66402 39.8143 2.77586 35.1495 0.956016 28.7505C0.20639 26.1168 -0.154209 23.425 0.0621505 20.6743C0.362211 16.8679 1.59457 13.3836 3.75711 10.2543C7.15307 5.34059 11.7466 2.14794 17.6157 0.930464C18.9992 0.6431 20.4384 0.61779 21.855 0.504954C22.4177 0.460135 22.6989 0.722191 22.712 1.17934C22.7257 1.65652 22.4399 1.91541 21.8624 1.91699C18.8518 1.92279 15.9654 2.52811 13.2775 3.88267C6.79089 7.15125 2.66952 12.3196 1.673 19.5628C0.756502 26.2228 2.63109 32.192 7.331 37.1073C10.1152 40.0189 13.5865 41.7642 17.5136 42.5846C22.055 43.5337 26.4859 43.1303 30.7189 41.2185C36.6133 38.5562 40.2624 33.9705 41.8628 27.7345C43.3583 21.9049 42.5271 16.4144 39.2828 11.3331C37.1434 7.98171 34.2254 5.50088 30.6305 3.81729C30.5057 3.75876 30.3752 3.71395 30.1456 3.62273H30.1451Z" fill="url(#paint1_linear_625_1958)"/>
<path d="M13.2734 26.4956C13.3271 25.4589 13.5488 24.6042 13.9888 23.8117C14.0789 23.6499 14.1931 23.498 14.3179 23.3609C14.6721 22.9707 15.0333 22.9233 15.3733 23.2059C15.706 23.4827 15.7255 23.8729 15.4191 24.2736C14.8248 25.0503 14.6532 25.9287 14.7937 26.8794C14.8595 27.3234 14.6927 27.6577 14.3237 27.7721C13.9436 27.8902 13.5603 27.6909 13.4182 27.2527C13.3266 26.9706 13.3045 26.6653 13.274 26.4956H13.2734Z" fill="url(#paint2_linear_625_1958)"/>
<path d="M17.0997 15.3049C17.5861 15.2959 17.8893 15.5638 17.8878 15.993C17.8835 17.046 18.2647 17.9197 19.0285 18.6389C19.3312 18.9236 19.3444 19.3048 19.0985 19.6064C18.8343 19.9312 18.4431 20.0056 18.1099 19.7129C16.9644 18.7064 16.3832 17.4398 16.4938 15.8976C16.5212 15.5142 16.796 15.3323 17.0992 15.3049H17.0997Z" fill="url(#paint3_linear_625_1958)"/>
</g>
<defs>
<linearGradient id="paint0_linear_625_1958" x1="3.72266" y1="22.5341" x2="40.308" y2="22.5341" gradientUnits="userSpaceOnUse">
<stop stop-color="#9E6718"/>
<stop offset="1" stop-color="#FFB545"/>
</linearGradient>
<linearGradient id="paint1_linear_625_1958" x1="0" y1="22.5003" x2="44.0001" y2="22.5003" gradientUnits="userSpaceOnUse">
<stop stop-color="#9E6718"/>
<stop offset="1" stop-color="#FFB545"/>
</linearGradient>
<linearGradient id="paint2_linear_625_1958" x1="13.2734" y1="25.4155" x2="15.6365" y2="25.4155" gradientUnits="userSpaceOnUse">
<stop stop-color="#9E6718"/>
<stop offset="1" stop-color="#FFB545"/>
</linearGradient>
<linearGradient id="paint3_linear_625_1958" x1="16.4805" y1="17.6004" x2="19.2704" y2="17.6004" gradientUnits="userSpaceOnUse">
<stop stop-color="#9E6718"/>
<stop offset="1" stop-color="#FFB545"/>
</linearGradient>
<clipPath id="clip0_625_1958">
<rect width="44" height="44" fill="white" transform="translate(0 0.5)"/>
</clipPath>
</defs>
</svg>
