<svg width="84" height="15" viewBox="0 0 84 15" fill="none" xmlns="http://www.w3.org/2000/svg">
<path d="M6.55308 0.911133L8.02434 5.4392H12.7854L8.93363 8.2377L10.4049 12.7658L6.55308 9.96727L2.70128 12.7658L4.17253 8.2377L0.320731 5.4392H5.08182L6.55308 0.911133Z" fill="#DEA453"/>
<path d="M24.0296 0.911133L25.5009 5.4392H30.262L26.4102 8.2377L27.8814 12.7658L24.0296 9.96727L20.1778 12.7658L21.6491 8.2377L17.7973 5.4392H22.5584L24.0296 0.911133Z" fill="#DEA453"/>
<path d="M41.5023 0.911133L42.9736 5.4392H47.7346L43.8828 8.2377L45.3541 12.7658L41.5023 9.96727L37.6505 12.7658L39.1218 8.2377L35.2699 5.4392H40.031L41.5023 0.911133Z" fill="#DEA453"/>
<path d="M58.9789 0.911133L60.4501 5.4392H65.2112L61.3594 8.2377L62.8307 12.7658L58.9789 9.96727L55.1271 12.7658L56.5983 8.2377L52.7465 5.4392H57.5076L58.9789 0.911133Z" fill="#DEA453"/>
<path d="M76.7367 0.908203L78.2079 5.43627H82.969L79.1172 8.23477L80.5885 12.7628L76.7367 9.96434L72.8849 12.7628L74.3561 8.23477L70.5043 5.43627H75.2654L76.7367 0.908203Z" fill="#DEA453"/>
<mask id="mask0_629_4473" style="mask-type:alpha" maskUnits="userSpaceOnUse" x="70" y="0" width="13" height="13">
<path d="M76.7367 0.908203L78.2079 5.43627H82.969L79.1172 8.23477L80.5885 12.7628L76.7367 9.96434L72.8849 12.7628L74.3561 8.23477L70.5043 5.43627H75.2654L76.7367 0.908203Z" fill="#DEA453"/>
</mask>
<g mask="url(#mask0_629_4473)">
<rect x="79.1836" y="0.908203" width="3.9" height="12" fill="#E1E1E1"/>
</g>
</svg>
