<svg width="19" height="19" viewBox="0 0 19 19" fill="none" xmlns="http://www.w3.org/2000/svg">
<path fill-rule="evenodd" clip-rule="evenodd" d="M13.7014 0.429688H5.61113C2.81854 0.429688 0.554688 2.69354 0.554688 5.48613V13.5764C0.554688 16.369 2.81854 18.6329 5.61113 18.6329H13.7014C16.494 18.6329 18.7579 16.369 18.7579 13.5764V5.48613C18.7579 2.69354 16.494 0.429688 13.7014 0.429688ZM16.9881 13.5764C16.9826 15.3893 15.5143 16.8576 13.7014 16.8631H5.61113C3.79824 16.8576 2.32999 15.3893 2.32444 13.5764V5.48613C2.32999 3.67324 3.79824 2.20499 5.61113 2.19944H13.7014C15.5143 2.20499 16.9826 3.67324 16.9881 5.48613V13.5764ZM14.4599 5.73895C15.0184 5.73895 15.4712 5.28618 15.4712 4.72766C15.4712 4.16915 15.0184 3.71637 14.4599 3.71637C13.9014 3.71637 13.4486 4.16915 13.4486 4.72766C13.4486 5.28618 13.9014 5.73895 14.4599 5.73895ZM9.65628 4.98048C7.14295 4.98048 5.10548 7.01795 5.10548 9.53128C5.10548 12.0446 7.14295 14.0821 9.65628 14.0821C12.1696 14.0821 14.2071 12.0446 14.2071 9.53128C14.2098 8.3235 13.7312 7.16443 12.8771 6.31041C12.0231 5.45639 10.8641 4.97779 9.65628 4.98048ZM6.87524 9.53128C6.87524 11.0672 8.12034 12.3123 9.65628 12.3123C11.1922 12.3123 12.4373 11.0672 12.4373 9.53128C12.4373 7.99534 11.1922 6.75024 9.65628 6.75024C8.12034 6.75024 6.87524 7.99534 6.87524 9.53128Z" fill="white"/>
</svg>
