<svg width="119" height="46" viewBox="0 0 119 46" fill="none" xmlns="http://www.w3.org/2000/svg">
<circle cx="22.7087" cy="23.1179" r="21.242" stroke="#322D2D" stroke-width="2.16"/>
<g clip-path="url(#clip0_625_1867)">
<path d="M31.7836 10.6172C31.4086 10.644 31.0604 10.8404 30.9265 11.1976C30.3015 12.8672 27.7746 13.9655 25.1049 15.1173C20.0333 17.3138 13.1135 20.3049 15.0689 29.823C13.7385 31.2784 12.6581 33.1178 12.1313 35.6625C12.0331 36.1446 12.3456 36.6179 12.8278 36.7161C12.8903 36.725 12.9528 36.7339 13.0064 36.7339C13.4171 36.7339 13.7921 36.4482 13.8814 36.0196C14.31 33.966 15.1225 32.457 16.1761 31.2338C17.2922 31.9481 19.5958 33.1624 22.4709 33.1624C24.5245 33.1624 26.8728 32.5463 29.2836 30.6981C36.9891 24.7872 32.7837 11.7779 32.6051 11.2243C32.4979 10.8672 32.1676 10.6172 31.7836 10.6172ZM28.2121 29.2784C23.5334 32.8678 19.2744 31.0463 17.4886 29.957C18.6047 29.0016 19.8726 28.2159 21.1762 27.4212C23.7745 25.8229 26.4621 24.1711 27.6942 20.9746C27.8728 20.5103 27.6407 20.0014 27.1853 19.8228C26.721 19.6442 26.2121 19.8764 26.0335 20.3317C25.0156 22.9657 22.6941 24.3854 20.2476 25.8944C19.0601 26.6265 17.8101 27.3944 16.6493 28.3409C15.6939 21.1442 20.828 18.912 25.8281 16.7513C27.9978 15.8138 30.0782 14.9119 31.4086 13.6083C32.2211 17.2334 33.3372 25.3408 28.2121 29.2784Z" fill="#322D2D"/>
</g>
<path d="M66.7771 28.7382L70.7571 16.1182H72.4971L67.8971 30.1182H65.5771L60.9371 16.1182H62.7371L66.7771 28.7382ZM80.6243 26.4382L82.2843 26.4582C82.0643 28.3382 80.6643 30.2582 77.6043 30.2582C74.7643 30.2582 72.8043 28.4182 72.8043 24.7982C72.8043 21.4782 74.8443 19.2982 77.6843 19.2982C80.6843 19.2982 82.3443 21.5382 82.3443 25.0582H74.4843C74.5243 27.0782 75.3643 28.8782 77.7243 28.8782C79.4643 28.8782 80.4843 27.7982 80.6243 26.4382ZM74.5443 23.7582H80.5643C80.4043 21.4982 79.1043 20.6782 77.6443 20.6782C76.0043 20.6782 74.7443 21.7782 74.5443 23.7582ZM93.632 19.4382V30.0582C93.632 32.1182 92.492 34.0982 88.732 34.0982C85.932 34.0982 84.372 32.9782 84.312 30.6182H85.972C85.972 31.8382 86.752 32.7382 88.832 32.7382C91.232 32.7382 91.992 31.6382 91.992 29.8782V28.2182C91.532 28.8782 90.472 29.6982 88.652 29.6982C86.132 29.6982 84.152 27.9982 84.152 24.5382C84.152 20.8782 86.492 19.2982 88.792 19.2982C90.412 19.2982 91.392 19.8382 92.012 20.5982V19.4382H93.632ZM91.992 24.3782C91.992 21.7182 91.032 20.6582 89.012 20.6582C87.212 20.6582 85.812 21.8382 85.812 24.4782C85.812 27.2982 87.172 28.2982 88.872 28.2982C90.792 28.2982 91.992 27.0982 91.992 24.3782ZM103.189 25.9582V24.7382C103.189 24.7382 100.869 25.0382 99.6893 25.2182C98.5493 25.3782 97.6293 25.7582 97.6293 27.0182C97.6293 28.0782 98.3493 28.8782 99.8093 28.8782C101.829 28.8782 103.189 27.7182 103.189 25.9582ZM98.7893 24.0182C99.8093 23.8182 103.189 23.4182 103.189 23.4182V22.8382C103.189 21.3582 102.549 20.6582 100.669 20.6582C98.6493 20.6582 98.0893 21.5782 98.0093 22.6582H96.3693C96.3693 21.2782 97.1893 19.2982 100.669 19.2982C104.329 19.2982 104.829 21.1982 104.829 22.8982V28.3982C104.829 28.8982 104.849 29.6982 104.969 30.1182H103.309C103.309 30.1182 103.269 29.5382 103.269 28.6782C102.749 29.3582 101.609 30.2582 99.4293 30.2582C97.3693 30.2582 95.9293 29.0582 95.9293 27.0582C95.9293 24.8382 97.7093 24.2382 98.7893 24.0182ZM116.521 30.1182H114.881V23.3382C114.881 21.4782 113.901 20.7182 112.421 20.7182C110.741 20.7182 109.241 21.8582 109.241 24.2182V30.1182H107.601V19.4382H109.221V21.0182C109.901 20.0182 111.101 19.2982 112.801 19.2982C115.061 19.2982 116.521 20.6582 116.521 22.7782V30.1182Z" fill="#322D2D"/>
<defs>
<clipPath id="clip0_625_1867">
<rect width="27.3625" height="27.3625" fill="white" transform="translate(9.03125 10.1562)"/>
</clipPath>
</defs>
</svg>
